<?xml version="1.0" encoding="UTF-8"?>
<svg id="Layer_1" data-name="Layer 1" xmlns="http://www.w3.org/2000/svg" viewBox="0 0 188.62 182.96">
  <defs>
    <style>
      .cls-1 {
        fill: #000150;
      }

      .cls-1, .cls-2 {
        stroke-width: 0px;
      }

      .cls-2 {
        fill: #fff;
      }
    </style>
  </defs>
  <g>
    <g>
      <path class="cls-1" d="m5.83,167.56c-3.51-.22-5.62-1.25-5.62-1.25.38-2.17,7.66-.92,7.66-.92,0,0-1.75-2.22-2.21-3.22-.46-.99.28-6.69.28-6.69,0,0,.29-.07.7.09-.93-.61-1-1.68-.7-1.81.42-.18,8.71-1.18,8.71-1.18,3.02-1.51,5.15-1.86,6.58-1.79l.2-.21c2.09-2.48,4.11-6.73,6.01-10.35,1.15-2.19,2.07-4.5,2.78-6.88,4.63-15.45,12.35-20.6,14.14-23.95,1.91-3.56,6.1-14.16,6.1-16.96s-1.08-3.56,3.43-17.27c4.51-13.72,14.1-9.4,22.67-12.07,8.57-2.67,7.24-11.18,7.24-11.18l10.63-8.49,10.41,8.49s-1.33,8.51,7.24,11.18c8.57,2.67,18.16-1.65,22.67,12.07,4.51,13.72,3.43,14.48,3.43,17.27s4.19,13.4,6.1,16.96c1.79,3.34,9.51,8.5,14.14,23.95.71,2.37,1.63,4.68,2.78,6.88,1.9,3.61,3.92,7.87,6.01,10.35l.2.21c1.43-.07,3.56.28,6.58,1.79,0,0,8.3.99,8.71,1.18.3.13.23,1.21-.7,1.81.41-.16.7-.09.7-.09,0,0,.74,5.7.28,6.69-.46.99-2.21,3.22-2.21,3.22,0,0,7.28-1.26,7.66.92,0,0-2.12,1.03-5.62,1.25,0,0,2.65.45,2.55,1.86,0,0-3.31.85-9.02-.06-5.7-.92-11.61-4.39-15.62-12.07l-1.83-3.69s-5.69-9.24-9.84-12.8-14.7-11.73-15.41-18.61c-.71-6.87-2.13-6.87-3.56-10.79-1.42-3.91-7.7-15.64-7.7-15.64,0,0-.12,12.92-4.15,19.91,0,0-.12,6.64.59,11.5.71,4.86,1.54,5.81,1.54,9.84,0,2.33,5.02,5.64,11.61,8.8,8.12-1.33,8.96.58,9.53,1.47.6.93,6.73-.6,5.87,3.4-.11.5-.3.85-.58,1.1.28.09.56.19.83.28,12.21,4.03,23.23,13.16,18.13,24.3-5.1,11.14-28.92,3.67-28.92,3.67,0,0-10.9-2.96-17.42-3.56-4.18-.38-15.79-5.18-25.09-9.02-9.31,3.84-20.92,8.64-25.09,9.02-6.52.59-17.42,3.56-17.42,3.56,0,0-23.82,7.47-28.92-3.67-5.1-11.14,5.93-20.27,18.13-24.3.28-.09.55-.19.83-.28-.28-.25-.47-.6-.58-1.1-.87-4,5.27-2.47,5.87-3.4.57-.89,1.41-2.8,9.53-1.47,6.59-3.16,11.61-6.47,11.61-8.8,0-4.03.83-4.98,1.54-9.84.71-4.86.59-11.5.59-11.5-4.03-6.99-4.15-19.91-4.15-19.91,0,0-6.28,11.73-7.7,15.64-1.42,3.91-2.84,3.91-3.56,10.79-.71,6.87-11.26,15.05-15.41,18.61-4.15,3.56-9.84,12.8-9.84,12.8l-1.83,3.69c-4.02,7.68-9.92,11.16-15.62,12.07-5.7.92-9.02.06-9.02.06-.1-1.41,2.55-1.86,2.55-1.86Zm167.86-9.23c.17.53,4.93.01,5.11,1.93.18,1.91-.13,3.06-.13,3.06,0,0,1.51-1.07,1.69-2.54s-.03-3.72.79-4.6c.18-.2.36-.34.53-.44-.33.15-.72.25-1.22.26-2.37.02-5.12-1.02-5.68-.27-.56.74-1.26,2.08-1.09,2.61Zm-163.74,4.99s-.31-1.15-.13-3.06c.18-1.91,4.94-1.4,5.11-1.93.17-.53-.53-1.86-1.09-2.61-.56-.74-3.31.29-5.68.27-.5,0-.89-.11-1.22-.26.17.1.34.24.53.44.82.88.61,3.14.79,4.6.18,1.47,1.69,2.54,1.69,2.54Z"/>
      <path class="cls-2" d="m38.69,171.27c-.22,0-.42-.16-.46-.38-.05-.25.12-.5.37-.55.05-.02,1.87-.56,8.84-7.02,3.29-3.05,9.35-4.95,18.53-5.79.25-.01.49.17.51.42s-.17.49-.42.51c-8.97.82-14.85,2.63-17.98,5.54-7.22,6.7-9.11,7.21-9.3,7.25-.03,0-.06,0-.09,0Z"/>
      <path class="cls-2" d="m122.86,158.44c-.19,0-.37-.11-.44-.3-.09-.24.03-.51.27-.61,2.63-1.01,5.03-2.09,7.11-3.21,5.65-3.03,10.19-2.75,13.21-2.56,2.7.17,3.6.11,3.89-1.19.14-.65.08-1.14-.18-1.49-.59-.78-2.14-.87-3.39-.95-1.11-.07-1.91-.12-2.23-.61l-.08-.12c-.52-.83-1.59-2.55-10.18-.94-9.33,1.75-15.33-1.51-15.58-1.65-.27-.15-6.76-3.63-11.19,2.72-2.23,3.2-5.44,5.74-9.56,7.56-.24.1-.51,0-.62-.24s0-.51.24-.62c3.96-1.75,7.04-4.19,9.17-7.24,4.92-7.07,12.34-3.05,12.41-3.01.06.03,5.97,3.23,14.95,1.55,9.21-1.72,10.47.28,11.14,1.36l.07.11c.14.1.92.15,1.5.19,1.44.09,3.23.2,4.08,1.32.43.57.55,1.33.35,2.25-.47,2.2-2.41,2.08-4.86,1.93-2.9-.18-7.3-.45-12.71,2.45-2.12,1.14-4.55,2.23-7.22,3.26-.05.02-.11.03-.17.03Z"/>
      <path class="cls-2" d="m36.35,182.96c-5.84,0-11.61-1.43-13.9-6.43-1.69-3.69-1.76-7.35-.21-10.89,2.52-5.78,9.48-11.03,18.63-14.04l.83-.28c.25-.08.51.05.59.29.08.25-.05.51-.3.59l-.83.28c-8.89,2.94-15.64,7.99-18.06,13.53-1.43,3.29-1.36,6.69.21,10.13,4.86,10.64,28.12,3.49,28.35,3.42.13-.03,11.04-2.98,17.52-3.57,4.07-.37,15.52-5.1,24.73-8.9l.14-.06c.24-.1.51.01.61.25.1.24-.02.51-.25.61l-.14.06c-9.26,3.82-20.79,8.58-25,8.96-6.4.58-17.23,3.51-17.34,3.54-.54.17-8.11,2.49-15.57,2.49Z"/>
      <path class="cls-2" d="m181.4,170.25c-1.39,0-3.12-.11-5.15-.43-4.74-.76-11.36-3.52-15.96-12.32l-1.84-3.7c-.04-.05-5.68-9.18-9.72-12.65-.4-.35-.86-.73-1.37-1.16-4.73-3.97-13.53-11.36-14.2-17.75-.47-4.56-1.25-6.01-2.15-7.68-.45-.83-.91-1.7-1.38-2.99-1.08-2.99-5.1-10.71-6.85-14.03-.18,3.79-.95,12.71-4.09,18.26-.01.91-.06,6.89.59,11.3.28,1.92.58,3.21.84,4.35.4,1.72.71,3.08.71,5.55,0,1.86,4.09,4.89,11.23,8.32.23.11.33.39.22.63-.11.23-.39.34-.63.22-5.36-2.58-11.76-6.27-11.76-9.17,0-2.37-.29-3.62-.68-5.34-.27-1.16-.57-2.47-.85-4.43-.71-4.84-.6-11.5-.6-11.57,0-.08.02-.16.06-.23,3.92-6.8,4.08-19.55,4.08-19.68,0-.21.15-.4.36-.45.21-.05.42.05.53.23.26.48,6.31,11.81,7.73,15.71.45,1.23.89,2.06,1.33,2.87.91,1.69,1.76,3.28,2.25,8.03.62,6.02,9.24,13.25,13.87,17.13.51.43.98.82,1.38,1.16,4.16,3.56,9.69,12.53,9.93,12.91l1.85,3.73c4.42,8.44,10.75,11.09,15.28,11.82,4.37.7,7.33.34,8.39.16-.32-.55-1.47-.92-2.08-1.03-.23-.04-.4-.25-.39-.49.01-.24.2-.43.44-.44,2.46-.16,4.23-.73,5.01-1.02-.86-.82-4.47-.64-6.94-.22-.2.03-.38-.06-.48-.22s-.09-.38.03-.53c.02-.02,1.72-2.19,2.15-3.12.24-.52.06-3.38-.27-6.01,0,0,0,0-.01,0-.14.09-.29.17-.46.24-.1.07-.2.17-.31.28-.47.51-.53,1.81-.57,2.95-.02.5-.04.98-.09,1.39-.2,1.65-1.82,2.81-1.88,2.86-.16.11-.38.11-.54,0-.16-.11-.24-.31-.19-.5,0-.01.28-1.1.12-2.9-.08-.87-2.08-1.07-3.27-1.19-1.11-.11-1.66-.16-1.82-.64-.33-1.01,1.14-3.02,1.16-3.04.5-.66,1.63-.48,3.19-.22.9.15,1.93.3,2.86.31.36,0,.66-.06.89-.14.17-.11.33-.2.48-.25.14-.11.25-.23.33-.34.18-.26.22-.5.22-.63-.88-.18-5.55-.76-8.46-1.11-.05,0-.11-.02-.16-.05-2.48-1.24-4.62-1.83-6.34-1.75-.16.02-.27-.04-.36-.14l-.2-.21c-1.78-2.11-3.46-5.37-5.08-8.53-.34-.65-.67-1.3-1-1.93-1.12-2.13-2.07-4.47-2.81-6.96-3.38-11.28-8.5-17.11-11.56-20.6-1.14-1.3-2.05-2.33-2.54-3.26-1.92-3.59-6.15-14.24-6.15-17.18,0-.45.03-.86.05-1.27.14-2.06.3-4.4-3.46-15.86-3.16-9.62-8.67-10.08-15.04-10.61-2.41-.2-4.91-.41-7.33-1.16-7.97-2.48-7.73-9.9-7.6-11.42l-9.91-8.09-10.13,8.1c.14,1.53.37,8.94-7.6,11.42-2.42.75-4.92.96-7.33,1.16-6.37.53-11.87.98-15.04,10.61-3.77,11.46-3.6,13.8-3.46,15.86.03.41.05.81.05,1.27,0,2.94-4.23,13.59-6.15,17.18-.5.93-1.4,1.96-2.55,3.26-3.06,3.48-8.17,9.32-11.55,20.6-.75,2.49-1.69,4.83-2.81,6.96-.34.63-.67,1.29-1.01,1.95-1.62,3.14-3.3,6.4-5.05,8.48l-.21.23c-.09.1-.19.16-.36.15-1.69-.09-3.86.5-6.34,1.75-.05.02-.1.04-.16.05-2.89.35-7.52.93-8.46,1.12,0,.13.05.37.22.63.08.11.18.23.33.34.15.06.31.14.48.25.24.08.53.14.9.14.95.04,1.96-.16,2.86-.31,1.56-.26,2.69-.44,3.19.22.01.02,1.49,2.02,1.16,3.04-.15.47-.71.53-1.82.64-1.19.12-3.19.32-3.27,1.19-.17,1.79.11,2.89.12,2.9.05.19-.03.39-.19.5-.16.11-.38.11-.54,0-.07-.05-1.69-1.21-1.88-2.86-.05-.42-.07-.9-.09-1.39-.05-1.14-.1-2.44-.58-2.95-.11-.12-.21-.21-.31-.28-.16-.07-.32-.15-.45-.24h-.02c-.32,2.62-.51,5.49-.27,6,.43.93,2.14,3.1,2.15,3.12.12.15.13.36.03.53s-.28.26-.48.22c-2.47-.43-6.07-.6-6.94.22.78.3,2.55.87,5.01,1.02.24.02.43.21.44.44.01.24-.15.45-.39.49-.61.11-1.76.47-2.08,1.03,1.06.18,4.02.55,8.39-.16,4.53-.73,10.86-3.37,15.28-11.83l1.83-3.69c.25-.42,5.8-9.39,9.95-12.95.41-.35.87-.74,1.39-1.17,4.63-3.88,13.24-11.11,13.86-17.13.49-4.74,1.35-6.34,2.25-8.03.43-.8.88-1.64,1.33-2.87,1.42-3.9,7.47-15.22,7.73-15.71.1-.19.32-.29.53-.23.21.05.36.24.36.45,0,.13.16,12.88,4.09,19.68.04.07.06.15.06.23,0,.07.11,6.73-.6,11.57-.29,1.95-.59,3.27-.85,4.42-.4,1.73-.68,2.97-.68,5.35,0,2.91-6.43,6.61-11.83,9.2-.23.11-.51.01-.63-.22-.11-.23-.01-.51.22-.63,7.08-3.4,11.3-6.52,11.3-8.36,0-2.48.31-3.84.71-5.56.26-1.14.56-2.43.84-4.35.64-4.41.6-10.38.59-11.3-3.14-5.55-3.91-14.48-4.09-18.26-1.75,3.32-5.77,11.04-6.85,14.03-.47,1.29-.93,2.16-1.38,2.99-.9,1.67-1.68,3.12-2.15,7.68-.66,6.39-9.46,13.78-14.19,17.75-.51.43-.97.82-1.38,1.16-4.05,3.47-9.69,12.6-9.74,12.69l-1.81,3.66c-4.61,8.81-11.23,11.56-15.97,12.33-5.74.92-9.07.09-9.21.05-.19-.05-.34-.22-.35-.42-.05-.76.41-1.29.99-1.65-2.36-.38-3.73-1.04-3.8-1.08-.19-.09-.29-.3-.26-.5.36-2.05,4.76-1.76,7.05-1.47-.55-.75-1.28-1.77-1.56-2.39-.49-1.06.12-5.97.24-6.95.01-.1.06-.19.12-.26-.12-.21-.21-.44-.25-.65-.12-.56.04-1.03.4-1.19.42-.18,5.63-.83,8.77-1.2,2.5-1.24,4.75-1.85,6.52-1.82l.05-.05c1.67-1.98,3.32-5.19,4.92-8.29.34-.66.68-1.32,1.01-1.96,1.1-2.08,2.02-4.37,2.75-6.79,3.44-11.48,8.64-17.4,11.75-20.95,1.1-1.26,1.98-2.25,2.42-3.09,1.85-3.45,6.04-14.07,6.04-16.74,0-.43-.03-.81-.05-1.2-.15-2.15-.32-4.59,3.51-16.22,3.36-10.21,9.43-10.72,15.85-11.25,2.36-.2,4.8-.4,7.13-1.12,8.08-2.51,6.97-10.33,6.92-10.66-.03-.17.04-.33.17-.44l10.63-8.49c.17-.14.42-.14.59,0l10.41,8.49c.13.11.19.27.17.44-.05.33-1.16,8.15,6.92,10.66,2.33.72,4.77.93,7.13,1.12,6.43.53,12.49,1.03,15.85,11.25,3.82,11.63,3.66,14.07,3.51,16.22-.03.39-.05.77-.05,1.2,0,2.66,4.19,13.28,6.04,16.74.45.83,1.32,1.83,2.42,3.08,3.11,3.54,8.31,9.47,11.75,20.95.73,2.43,1.65,4.71,2.75,6.79.33.63.66,1.28,1,1.93,1.6,3.11,3.26,6.32,4.95,8.33l.03.03c1.84-.04,4.03.57,6.52,1.82,3.13.37,8.35,1.02,8.77,1.2.36.16.52.63.4,1.19-.05.21-.13.44-.25.65.06.07.11.16.12.26.13.97.73,5.89.24,6.95-.28.62-1.01,1.64-1.56,2.39,2.3-.29,6.69-.58,7.05,1.47.04.21-.07.41-.26.5-.07.03-1.45.7-3.8,1.08.58.36,1.04.89.99,1.65-.01.2-.16.37-.35.42-.09.02-1.51.38-4.06.38Zm-7.27-12.21c.23.05.66.09,1.02.13,1.58.16,3.96.39,4.11,2.04.07.71.07,1.33.04,1.82.28-.36.53-.81.59-1.31.05-.4.07-.85.08-1.32.05-1.06.09-2.15.44-2.94h-.03c-.99,0-2.03-.17-2.95-.32-.79-.13-2.11-.35-2.29-.14-.57.75-.97,1.66-1.02,2.04Zm-165.93-1.59c.35.79.39,1.88.44,2.95.02.47.04.92.09,1.32.06.49.31.95.58,1.31-.03-.49-.02-1.11.04-1.82.15-1.64,2.53-1.88,4.11-2.04.36-.04.79-.08,1.02-.13-.05-.38-.45-1.29-1.02-2.04-.17-.21-1.5,0-2.29.14-.92.15-2.03.32-2.98.32Z"/>
      <path class="cls-2" d="m152.27,182.96c-7.46,0-15.03-2.33-15.58-2.5-.09-.02-10.92-2.95-17.32-3.54-4.22-.38-15.76-5.15-25.03-8.97-5.3-2.19-9.87-4.07-11.92-4.67l-.6-.19c-.08-.01-13.42-2.57-23.44-7.94-5.41-2.9-9.8-2.63-12.71-2.45-2.44.15-4.38.27-4.86-1.93-.2-.92-.08-1.68.35-2.25.85-1.12,2.64-1.23,4.08-1.32.57-.03,1.36-.08,1.52-.21l.05-.08c.67-1.08,1.93-3.09,11.15-1.36,9,1.68,14.89-1.52,14.95-1.55.07-.04,7.49-4.06,12.41,3.01,4.73,6.8,13.73,9.55,20.57,9.87,1.08.05,2.45.07,4.03.1,9.31.17,24.9.44,31.27,6.36,6.96,6.46,8.78,7,8.85,7.02.24.07.4.31.34.56s-.29.4-.54.36c-.19-.04-2.07-.55-9.3-7.25-6.11-5.67-21.47-5.94-30.65-6.11-1.58-.03-2.96-.05-4.05-.1-7.06-.32-16.37-3.19-21.3-10.27-4.43-6.36-10.91-2.88-11.19-2.72-.25.14-6.26,3.39-15.58,1.65-8.59-1.61-9.66.11-10.18.94l-.08.12c-.32.5-1.12.55-2.23.61-1.25.08-2.8.17-3.39.95-.27.35-.33.84-.18,1.49.28,1.3,1.18,1.35,3.89,1.19,3.01-.18,7.56-.47,13.21,2.56,9.89,5.3,23.09,7.84,23.22,7.86l.65.2c2.08.61,6.68,2.51,12,4.7,9.21,3.8,20.68,8.54,24.75,8.91,6.49.59,17.39,3.54,17.5,3.57.25.08,23.5,7.22,28.37-3.42,1.57-3.43,1.64-6.84.21-10.13-2.42-5.54-9.17-10.59-18.06-13.53l-.87-.29c-.25-.08-.38-.35-.29-.59.08-.24.35-.37.59-.29l.86.29c9.14,3.02,16.11,8.27,18.63,14.04,1.54,3.54,1.47,7.2-.21,10.89-2.29,5-8.06,6.43-13.9,6.43Z"/>
    </g>
    <path class="cls-1" d="m77.01,32.25c.45-.34,1.09-.52,1.64-.45-.04-.46-.06-.92-.08-1.38-.03-.69-.03-1.39,0-2.08.02-.64.06-1.28.13-1.91.06-.59.15-1.17.26-1.75.1-.53.23-1.07.38-1.59.14-.49.3-.97.48-1.44.17-.44.36-.87.58-1.3.2-.4.42-.79.66-1.16.23-.36.47-.7.73-1.03.25-.32.51-.62.79-.91.27-.28.55-.55.84-.8,1.58-1.37,3.51-2.31,5.52-2.86.99-.27,2.01-.44,3.04-.54,2.57-.25,5.25-.15,7.75.54.3.08.59.17.88.27.3.1.6.21.9.33.31.13.61.26.91.41.31.15.61.31.9.49.3.18.6.37.89.57.3.21.59.43.87.67.29.24.57.5.83.77.28.28.54.57.79.87.26.32.5.65.73.99.24.36.46.73.66,1.11.22.4.41.82.59,1.24.19.45.35.91.5,1.37.16.5.29,1,.4,1.51.12.55.22,1.11.29,1.66.08.6.14,1.21.17,1.82.04.66.05,1.32.04,1.98,0,.72-.04,1.44-.1,2.15.56-.07,1.19.12,1.64.45.45.34.75.87.78,1.43.02.28-.03.56-.09.84-.21.96-.57,1.89-1.07,2.74-.21.35-.44.69-.59,1.07-.48,1.18-.14,2.51-.16,3.78-.01.53-.11,1.1-.49,1.47-.46.44-1.16.45-1.79.43-.75,3.38-2.2,6.68-4.53,9.24-2.25,2.48-5.35,4.25-8.67,4.63-.23.03-.46.03-.69.03h0c-.23,0-.46,0-.69-.03-3.32-.37-6.42-2.15-8.67-4.63-2.33-2.56-3.78-5.86-4.53-9.24-.63.02-1.33,0-1.79-.43-.38-.37-.48-.94-.49-1.47-.03-1.27.32-2.6-.16-3.78-.15-.38-.38-.72-.59-1.07-.5-.85-.86-1.78-1.07-2.74-.06-.27-.11-.56-.09-.84.03-.56.34-1.09.78-1.43Z"/>
    <path class="cls-2" d="m94.48,12.93c1.77,0,3.55.2,5.25.66.3.08.59.17.88.27.3.1.6.21.9.33.31.13.61.26.91.41.31.15.61.31.9.49.3.18.6.37.89.57.3.21.59.43.87.67.29.24.57.5.83.77.28.28.54.57.79.87.26.32.5.65.73.99.24.36.46.73.66,1.11.22.4.41.82.59,1.24.19.45.35.91.5,1.37.16.5.29,1,.4,1.51.12.55.22,1.11.29,1.66.08.6.14,1.21.17,1.82.04.66.05,1.32.04,1.98,0,.72-.04,1.44-.1,2.15.08,0,.15-.01.23-.01.5,0,1.02.18,1.41.47.45.34.75.87.78,1.43.02.28-.03.56-.09.84-.21.96-.57,1.89-1.07,2.74-.21.35-.44.69-.59,1.07-.48,1.18-.14,2.51-.16,3.78-.01.53-.11,1.1-.49,1.47-.39.38-.97.44-1.52.44-.09,0-.18,0-.27,0-.75,3.38-2.2,6.68-4.53,9.24-2.25,2.48-5.35,4.25-8.67,4.63-.23.03-.46.03-.69.03s-.46,0-.69-.03c-3.32-.37-6.42-2.15-8.67-4.63-2.33-2.56-3.78-5.86-4.53-9.24-.09,0-.18,0-.27,0-.55,0-1.13-.06-1.52-.44-.38-.37-.48-.94-.49-1.47-.03-1.27.32-2.6-.16-3.78-.15-.38-.38-.72-.59-1.07-.5-.85-.86-1.78-1.07-2.74-.06-.27-.11-.56-.09-.84.03-.56.34-1.09.78-1.43.39-.29.92-.47,1.41-.47.08,0,.16,0,.23.01-.04-.46-.06-.92-.08-1.38-.03-.69-.03-1.39,0-2.08.02-.64.06-1.28.13-1.91.06-.59.15-1.17.26-1.75.1-.53.23-1.07.38-1.59.14-.49.3-.97.48-1.44.17-.44.36-.87.58-1.3.2-.4.42-.79.66-1.16.23-.36.47-.7.73-1.03.25-.32.51-.62.79-.91.27-.28.55-.55.84-.8,1.58-1.37,3.51-2.31,5.52-2.86.99-.27,2.01-.44,3.04-.54.83-.08,1.66-.12,2.5-.12m0-.94c-.84,0-1.71.04-2.59.13-1.12.11-2.19.3-3.19.57-2.25.6-4.29,1.66-5.89,3.05-.31.27-.62.56-.9.86-.3.31-.58.64-.85.98-.28.35-.54.73-.78,1.11-.25.4-.49.81-.71,1.24-.22.44-.43.91-.61,1.38-.19.49-.36,1-.51,1.52-.15.54-.29,1.1-.4,1.67-.11.59-.2,1.2-.27,1.82-.07.64-.12,1.3-.14,1.98-.02.69-.02,1.41,0,2.15,0,.16.01.32.02.49-.44.11-.86.3-1.21.56-.68.51-1.11,1.3-1.16,2.12-.02.4.04.78.11,1.09.23,1.06.63,2.08,1.18,3.01l.16.26c.15.24.29.47.37.69.25.61.2,1.37.14,2.17-.03.43-.06.86-.05,1.28.02.95.27,1.64.78,2.13.5.48,1.12.63,1.69.68.89,3.54,2.47,6.62,4.58,8.95,2.5,2.75,5.88,4.55,9.26,4.93.26.03.53.04.8.04s.53,0,.8-.04c3.38-.38,6.76-2.18,9.26-4.93,2.11-2.33,3.69-5.41,4.58-8.95.57-.05,1.19-.2,1.69-.68.51-.48.76-1.18.78-2.13,0-.42-.02-.85-.05-1.28-.06-.8-.11-1.56.14-2.17.09-.22.23-.45.37-.69l.16-.26c.55-.94.95-1.95,1.18-3.01.07-.31.14-.69.11-1.09-.05-.82-.48-1.61-1.16-2.12-.35-.26-.77-.46-1.21-.56.02-.43.04-.86.04-1.28,0-.7,0-1.39-.04-2.05-.04-.65-.1-1.29-.18-1.89-.08-.59-.18-1.18-.31-1.74-.12-.55-.26-1.08-.42-1.59-.16-.5-.33-.99-.53-1.45-.19-.45-.4-.9-.63-1.32-.22-.41-.46-.81-.71-1.19-.25-.37-.51-.72-.78-1.06-.27-.33-.55-.64-.85-.94-.29-.29-.58-.56-.89-.82-.3-.25-.61-.49-.93-.72-.31-.22-.63-.42-.95-.61-.31-.18-.64-.36-.96-.52-.32-.16-.64-.3-.96-.43-.31-.13-.63-.25-.95-.35-.31-.1-.62-.2-.93-.28-1.68-.46-3.53-.69-5.5-.69h0Z"/>
  </g>
  <path class="cls-2" d="m87.75,34.21c0,3.64,2.95,6.58,6.58,6.58s6.58-2.95,6.58-6.58-2.95-6.58-6.58-6.58-6.58,2.95-6.58,6.58Z"/>
</svg>