<?xml version="1.0" encoding="UTF-8"?>
<svg id="Layer_1" data-name="Layer 1" xmlns="http://www.w3.org/2000/svg" viewBox="0 0 188.62 182.96">
  <defs>
    <style>
      .cls-1 {
        fill: #000150;
      }

      .cls-1, .cls-2 {
        stroke-width: 0px;
      }

      .cls-2 {
        fill: #fff;
      }
    </style>
  </defs>
  <g>
    <g>
      <path class="cls-1" d="m6.3,167.64c-3.49-.22-5.59-1.25-5.59-1.25.38-2.16,7.62-.91,7.62-.91,0,0-1.74-2.21-2.2-3.2-.45-.99.28-6.66.28-6.66,0,0,.28-.07.7.09-.92-.61-1-1.67-.7-1.8.42-.18,8.67-1.17,8.67-1.17,3-1.5,5.12-1.85,6.54-1.78l.2-.21c2.07-2.47,4.09-6.7,5.98-10.29,1.15-2.18,2.06-4.48,2.77-6.84,4.61-15.37,12.28-20.49,14.06-23.82,1.9-3.54,6.06-14.09,6.06-16.87s-1.07-3.54,3.41-17.18c4.49-13.65,14.02-9.35,22.55-12,8.53-2.65,7.2-11.12,7.2-11.12l10.57-8.45,10.35,8.45s-1.33,8.47,7.2,11.12c8.53,2.65,18.07-1.64,22.55,12,4.49,13.65,3.41,14.4,3.41,17.18s4.17,13.33,6.06,16.87c1.78,3.32,9.45,8.45,14.06,23.82.71,2.36,1.62,4.66,2.77,6.84,1.89,3.59,3.9,7.83,5.98,10.29l.2.21c1.42-.07,3.54.28,6.54,1.78,0,0,8.25.99,8.67,1.17.3.13.23,1.2-.7,1.8.41-.16.7-.09.7-.09,0,0,.73,5.67.28,6.66-.45.99-2.2,3.2-2.2,3.2,0,0,7.24-1.25,7.62.91,0,0-2.11,1.03-5.59,1.25,0,0,2.64.45,2.54,1.85,0,0-3.3.85-8.97-.06-5.67-.91-11.55-4.37-15.54-12.01l-1.82-3.67s-5.66-9.19-9.78-12.73-14.62-11.67-15.32-18.51c-.71-6.84-2.12-6.84-3.54-10.73-1.41-3.89-7.66-15.56-7.66-15.56,0,0-.12,12.85-4.13,19.8,0,0-.12,6.6.59,11.43.71,4.83,1.53,5.78,1.53,9.78,0,2.31,4.99,5.61,11.55,8.75,8.08-1.32,8.91.58,9.48,1.47.6.93,6.7-.6,5.84,3.38-.11.5-.3.85-.58,1.09.28.09.55.19.83.28,12.14,4.01,23.11,13.08,18.04,24.17-5.07,11.08-28.76,3.65-28.76,3.65,0,0-10.85-2.95-17.33-3.54-4.15-.38-15.7-5.16-24.96-8.98-9.26,3.82-20.81,8.6-24.96,8.98-6.48.59-17.33,3.54-17.33,3.54,0,0-23.69,7.43-28.76-3.65-5.07-11.08,5.89-20.16,18.04-24.17.27-.09.55-.18.83-.28-.27-.25-.47-.6-.58-1.09-.86-3.98,5.24-2.45,5.84-3.38.57-.89,1.4-2.79,9.48-1.47,6.55-3.14,11.55-6.44,11.55-8.75,0-4.01.83-4.95,1.53-9.78.71-4.83.59-11.43.59-11.43-4.01-6.96-4.13-19.8-4.13-19.8,0,0-6.25,11.67-7.66,15.56-1.41,3.89-2.83,3.89-3.54,10.73-.71,6.84-11.2,14.97-15.32,18.51s-9.78,12.73-9.78,12.73l-1.82,3.67c-4,7.64-9.87,11.1-15.54,12.01s-8.97.06-8.97.06c-.1-1.4,2.54-1.85,2.54-1.85Zm166.96-9.18c.17.52,4.91.01,5.08,1.92.18,1.9-.13,3.04-.13,3.04,0,0,1.51-1.06,1.68-2.52s-.03-3.7.78-4.58c.18-.2.36-.34.53-.44-.32.15-.71.25-1.21.26-2.36.02-5.09-1.01-5.65-.27-.56.74-1.26,2.07-1.08,2.59Zm-162.86,4.96s-.3-1.14-.13-3.04c.18-1.9,4.91-1.39,5.08-1.92.17-.52-.52-1.85-1.08-2.59-.56-.74-3.29.29-5.65.27-.5,0-.88-.11-1.21-.26.17.1.34.24.53.44.81.88.61,3.12.78,4.58.17,1.46,1.68,2.52,1.68,2.52Z"/>
      <path class="cls-2" d="m38.98,171.33c-.22,0-.41-.15-.46-.38-.05-.25.12-.5.37-.55.05-.02,1.86-.56,8.79-6.98,3.27-3.04,9.3-4.92,18.43-5.76.26-.02.48.17.51.42.02.26-.17.48-.42.51-8.92.82-14.77,2.62-17.89,5.51-7.19,6.66-9.06,7.18-9.25,7.21-.03,0-.06,0-.09,0Z"/>
      <path class="cls-2" d="m122.7,158.57c-.19,0-.36-.11-.44-.3-.09-.24.03-.51.27-.6,2.62-1,5-2.08,7.08-3.19,5.62-3.01,10.15-2.73,13.14-2.55,2.69.16,3.58.11,3.87-1.18.14-.65.08-1.13-.18-1.48-.58-.77-2.13-.86-3.37-.94-1.1-.07-1.9-.12-2.22-.61l-.08-.12c-.51-.82-1.58-2.53-10.12-.93-9.28,1.74-15.25-1.5-15.5-1.64-.27-.15-6.72-3.62-11.13,2.71-2.21,3.18-5.41,5.71-9.51,7.52-.24.1-.51,0-.61-.24-.1-.24,0-.51.24-.61,3.94-1.74,7-4.16,9.12-7.2,4.89-7.03,12.27-3.03,12.35-2.99.06.03,5.94,3.21,14.87,1.54,9.17-1.72,10.42.28,11.09,1.36l.07.11c.14.1.92.15,1.49.19,1.43.09,3.21.19,4.06,1.31.43.57.55,1.32.35,2.24-.47,2.19-2.4,2.07-4.83,1.92-2.89-.18-7.26-.45-12.64,2.44-2.11,1.13-4.53,2.22-7.18,3.24-.06.02-.11.03-.17.03Z"/>
      <path class="cls-2" d="m36.66,182.96c-5.81,0-11.55-1.42-13.83-6.39-1.68-3.67-1.75-7.31-.21-10.83,2.51-5.75,9.43-10.97,18.53-13.97l.82-.27c.24-.08.51.05.59.29.08.24-.05.51-.29.59l-.83.28c-8.85,2.92-15.56,7.95-17.96,13.46-1.43,3.27-1.36,6.66.21,10.07,4.84,10.58,27.97,3.48,28.2,3.4.13-.03,10.98-2.97,17.43-3.56,4.05-.37,15.46-5.08,24.63-8.86l.28.39.18.43c-9.33,3.85-20.81,8.59-25,8.97-6.37.58-17.14,3.49-17.25,3.52-.54.17-8.06,2.48-15.48,2.48Z"/>
      <path class="cls-2" d="m180.94,170.32c-1.39,0-3.11-.11-5.12-.43-4.72-.76-11.3-3.5-15.88-12.25l-1.82-3.68c-.04-.05-5.65-9.14-9.67-12.58-.4-.34-.86-.73-1.37-1.16-4.7-3.95-13.46-11.3-14.12-17.66-.47-4.54-1.24-5.98-2.14-7.64-.45-.83-.91-1.69-1.37-2.97-1.08-2.97-5.07-10.65-6.82-13.95-.18,3.76-.94,12.64-4.07,18.17-.01.91-.06,6.85.59,11.24.28,1.9.57,3.19.83,4.32.39,1.71.7,3.06.7,5.53,0,1.85,4.07,4.86,11.17,8.28.23.11.33.39.22.62-.11.23-.39.33-.62.22-5.34-2.57-11.7-6.23-11.7-9.12,0-2.36-.29-3.6-.68-5.32-.27-1.15-.56-2.45-.85-4.4-.7-4.82-.59-11.44-.59-11.51,0-.08.02-.16.06-.22,3.9-6.77,4.06-19.45,4.06-19.58,0-.21.15-.4.36-.45.21-.05.42.05.52.23.26.48,6.28,11.74,7.69,15.62.45,1.22.89,2.05,1.32,2.85.9,1.68,1.75,3.27,2.24,7.99.62,5.98,9.19,13.18,13.79,17.04.51.43.97.82,1.38,1.16,4.13,3.54,9.65,12.46,9.88,12.84l1.84,3.71c4.4,8.4,10.69,11.03,15.2,11.76,4.34.7,7.29.34,8.35.16-.32-.55-1.46-.92-2.07-1.02-.23-.04-.4-.25-.39-.48.01-.24.2-.43.44-.44,2.45-.16,4.21-.72,4.98-1.02-.86-.81-4.45-.64-6.9-.21-.19.03-.38-.06-.48-.22-.1-.17-.08-.38.03-.53.02-.02,1.71-2.18,2.14-3.11.24-.51.05-3.36-.27-5.98,0,0,0,0-.01,0-.14.09-.29.17-.45.24-.1.07-.2.17-.31.28-.47.51-.52,1.8-.57,2.94-.02.49-.04.97-.09,1.38-.2,1.65-1.8,2.8-1.87,2.85-.16.11-.37.11-.53,0s-.24-.31-.19-.5c0-.01.28-1.1.11-2.88-.08-.87-2.07-1.07-3.25-1.18-1.1-.11-1.65-.16-1.81-.63-.33-1.01,1.14-3,1.15-3.02.5-.66,1.62-.48,3.17-.22.9.15,1.94.32,2.85.31.36,0,.65-.06.89-.14.17-.11.33-.19.48-.25.14-.11.25-.23.33-.34.18-.26.22-.5.22-.63-.87-.18-5.52-.76-8.42-1.11-.05,0-.11-.02-.15-.05-2.47-1.24-4.61-1.82-6.31-1.74-.15.03-.27-.05-.36-.14l-.2-.21c-1.76-2.09-3.43-5.33-5.05-8.46-.34-.66-.67-1.31-1.01-1.94-1.12-2.12-2.06-4.45-2.8-6.92-3.36-11.22-8.45-17.02-11.49-20.49-1.14-1.3-2.04-2.32-2.53-3.24-1.91-3.57-6.12-14.16-6.12-17.09,0-.45.03-.85.06-1.26.14-2.05.3-4.38-3.44-15.78-3.15-9.57-8.62-10.02-14.96-10.55-2.4-.2-4.88-.4-7.29-1.15-7.93-2.47-7.69-9.85-7.55-11.36l-9.86-8.05-10.08,8.05c.14,1.52.37,8.89-7.56,11.36-2.41.75-4.89.95-7.29,1.15-6.34.52-11.81.98-14.96,10.55-3.75,11.4-3.59,13.72-3.44,15.78.03.41.06.81.06,1.26,0,2.93-4.21,13.52-6.12,17.09-.49.92-1.39,1.95-2.53,3.24-3.04,3.47-8.13,9.27-11.49,20.49-.74,2.47-1.68,4.8-2.8,6.92-.33.63-.66,1.28-1,1.93-1.62,3.13-3.29,6.37-5.03,8.45l-.21.23c-.09.1-.2.17-.36.14-1.71-.08-3.84.5-6.31,1.74-.05.02-.1.04-.15.05-2.88.34-7.48.92-8.42,1.11,0,.13.05.37.22.62.08.11.18.23.32.34.15.06.31.14.48.25.24.08.53.14.89.14.93,0,1.95-.16,2.85-.31,1.55-.26,2.67-.44,3.17.22.02.02,1.49,2.01,1.15,3.02-.15.47-.71.52-1.81.63-1.19.12-3.17.31-3.25,1.18-.16,1.78.11,2.87.11,2.88.05.19-.02.39-.19.5s-.37.11-.53,0c-.07-.05-1.68-1.2-1.87-2.85-.05-.41-.07-.89-.09-1.38-.05-1.14-.1-2.43-.57-2.94-.11-.12-.21-.21-.31-.28-.17-.07-.32-.15-.45-.24,0,0-.01,0-.02,0-.32,2.61-.5,5.46-.27,5.98.43.93,2.12,3.08,2.14,3.11.12.15.13.36.03.53-.1.17-.29.25-.48.22-2.46-.43-6.04-.6-6.9.21.77.3,2.53.86,4.98,1.02.24.02.42.2.44.44.01.24-.15.44-.39.48-.61.1-1.75.47-2.07,1.02,1.06.18,4,.54,8.35-.16,4.51-.73,10.8-3.35,15.2-11.76l1.82-3.67c.25-.42,5.77-9.34,9.9-12.88.4-.35.87-.74,1.38-1.17,4.6-3.86,13.17-11.06,13.79-17.04.49-4.72,1.34-6.31,2.24-7.99.43-.8.87-1.63,1.32-2.85,1.41-3.88,7.43-15.14,7.69-15.62.1-.19.31-.28.52-.23.21.05.35.24.36.45,0,.13.16,12.81,4.06,19.58.04.07.06.15.06.22,0,.07.11,6.7-.59,11.51-.28,1.94-.58,3.25-.85,4.4-.39,1.72-.68,2.96-.68,5.32,0,2.89-6.4,6.58-11.77,9.15-.23.11-.51.02-.62-.22-.11-.23-.01-.51.22-.62,7.04-3.38,11.24-6.49,11.24-8.31,0-2.46.31-3.82.7-5.53.26-1.13.55-2.42.83-4.32.64-4.39.6-10.33.59-11.24-3.13-5.52-3.89-14.4-4.07-18.17-1.74,3.3-5.74,10.98-6.82,13.95-.47,1.29-.93,2.15-1.37,2.98-.89,1.67-1.67,3.1-2.14,7.64-.66,6.36-9.41,13.71-14.11,17.65-.51.43-.97.81-1.37,1.16-4.02,3.45-9.63,12.53-9.69,12.62l-1.8,3.64c-4.58,8.76-11.17,11.5-15.89,12.26-5.71.92-9.02.09-9.16.05-.19-.05-.33-.22-.35-.42-.05-.75.41-1.28.98-1.64-2.34-.38-3.71-1.04-3.78-1.07-.19-.09-.29-.3-.26-.5.36-2.04,4.73-1.76,7.01-1.46-.55-.74-1.27-1.76-1.55-2.37-.49-1.06.12-5.94.24-6.91.01-.1.06-.19.12-.26-.12-.21-.2-.43-.25-.65-.12-.56.04-1.02.4-1.18.41-.18,5.6-.82,8.72-1.2,2.48-1.24,4.65-1.85,6.48-1.8l.05-.05c1.66-1.97,3.3-5.16,4.9-8.25.34-.66.67-1.31,1.01-1.94,1.09-2.07,2.01-4.35,2.73-6.76,3.42-11.41,8.59-17.31,11.68-20.83,1.1-1.25,1.97-2.24,2.41-3.07,1.84-3.43,6.01-14,6.01-16.65,0-.43-.03-.81-.05-1.2-.15-2.14-.32-4.56,3.49-16.13,3.34-10.16,9.38-10.66,15.77-11.19,2.35-.19,4.78-.4,7.09-1.11,8.05-2.51,6.93-10.27,6.88-10.6-.03-.16.04-.33.17-.44l10.57-8.45c.17-.14.42-.14.59,0l10.35,8.45c.13.1.19.27.17.43-.05.33-1.15,8.1,6.88,10.6,2.31.72,4.74.92,7.09,1.11,6.39.53,12.43,1.03,15.77,11.19,3.8,11.57,3.64,13.99,3.49,16.13-.03.39-.05.77-.05,1.2,0,2.65,4.17,13.21,6.01,16.65.44.83,1.31,1.82,2.41,3.07,3.09,3.52,8.26,9.42,11.69,20.83.72,2.41,1.64,4.69,2.73,6.76.33.63.67,1.29,1.01,1.94,1.59,3.08,3.24,6.27,4.91,8.26l.03.03c1.81-.04,4,.57,6.49,1.8,3.12.37,8.31,1.01,8.72,1.2.36.16.52.62.4,1.18-.04.21-.13.43-.25.65.06.07.11.16.12.26.13.97.73,5.85.24,6.91-.28.61-1,1.63-1.55,2.37,2.28-.3,6.66-.58,7.01,1.46.04.2-.07.41-.26.5-.07.03-1.44.69-3.78,1.07.57.36,1.04.89.98,1.64-.01.2-.15.37-.35.42-.09.02-1.51.38-4.04.38Zm-7.23-12.14c.23.05.65.09,1.01.13,1.57.15,3.94.39,4.09,2.03.07.71.07,1.32.04,1.81.28-.36.52-.81.58-1.3.05-.39.06-.84.08-1.31.04-1.06.09-2.14.44-2.93-.98-.03-2.04-.17-2.96-.32-.78-.13-2.09-.35-2.27-.14-.56.75-.96,1.65-1.01,2.03Zm-165.04-1.58c.35.79.39,1.87.44,2.93.02.46.04.92.08,1.31.06.49.31.94.58,1.3-.03-.49-.02-1.1.04-1.81.15-1.64,2.52-1.87,4.09-2.03.36-.04.79-.08,1.01-.13-.05-.38-.45-1.29-1.01-2.03-.18-.21-1.49.01-2.27.14-.92.15-2.01.36-2.96.32Z"/>
      <path class="cls-2" d="m151.96,182.96c-7.42,0-14.95-2.31-15.5-2.49-.09-.02-10.86-2.94-17.23-3.52-4.19-.38-15.67-5.12-24.89-8.92-5.27-2.18-9.82-4.05-11.86-4.65l-.6-.19c-.08-.01-13.35-2.56-23.31-7.9-5.38-2.89-9.75-2.62-12.64-2.44-2.43.15-4.36.27-4.83-1.92-.2-.92-.08-1.67.35-2.24.84-1.11,2.62-1.22,4.06-1.31.57-.04,1.35-.08,1.51-.21l.05-.08c.67-1.07,1.92-3.08,11.09-1.36,8.95,1.67,14.81-1.51,14.87-1.54.07-.04,7.46-4.04,12.35,2.99,4.71,6.76,13.66,9.5,20.46,9.81,1.08.05,2.44.07,4.01.1,9.26.16,24.76.44,31.1,6.32,6.93,6.42,8.73,6.96,8.81,6.98.24.06.4.31.34.56-.06.24-.28.41-.53.36-.19-.04-2.06-.55-9.25-7.21-6.08-5.64-21.36-5.91-30.49-6.07-1.57-.03-2.95-.05-4.03-.1-7.03-.32-16.28-3.17-21.18-10.21-4.4-6.33-10.86-2.86-11.13-2.71-.25.14-6.22,3.38-15.5,1.64-8.54-1.6-9.61.11-10.12.93l-.08.12c-.32.5-1.12.54-2.22.61-1.24.08-2.78.17-3.37.94-.26.35-.32.83-.18,1.48.28,1.29,1.18,1.35,3.87,1.18,3-.18,7.53-.46,13.14,2.55,9.83,5.27,22.97,7.79,23.1,7.82l.64.2c2.07.6,6.65,2.49,11.94,4.68,9.16,3.78,20.57,8.49,24.62,8.86,6.45.59,17.3,3.52,17.41,3.55.25.08,23.38,7.18,28.22-3.4,1.56-3.42,1.63-6.8.21-10.07-2.4-5.51-9.12-10.54-17.96-13.46l-.86-.29c-.24-.08-.38-.35-.29-.59.08-.24.35-.38.59-.29l.86.29c9.09,3,16.02,8.22,18.53,13.97,1.54,3.52,1.47,7.17-.21,10.83-2.28,4.97-8.02,6.39-13.83,6.39Z"/>
    </g>
    <path class="cls-1" d="m77.1,33.06c.45-.33,1.08-.51,1.63-.45-.04-.46-.06-.92-.08-1.37-.03-.69-.03-1.38,0-2.07.02-.63.06-1.27.13-1.9.06-.58.15-1.16.26-1.74.1-.53.23-1.06.38-1.58.14-.48.3-.96.48-1.43.17-.44.36-.87.57-1.29.2-.4.42-.78.66-1.16.23-.35.47-.7.73-1.03.25-.32.51-.62.79-.91.27-.28.55-.54.84-.8,1.57-1.36,3.49-2.3,5.49-2.84.99-.27,2-.44,3.02-.54,2.56-.25,5.22-.15,7.71.54.29.08.59.17.87.27.3.1.6.21.89.33.3.12.61.26.9.4.31.15.61.31.9.48.3.18.6.37.89.57.3.21.58.43.86.66.29.24.56.5.83.76.27.28.54.57.78.87.26.32.5.64.73.98.24.36.46.73.66,1.1.21.4.41.81.58,1.23.19.45.35.9.5,1.37.16.5.29,1,.4,1.51.12.55.22,1.1.29,1.65.08.6.14,1.2.17,1.81.04.66.05,1.31.04,1.97,0,.71-.04,1.43-.1,2.14.55-.07,1.19.12,1.63.45.45.33.75.86.78,1.42.02.28-.03.56-.09.83-.21.96-.57,1.88-1.07,2.72-.21.35-.44.69-.59,1.06-.48,1.17-.13,2.5-.16,3.76-.01.53-.11,1.1-.49,1.46-.45.43-1.15.45-1.78.43-.75,3.36-2.19,6.64-4.51,9.19-2.24,2.46-5.32,4.23-8.63,4.6-.23.03-.46.03-.69.03h0c-.23,0-.46,0-.69-.03-3.31-.37-6.39-2.14-8.63-4.6-2.32-2.55-3.76-5.83-4.51-9.19-.63.01-1.33,0-1.78-.43-.38-.36-.48-.93-.49-1.46-.03-1.27.32-2.59-.16-3.76-.15-.38-.38-.71-.59-1.06-.5-.84-.86-1.77-1.07-2.72-.06-.27-.11-.55-.09-.83.03-.56.34-1.08.78-1.42Z"/>
    <path class="cls-2" d="m94.47,13.83c1.76,0,3.53.19,5.22.66.29.08.59.17.87.27.3.1.6.21.89.33.3.12.61.26.9.4.31.15.61.31.9.48.3.18.6.37.89.57.3.21.58.43.86.66.29.24.56.5.83.76.27.28.54.57.78.87.26.32.5.64.73.98.24.36.46.73.66,1.1.21.4.41.81.58,1.23.19.45.35.9.5,1.37.16.5.29,1,.4,1.51.12.55.22,1.1.29,1.65.08.6.14,1.2.17,1.81.04.66.05,1.31.04,1.97,0,.71-.04,1.43-.1,2.14.08,0,.15-.01.23-.01.49,0,1.02.17,1.4.46.45.33.75.86.78,1.42.02.28-.03.56-.09.83-.21.96-.57,1.88-1.07,2.72-.21.35-.44.69-.59,1.06-.48,1.17-.13,2.5-.16,3.76-.01.53-.11,1.1-.49,1.46-.39.37-.96.43-1.51.43-.09,0-.18,0-.26,0-.75,3.36-2.19,6.64-4.51,9.19-2.24,2.46-5.32,4.23-8.63,4.6-.23.03-.46.03-.69.03s-.46,0-.69-.03c-3.31-.37-6.39-2.14-8.63-4.6-2.32-2.55-3.76-5.83-4.51-9.19-.09,0-.18,0-.26,0-.55,0-1.12-.06-1.51-.43-.38-.36-.48-.93-.49-1.46-.03-1.27.32-2.59-.16-3.76-.15-.38-.38-.71-.59-1.06-.5-.84-.86-1.77-1.07-2.72-.06-.27-.11-.55-.09-.83.03-.56.34-1.08.78-1.42.38-.29.91-.46,1.4-.46.08,0,.15,0,.23.01-.04-.46-.06-.92-.08-1.37-.03-.69-.03-1.38,0-2.07.02-.63.06-1.27.13-1.9.06-.58.15-1.16.26-1.74.1-.53.23-1.06.38-1.58.14-.48.3-.96.48-1.43.17-.44.36-.87.57-1.29.2-.4.42-.78.66-1.16.23-.35.47-.7.73-1.03.25-.32.51-.62.79-.91.27-.28.55-.54.84-.8,1.57-1.36,3.49-2.3,5.49-2.84.99-.27,2-.44,3.02-.54.82-.08,1.65-.12,2.49-.12m0-.93c-.83,0-1.7.04-2.57.13-1.11.11-2.18.3-3.17.56-2.24.6-4.26,1.65-5.86,3.04-.31.27-.61.56-.9.86-.3.31-.58.64-.85.98-.28.35-.54.72-.78,1.1-.25.39-.49.81-.7,1.24-.22.44-.43.9-.61,1.37-.19.49-.36,1-.51,1.51-.15.53-.28,1.09-.39,1.66-.11.58-.2,1.19-.27,1.81-.07.64-.11,1.3-.14,1.97-.02.69-.02,1.41,0,2.14,0,.16.01.32.02.48-.44.1-.85.3-1.2.56-.67.5-1.1,1.29-1.15,2.11-.02.4.04.78.11,1.09.23,1.06.63,2.06,1.17,3l.16.26c.15.24.28.47.37.68.25.61.2,1.36.14,2.16-.03.43-.06.85-.05,1.27.02.94.27,1.63.78,2.12.5.48,1.12.63,1.68.68.89,3.52,2.46,6.59,4.56,8.9,2.49,2.74,5.85,4.52,9.21,4.9.26.03.53.04.79.04s.53,0,.79-.04c3.37-.38,6.72-2.17,9.21-4.9,2.1-2.31,3.67-5.38,4.56-8.9.57-.05,1.19-.2,1.68-.68.5-.48.76-1.17.78-2.12,0-.42-.02-.85-.05-1.27-.05-.8-.11-1.55.14-2.16.09-.22.23-.44.37-.68l.16-.26c.55-.93.94-1.94,1.17-3,.07-.31.13-.69.11-1.09-.05-.82-.48-1.6-1.15-2.11-.35-.26-.77-.45-1.2-.56.02-.43.04-.86.04-1.27,0-.7,0-1.38-.04-2.04-.04-.64-.1-1.28-.18-1.88-.08-.59-.18-1.17-.3-1.73-.12-.54-.26-1.08-.42-1.59-.16-.49-.33-.98-.53-1.45-.19-.45-.4-.89-.62-1.31-.22-.41-.46-.8-.71-1.18-.24-.37-.51-.72-.78-1.06-.27-.32-.55-.64-.84-.93-.28-.29-.58-.56-.89-.82-.3-.25-.61-.49-.93-.71-.31-.22-.62-.42-.95-.61-.31-.18-.63-.36-.96-.52-.31-.15-.63-.3-.96-.43-.31-.13-.63-.24-.95-.35-.31-.1-.61-.2-.92-.28-1.67-.46-3.51-.69-5.47-.69h0Z"/>
  </g>
  <circle class="cls-2" cx="94.78" cy="86.71" r="6.55"/>
</svg>