<?xml version="1.0" encoding="UTF-8"?>
<svg id="Layer_1" data-name="Layer 1" xmlns="http://www.w3.org/2000/svg" viewBox="0 0 188.62 182.96">
  <defs>
    <style>
      .cls-1 {
        fill: #000150;
      }

      .cls-1, .cls-2 {
        stroke-width: 0px;
      }

      .cls-2 {
        fill: #fff;
      }
    </style>
  </defs>
  <g>
    <g>
      <path class="cls-1" d="m6.01,167.59c-3.5-.22-5.61-1.25-5.61-1.25.38-2.17,7.65-.91,7.65-.91,0,0-1.75-2.22-2.2-3.21-.46-.99.28-6.68.28-6.68,0,0,.28-.07.7.09-.93-.61-1-1.68-.7-1.81.42-.18,8.7-1.17,8.7-1.17,3.01-1.51,5.14-1.86,6.56-1.79l.2-.21c2.08-2.47,4.1-6.72,6-10.33,1.15-2.19,2.06-4.49,2.77-6.86,4.62-15.42,12.32-20.56,14.11-23.9,1.9-3.55,6.08-14.13,6.08-16.92s-1.08-3.55,3.42-17.24c4.5-13.69,14.07-9.38,22.63-12.04,8.56-2.66,7.23-11.15,7.23-11.15l10.61-8.48,10.38,8.48s-1.33,8.49,7.23,11.15c8.56,2.66,18.13-1.65,22.63,12.04,4.5,13.69,3.42,14.45,3.42,17.24s4.18,13.37,6.08,16.92c1.79,3.33,9.49,8.48,14.11,23.9.71,2.37,1.62,4.67,2.77,6.86,1.9,3.61,3.92,7.85,6,10.33l.2.21c1.43-.07,3.55.28,6.56,1.79,0,0,8.28.99,8.7,1.17.3.13.23,1.2-.7,1.81.41-.16.7-.09.7-.09,0,0,.74,5.69.28,6.68-.46.99-2.2,3.21-2.2,3.21,0,0,7.27-1.26,7.65.91,0,0-2.11,1.03-5.61,1.25,0,0,2.64.45,2.54,1.86,0,0-3.31.85-9-.06-5.69-.92-11.58-4.39-15.59-12.05l-1.83-3.69s-5.68-9.23-9.82-12.77c-4.14-3.55-14.67-11.71-15.38-18.57-.71-6.86-2.13-6.86-3.55-10.76-1.42-3.9-7.69-15.61-7.69-15.61,0,0-.12,12.89-4.14,19.87,0,0-.12,6.62.59,11.47.71,4.85,1.54,5.8,1.54,9.82,0,2.32,5.01,5.63,11.58,8.78,8.11-1.33,8.94.58,9.51,1.47.6.93,6.72-.6,5.85,3.39-.11.5-.3.85-.58,1.1.28.09.56.19.83.28,12.18,4.02,23.18,13.13,18.1,24.25-5.09,11.12-28.86,3.67-28.86,3.67,0,0-10.88-2.96-17.39-3.55-4.17-.38-15.75-5.17-25.04-9.01-9.29,3.83-20.87,8.63-25.04,9.01-6.5.59-17.39,3.55-17.39,3.55,0,0-23.77,7.45-28.86-3.67-5.09-11.12,5.91-20.22,18.1-24.25.28-.09.55-.18.83-.28-.28-.25-.47-.6-.58-1.1-.86-3.99,5.26-2.46,5.85-3.39.57-.89,1.4-2.8,9.51-1.47,6.58-3.15,11.58-6.46,11.58-8.78,0-4.02.83-4.97,1.54-9.82s.59-11.47.59-11.47c-4.02-6.98-4.14-19.87-4.14-19.87,0,0-6.27,11.71-7.69,15.61-1.42,3.9-2.84,3.9-3.55,10.76-.71,6.86-11.24,15.02-15.38,18.57-4.14,3.55-9.82,12.77-9.82,12.77l-1.83,3.69c-4.01,7.66-9.9,11.13-15.59,12.05-5.69.92-9,.06-9,.06-.1-1.4,2.54-1.86,2.54-1.86Zm167.51-9.21c.17.53,4.92.01,5.1,1.92.18,1.91-.13,3.05-.13,3.05,0,0,1.51-1.07,1.69-2.53s-.03-3.71.78-4.59c.18-.2.36-.34.53-.44-.33.15-.71.25-1.21.26-2.36.02-5.11-1.01-5.67-.27-.56.74-1.26,2.08-1.09,2.6Zm-163.4,4.98s-.31-1.14-.13-3.05c.18-1.91,4.93-1.4,5.1-1.92.17-.53-.53-1.86-1.09-2.6-.56-.74-3.3.29-5.67.27-.5,0-.89-.11-1.21-.26.17.1.34.24.53.44.81.88.61,3.13.78,4.59.17,1.46,1.69,2.53,1.69,2.53Z"/>
      <path class="cls-2" d="m38.8,171.29c-.22,0-.42-.16-.46-.38-.05-.25.12-.5.37-.55.06-.02,1.87-.56,8.82-7,3.28-3.05,9.33-4.94,18.49-5.78.25-.02.49.17.51.42.02.26-.17.49-.42.51-8.95.82-14.82,2.63-17.94,5.53-7.21,6.68-9.09,7.2-9.28,7.24-.03,0-.06,0-.09,0Z"/>
      <path class="cls-2" d="m122.8,158.49c-.19,0-.37-.11-.44-.3-.09-.24.03-.51.27-.61,2.63-1.01,5.01-2.09,7.1-3.21,5.63-3.02,10.18-2.74,13.18-2.56,2.7.17,3.6.11,3.88-1.19.14-.65.08-1.13-.18-1.48-.59-.77-2.14-.87-3.38-.94-1.11-.07-1.91-.12-2.23-.61l-.08-.12c-.52-.82-1.59-2.54-10.16-.94-9.31,1.74-15.3-1.51-15.55-1.65-.27-.15-6.75-3.63-11.16,2.72-2.22,3.19-5.43,5.73-9.54,7.55-.23.1-.51,0-.62-.24-.11-.24,0-.51.24-.62,3.95-1.75,7.03-4.18,9.15-7.23,4.91-7.05,12.31-3.04,12.39-3,.06.03,5.97,3.22,14.92,1.55,9.19-1.72,10.45.28,11.12,1.36l.07.11c.14.1.92.15,1.5.19,1.44.09,3.22.2,4.07,1.31.43.57.55,1.33.35,2.25-.47,2.19-2.4,2.08-4.85,1.92-2.9-.17-7.28-.45-12.68,2.45-2.12,1.14-4.54,2.23-7.21,3.26-.06.02-.11.03-.17.03Z"/>
      <path class="cls-2" d="m36.47,182.96c-5.83,0-11.59-1.42-13.87-6.41-1.68-3.68-1.75-7.34-.21-10.87,2.52-5.76,9.46-11,18.59-14.01l.82-.28c.25-.08.51.05.59.29.08.24-.05.51-.29.59l-.83.28c-8.88,2.93-15.61,7.98-18.02,13.5-1.43,3.28-1.36,6.68.21,10.11,4.86,10.62,28.06,3.49,28.29,3.41.13-.03,11.01-2.98,17.48-3.57,4.06-.37,15.5-5.09,24.69-8.88l.12-.05c.24-.1.51.02.61.25.1.24-.01.51-.25.61l-.12.05c-9.25,3.82-20.76,8.57-24.97,8.95-6.39.58-17.2,3.5-17.31,3.53-.54.17-8.09,2.49-15.53,2.49Z"/>
      <path class="cls-2" d="m181.22,170.27c-1.39,0-3.11-.11-5.14-.43-4.73-.76-11.34-3.51-15.93-12.29l-1.83-3.7c-.04-.05-5.66-9.17-9.7-12.62-.4-.35-.87-.73-1.38-1.16-4.72-3.96-13.5-11.34-14.16-17.71-.47-4.55-1.25-6-2.14-7.67-.45-.83-.91-1.69-1.38-2.98-1.08-2.98-5.09-10.69-6.84-14-.18,3.78-.95,12.69-4.08,18.23-.01.91-.06,6.88.59,11.28.28,1.91.58,3.2.84,4.34.39,1.72.71,3.07.71,5.54,0,1.85,4.08,4.88,11.2,8.31.23.11.33.39.22.62-.11.23-.39.33-.62.22-5.35-2.58-11.73-6.25-11.73-9.15,0-2.37-.29-3.61-.68-5.34-.27-1.15-.57-2.46-.85-4.41-.71-4.83-.6-11.48-.6-11.55,0-.08.02-.16.06-.23,3.92-6.79,4.08-19.51,4.08-19.64,0-.21.15-.4.36-.45.21-.05.42.04.52.23.26.48,6.3,11.78,7.72,15.67.45,1.23.89,2.06,1.32,2.86.9,1.69,1.76,3.28,2.25,8.01.62,6,9.21,13.22,13.83,17.09.51.43.98.82,1.38,1.17,4.15,3.56,9.68,12.5,9.91,12.88l1.85,3.72c4.41,8.43,10.73,11.07,15.25,11.79,4.36.7,7.32.34,8.38.16-.32-.55-1.46-.92-2.07-1.03-.23-.04-.4-.25-.39-.49.01-.24.2-.43.44-.44,2.46-.16,4.22-.73,5-1.02-.86-.81-4.46-.64-6.93-.21-.19.03-.38-.06-.48-.22-.1-.17-.08-.38.03-.53.02-.02,1.72-2.19,2.15-3.12.24-.52.05-3.38-.27-6,0,0,0,0-.01,0-.14.09-.29.17-.46.24-.1.07-.2.17-.31.28-.47.51-.53,1.8-.57,2.94-.02.49-.04.97-.09,1.39-.2,1.65-1.81,2.81-1.88,2.86-.16.12-.37.11-.54,0s-.24-.31-.19-.5c0-.01.28-1.1.11-2.89-.08-.87-2.07-1.07-3.26-1.19-1.1-.11-1.66-.16-1.81-.63-.33-1.02,1.14-3.01,1.16-3.03.5-.66,1.62-.48,3.18-.22.88.14,1.87.31,2.79.31h.07c.36,0,.65-.06.89-.14.17-.12.33-.2.48-.26.14-.11.25-.23.32-.34.18-.26.22-.5.22-.63-.88-.18-5.54-.76-8.45-1.11-.05,0-.11-.02-.15-.05-2.48-1.24-4.6-1.82-6.33-1.74-.14.03-.27-.05-.36-.14l-.2-.21c-1.77-2.1-3.45-5.35-5.07-8.49-.34-.66-.67-1.31-1.01-1.94-1.12-2.13-2.06-4.47-2.81-6.95-3.37-11.26-8.48-17.08-11.53-20.56-1.14-1.3-2.04-2.33-2.54-3.25-1.92-3.58-6.14-14.21-6.14-17.14,0-.45.03-.85.06-1.26.14-2.06.3-4.4-3.45-15.83-3.16-9.6-8.65-10.06-15.01-10.58-2.41-.2-4.89-.41-7.31-1.16-7.96-2.47-7.72-9.88-7.58-11.4l-9.89-8.08-10.11,8.08c.14,1.53.37,8.92-7.58,11.4-2.42.75-4.91.96-7.31,1.16-6.36.53-11.85.98-15.01,10.58-3.76,11.43-3.6,13.77-3.45,15.83.03.41.06.81.06,1.26,0,2.93-4.22,13.56-6.14,17.14-.5.93-1.4,1.95-2.54,3.25-3.05,3.48-8.16,9.3-11.53,20.56-.74,2.48-1.69,4.82-2.81,6.95-.33.63-.66,1.28-1,1.93-1.62,3.14-3.3,6.4-5.05,8.48l-.21.23c-.09.1-.21.17-.36.15-1.71-.08-3.85.5-6.33,1.74-.05.02-.1.04-.15.05-2.89.35-7.5.92-8.45,1.11,0,.13.05.37.22.62.08.11.18.23.32.34.15.06.31.14.48.25.24.08.53.14.89.14.91-.02,1.95-.16,2.85-.31,1.56-.26,2.68-.44,3.18.22.01.02,1.49,2.02,1.16,3.03-.16.47-.71.52-1.81.63-1.19.12-3.18.32-3.26,1.19-.17,1.79.11,2.88.12,2.89.05.19-.02.39-.19.5s-.37.11-.54,0c-.07-.05-1.68-1.21-1.88-2.86-.05-.42-.07-.9-.09-1.39-.05-1.14-.1-2.43-.57-2.94-.11-.12-.21-.21-.31-.28-.17-.07-.32-.15-.46-.24,0,0-.01,0-.02,0-.32,2.62-.5,5.48-.27,6,.43.93,2.13,3.09,2.15,3.12.12.15.13.36.03.53-.1.17-.3.25-.48.22-2.46-.43-6.06-.6-6.92.21.78.3,2.54.87,5,1.02.24.02.42.2.44.44.01.24-.15.45-.39.49-.61.11-1.76.47-2.07,1.03,1.06.18,4.01.54,8.38-.16,4.52-.73,10.84-3.37,15.25-11.8l1.82-3.68c.25-.42,5.78-9.37,9.93-12.92.4-.35.87-.74,1.38-1.17,4.62-3.88,13.21-11.09,13.83-17.1.49-4.74,1.34-6.33,2.25-8.01.43-.8.88-1.63,1.32-2.86,1.41-3.89,7.46-15.19,7.72-15.67.1-.19.31-.28.52-.23.21.05.35.24.36.45,0,.13.16,12.85,4.08,19.64.04.07.06.15.06.23,0,.07.11,6.72-.6,11.55-.29,1.95-.59,3.26-.85,4.41-.4,1.72-.68,2.97-.68,5.34,0,2.91-6.42,6.6-11.81,9.19-.23.11-.51.02-.63-.22-.11-.23-.01-.51.22-.63,7.06-3.39,11.28-6.51,11.28-8.34,0-2.47.31-3.83.71-5.55.26-1.14.56-2.43.84-4.34.64-4.4.6-10.36.59-11.28-3.14-5.54-3.9-14.45-4.08-18.23-1.75,3.31-5.75,11.02-6.84,14-.47,1.29-.93,2.15-1.38,2.98-.9,1.67-1.67,3.11-2.14,7.67-.66,6.38-9.44,13.75-14.16,17.72-.51.43-.97.82-1.37,1.16-4.04,3.46-9.67,12.57-9.72,12.66l-1.81,3.65c-4.6,8.79-11.2,11.54-15.94,12.3-5.72.92-9.05.09-9.19.05-.19-.05-.34-.22-.35-.42-.05-.76.41-1.28.99-1.65-2.35-.38-3.72-1.04-3.8-1.07-.19-.09-.29-.3-.26-.5.36-2.05,4.75-1.76,7.04-1.47-.55-.75-1.28-1.77-1.56-2.38-.49-1.06.12-5.96.24-6.93.01-.1.06-.19.12-.26-.12-.21-.21-.44-.25-.65-.12-.56.04-1.02.4-1.18.41-.18,5.62-.83,8.75-1.2,2.49-1.24,4.69-1.84,6.51-1.81l.05-.05c1.67-1.98,3.32-5.19,4.92-8.28.34-.66.67-1.31,1.01-1.94,1.09-2.08,2.01-4.36,2.74-6.78,3.43-11.45,8.62-17.37,11.72-20.9,1.1-1.26,1.97-2.25,2.42-3.08,1.85-3.45,6.03-14.05,6.03-16.7,0-.43-.03-.81-.05-1.2-.15-2.14-.32-4.58,3.5-16.19,3.35-10.19,9.41-10.69,15.82-11.22,2.36-.19,4.79-.4,7.11-1.12,8.06-2.51,6.95-10.3,6.9-10.64-.03-.17.04-.33.17-.44l10.61-8.48c.17-.14.42-.14.59,0l10.38,8.48c.13.11.19.27.17.44-.05.33-1.16,8.13,6.9,10.64,2.32.72,4.76.92,7.11,1.12,6.41.53,12.47,1.03,15.82,11.22,3.82,11.61,3.65,14.04,3.5,16.19-.03.39-.05.77-.05,1.2,0,2.66,4.18,13.26,6.03,16.7.45.83,1.32,1.82,2.42,3.08,3.1,3.53,8.29,9.45,11.72,20.9.73,2.42,1.65,4.7,2.74,6.78.33.63.67,1.28,1.01,1.94,1.6,3.1,3.25,6.3,4.93,8.3l.03.03c1.83-.03,4.01.57,6.51,1.81,3.13.37,8.33,1.02,8.75,1.2.36.16.52.62.4,1.18-.04.21-.13.43-.25.65.06.07.11.16.12.26.13.97.73,5.87.24,6.93-.28.61-1.01,1.64-1.56,2.38,2.29-.29,6.68-.58,7.04,1.47.04.21-.07.41-.26.5-.07.03-1.45.69-3.8,1.07.58.36,1.04.89.99,1.65-.01.2-.16.37-.35.42-.09.02-1.51.38-4.05.38Zm-7.25-12.18c.23.05.66.09,1.02.13,1.57.16,3.95.39,4.1,2.03.07.71.07,1.32.04,1.82.28-.36.52-.81.58-1.31.05-.39.07-.85.08-1.32.04-1.06.09-2.15.44-2.94-1.05-.01-2.05-.17-2.97-.32-.79-.13-2.1-.34-2.28-.14-.57.75-.96,1.66-1.02,2.04Zm-165.58-1.58c.35.79.39,1.88.44,2.94.02.47.04.92.08,1.32.06.49.31.94.58,1.31-.03-.49-.02-1.1.04-1.82.15-1.64,2.53-1.88,4.1-2.03.36-.04.79-.08,1.02-.13-.05-.38-.45-1.29-1.02-2.04-.18-.21-1.5,0-2.28.14-.92.15-2,.31-2.97.32Z"/>
      <path class="cls-2" d="m152.15,182.96c-7.44,0-15-2.32-15.55-2.49-.09-.02-10.9-2.95-17.29-3.53-4.21-.38-15.72-5.13-24.97-8.95-5.29-2.18-9.86-4.07-11.9-4.66l-.6-.19c-.08-.01-13.39-2.56-23.39-7.93-5.4-2.9-9.78-2.63-12.68-2.45-2.44.15-4.37.27-4.85-1.92-.2-.92-.08-1.67.35-2.25.85-1.12,2.63-1.23,4.07-1.31.57-.03,1.36-.08,1.52-.21l.05-.08c.67-1.08,1.93-3.08,11.12-1.36,8.95,1.67,14.86-1.51,14.92-1.55.07-.04,7.48-4.05,12.39,3,4.72,6.79,13.7,9.54,20.53,9.85,1.08.05,2.45.07,4.01.1,9.29.17,24.85.44,31.21,6.34,6.95,6.44,8.76,6.99,8.84,7.01.24.07.4.31.34.56-.06.24-.29.41-.54.36-.19-.04-2.07-.55-9.28-7.24-6.1-5.66-21.43-5.93-30.59-6.09-1.58-.03-2.95-.05-4.04-.1-7.05-.32-16.34-3.18-21.25-10.25-4.42-6.35-10.89-2.87-11.17-2.72-.25.14-6.25,3.39-15.55,1.65-8.57-1.6-9.64.11-10.16.94l-.07.12c-.32.5-1.12.55-2.23.61-1.25.08-2.79.17-3.38.94-.26.35-.32.84-.18,1.48.28,1.3,1.18,1.35,3.88,1.19,3.01-.19,7.55-.46,13.18,2.56,9.87,5.29,23.04,7.82,23.17,7.84l.65.2c2.08.61,6.67,2.5,11.99,4.7,9.19,3.79,20.63,8.52,24.7,8.89,6.47.59,17.36,3.53,17.47,3.56.25.08,23.45,7.21,28.31-3.41,1.57-3.43,1.64-6.83.21-10.11-2.41-5.52-9.15-10.57-18.02-13.5l-.86-.29c-.24-.08-.38-.35-.29-.59.08-.24.35-.38.59-.29l.86.29c9.12,3.01,16.07,8.25,18.59,14.01,1.54,3.53,1.47,7.19-.21,10.87-2.28,4.99-8.04,6.41-13.87,6.41Z"/>
    </g>
    <path class="cls-1" d="m77.04,32.56c.45-.34,1.08-.52,1.64-.45-.04-.46-.06-.92-.08-1.38-.03-.69-.03-1.39,0-2.08.02-.64.06-1.27.13-1.91.06-.58.15-1.17.26-1.74.1-.53.23-1.06.38-1.59.14-.49.3-.97.48-1.44.17-.44.36-.87.58-1.29.2-.4.42-.78.66-1.16.23-.36.47-.7.73-1.03.25-.32.51-.62.79-.91.27-.28.55-.55.84-.8,1.58-1.37,3.5-2.31,5.51-2.85.99-.27,2.01-.44,3.03-.54,2.57-.25,5.23-.15,7.73.54.29.08.59.17.88.27.3.1.6.21.9.33.31.12.61.26.9.41.31.15.61.31.9.48.3.18.6.37.89.57.3.21.59.43.86.66.29.24.57.5.83.76.28.28.54.57.78.87.26.32.5.65.73.99.24.36.46.73.66,1.11.22.4.41.81.59,1.23.19.45.35.91.5,1.37.16.5.29,1,.4,1.51.12.55.22,1.1.29,1.66.08.6.14,1.21.17,1.82.04.66.05,1.32.04,1.98,0,.72-.04,1.43-.1,2.15.55-.07,1.19.12,1.64.45.45.34.75.87.78,1.42.02.28-.03.56-.09.83-.21.96-.57,1.88-1.07,2.73-.21.35-.44.69-.59,1.07-.48,1.18-.13,2.51-.16,3.78-.01.53-.11,1.1-.49,1.47-.45.43-1.15.45-1.78.43-.75,3.38-2.2,6.67-4.52,9.22-2.25,2.47-5.34,4.25-8.65,4.62-.23.03-.46.03-.69.03h0c-.23,0-.46,0-.69-.03-3.32-.37-6.41-2.15-8.65-4.62-2.33-2.56-3.77-5.85-4.52-9.22-.63.01-1.33,0-1.78-.43-.38-.37-.48-.94-.49-1.47-.03-1.27.32-2.6-.16-3.78-.15-.38-.38-.72-.59-1.07-.5-.85-.86-1.77-1.07-2.73-.06-.27-.11-.55-.09-.83.03-.56.34-1.09.78-1.42Z"/>
    <path class="cls-2" d="m94.47,13.28c1.77,0,3.54.19,5.24.66.29.08.59.17.88.27.3.1.6.21.9.33.31.12.61.26.9.41.31.15.61.31.9.48.3.18.6.37.89.57.3.21.59.43.86.66.29.24.57.5.83.76.28.28.54.57.78.87.26.32.5.65.73.99.24.36.46.73.66,1.11.22.4.41.81.59,1.23.19.45.35.91.5,1.37.16.5.29,1,.4,1.51.12.55.22,1.1.29,1.66.08.6.14,1.21.17,1.82.04.66.05,1.32.04,1.98,0,.72-.04,1.43-.1,2.15.08,0,.15-.01.23-.01.49,0,1.02.17,1.41.46.45.34.75.87.78,1.42.02.28-.03.56-.09.83-.21.96-.57,1.88-1.07,2.73-.21.35-.44.69-.59,1.07-.48,1.18-.13,2.51-.16,3.78-.01.53-.11,1.1-.49,1.47-.39.37-.97.44-1.52.44-.09,0-.18,0-.26,0-.75,3.38-2.2,6.67-4.52,9.22-2.25,2.47-5.34,4.25-8.65,4.62-.23.03-.46.03-.69.03s-.46,0-.69-.03c-3.32-.37-6.41-2.15-8.65-4.62-2.33-2.56-3.77-5.85-4.52-9.22-.09,0-.18,0-.26,0-.55,0-1.13-.06-1.52-.44-.38-.37-.48-.94-.49-1.47-.03-1.27.32-2.6-.16-3.78-.15-.38-.38-.72-.59-1.07-.5-.85-.86-1.77-1.07-2.73-.06-.27-.11-.55-.09-.83.03-.56.34-1.09.78-1.42.39-.29.91-.46,1.41-.46.08,0,.15,0,.23.01-.04-.46-.06-.92-.08-1.38-.03-.69-.03-1.39,0-2.08.02-.64.06-1.27.13-1.91.06-.58.15-1.17.26-1.74.1-.53.23-1.06.38-1.59.14-.49.3-.97.48-1.44.17-.44.36-.87.58-1.29.2-.4.42-.78.66-1.16.23-.36.47-.7.73-1.03.25-.32.51-.62.79-.91.27-.28.55-.55.84-.8,1.58-1.37,3.5-2.31,5.51-2.85.99-.27,2.01-.44,3.03-.54.82-.08,1.66-.12,2.49-.12m0-.94c-.84,0-1.71.04-2.58.13-1.12.11-2.19.3-3.18.57-2.24.6-4.28,1.66-5.88,3.05-.31.27-.62.56-.9.86-.3.31-.58.64-.85.98-.27.35-.54.72-.78,1.11-.25.4-.49.81-.7,1.24-.22.44-.43.9-.61,1.38-.19.49-.36,1-.51,1.52-.15.54-.29,1.1-.4,1.67-.11.58-.2,1.2-.27,1.82-.07.64-.12,1.3-.14,1.98-.02.69-.02,1.41,0,2.14,0,.16.01.32.02.49-.44.1-.86.3-1.21.56-.67.5-1.11,1.3-1.16,2.11-.02.4.04.78.11,1.09.23,1.06.63,2.07,1.18,3.01l.16.26c.15.24.28.47.37.68.25.61.2,1.37.14,2.17-.03.43-.06.86-.05,1.28.02.94.27,1.64.78,2.12.5.48,1.12.63,1.69.68.89,3.54,2.46,6.61,4.57,8.93,2.5,2.75,5.87,4.54,9.24,4.92.26.03.53.04.8.04s.53,0,.8-.04c3.38-.38,6.74-2.17,9.24-4.92,2.11-2.32,3.68-5.4,4.57-8.93.57-.05,1.19-.2,1.69-.68.5-.48.76-1.18.78-2.12,0-.42-.02-.85-.05-1.28-.05-.8-.11-1.56.14-2.17.09-.22.23-.45.37-.69l.16-.26c.55-.93.95-1.95,1.18-3.01.07-.31.13-.69.11-1.09-.05-.82-.48-1.61-1.16-2.11-.35-.26-.77-.46-1.21-.56.02-.43.04-.86.04-1.28,0-.7,0-1.38-.04-2.04-.04-.65-.1-1.28-.18-1.89-.08-.59-.18-1.18-.31-1.74-.12-.55-.26-1.08-.42-1.59-.16-.5-.33-.99-.53-1.45-.19-.45-.4-.89-.62-1.32-.22-.41-.46-.81-.71-1.18-.24-.37-.51-.72-.78-1.06-.27-.33-.55-.64-.84-.94-.29-.29-.58-.56-.89-.82-.3-.25-.61-.49-.93-.71-.31-.22-.63-.42-.95-.61-.31-.18-.64-.36-.96-.52-.32-.16-.64-.3-.96-.43-.31-.13-.63-.25-.95-.35-.31-.1-.62-.2-.93-.28-1.68-.46-3.53-.69-5.49-.69h0Z"/>
  </g>
  <circle class="cls-2" cx="94.53" cy="108.1" r="6.57"/>
</svg>