<?xml version="1.0" encoding="UTF-8"?>
<svg id="Layer_1" data-name="Layer 1" xmlns="http://www.w3.org/2000/svg" viewBox="0 0 188.62 182.96">
  <defs>
    <style>
      .cls-1 {
        fill: #000150;
      }

      .cls-1, .cls-2 {
        stroke-width: 0px;
      }

      .cls-2 {
        fill: #fff;
      }
    </style>
  </defs>
  <g>
    <g>
      <path class="cls-1" d="m6.48,167.67c-3.48-.22-5.58-1.25-5.58-1.25.38-2.16,7.61-.91,7.61-.91,0,0-1.74-2.21-2.19-3.19-.45-.99.28-6.64.28-6.64,0,0,.28-.07.69.09-.92-.6-.99-1.67-.7-1.8.41-.18,8.65-1.17,8.65-1.17,2.99-1.5,5.11-1.85,6.53-1.78l.2-.21c2.07-2.46,4.08-6.68,5.96-10.27,1.15-2.18,2.05-4.47,2.76-6.83,4.6-15.34,12.26-20.45,14.03-23.77,1.89-3.53,6.05-14.06,6.05-16.83s-1.07-3.53,3.4-17.15c4.48-13.62,14-9.33,22.51-11.98,8.51-2.65,7.19-11.1,7.19-11.1l10.55-8.43,10.33,8.43s-1.32,8.45,7.19,11.1c8.51,2.65,18.03-1.64,22.51,11.98,4.48,13.62,3.4,14.37,3.4,17.15s4.16,13.3,6.05,16.83c1.78,3.32,9.44,8.43,14.03,23.77.71,2.36,1.61,4.65,2.76,6.83,1.89,3.59,3.89,7.81,5.97,10.27l.2.21c1.42-.07,3.53.28,6.53,1.78,0,0,8.24.98,8.65,1.17.3.13.23,1.2-.7,1.8.41-.16.7-.09.7-.09,0,0,.73,5.66.28,6.64-.45.99-2.19,3.19-2.19,3.19,0,0,7.23-1.25,7.61.91,0,0-2.1,1.02-5.58,1.25,0,0,2.63.45,2.53,1.85,0,0-3.29.85-8.95-.06-5.66-.91-11.52-4.36-15.51-11.98l-1.82-3.67s-5.65-9.18-9.76-12.71c-4.12-3.53-14.59-11.65-15.29-18.47-.71-6.82-2.12-6.82-3.53-10.71-1.41-3.88-7.65-15.53-7.65-15.53,0,0-.12,12.82-4.12,19.76,0,0-.12,6.59.59,11.41.71,4.82,1.53,5.76,1.53,9.76,0,2.31,4.98,5.6,11.52,8.74,8.06-1.32,8.89.58,9.46,1.46.6.93,6.68-.6,5.82,3.38-.11.49-.3.85-.57,1.09.28.09.55.19.83.28,12.12,4,23.06,13.06,18,24.12-5.06,11.06-28.71,3.65-28.71,3.65,0,0-10.82-2.94-17.29-3.53-4.14-.38-15.67-5.14-24.91-8.96-9.24,3.81-20.76,8.58-24.91,8.96-6.47.59-17.29,3.53-17.29,3.53,0,0-23.65,7.41-28.71-3.65-5.06-11.06,5.88-20.12,18-24.12.27-.09.55-.18.83-.28-.27-.25-.47-.6-.57-1.09-.86-3.97,5.23-2.45,5.82-3.38.57-.88,1.4-2.78,9.46-1.46,6.54-3.14,11.52-6.43,11.52-8.74,0-4,.82-4.94,1.53-9.76.71-4.82.59-11.41.59-11.41-4-6.94-4.12-19.76-4.12-19.76,0,0-6.24,11.65-7.65,15.53-1.41,3.88-2.82,3.88-3.53,10.71-.71,6.82-11.18,14.94-15.29,18.47-4.12,3.53-9.76,12.71-9.76,12.71l-1.82,3.67c-3.99,7.62-9.85,11.07-15.51,11.98-5.66.91-8.95.06-8.95.06-.1-1.4,2.53-1.85,2.53-1.85Zm166.62-9.16c.17.52,4.9.01,5.07,1.91.18,1.9-.13,3.04-.13,3.04,0,0,1.5-1.06,1.68-2.52s-.03-3.69.78-4.57c.18-.2.36-.33.52-.44-.32.15-.71.25-1.21.26-2.35.02-5.08-1.01-5.64-.27-.56.74-1.25,2.06-1.08,2.59Zm-162.53,4.95s-.3-1.14-.13-3.04c.18-1.9,4.9-1.39,5.07-1.91.17-.52-.52-1.85-1.08-2.59-.56-.74-3.29.29-5.64.27-.5,0-.88-.11-1.21-.26.17.1.34.24.52.44.81.88.61,3.11.78,4.57.17,1.46,1.68,2.52,1.68,2.52Z"/>
      <path class="cls-2" d="m39.09,171.35c-.22,0-.41-.15-.46-.38-.05-.25.12-.5.37-.55.06-.02,1.86-.56,8.77-6.97,3.27-3.03,9.29-4.91,18.4-5.74.25-.02.48.16.51.42s-.17.48-.42.51c-8.9.82-14.74,2.61-17.85,5.5-7.17,6.65-9.04,7.16-9.23,7.2-.03,0-.06,0-.09,0Z"/>
      <path class="cls-2" d="m122.65,158.62c-.19,0-.36-.11-.43-.3-.09-.24.03-.51.27-.6,2.61-1,4.99-2.08,7.06-3.19,5.61-3.01,10.12-2.73,13.11-2.55,2.68.16,3.58.11,3.86-1.18.14-.65.08-1.13-.18-1.48-.58-.77-2.12-.86-3.36-.94-1.1-.07-1.9-.12-2.22-.61l-.07-.12c-.51-.82-1.58-2.53-10.1-.93-9.26,1.73-15.22-1.5-15.47-1.64-.27-.15-6.71-3.61-11.11,2.7-2.21,3.18-5.4,5.7-9.49,7.51-.23.1-.51,0-.61-.24-.1-.24,0-.51.24-.61,3.93-1.74,6.99-4.16,9.1-7.19,4.88-7.01,12.25-3.03,12.32-2.99.06.03,5.93,3.2,14.84,1.54,9.15-1.71,10.39.28,11.06,1.35l.07.11c.14.1.92.15,1.49.19,1.43.09,3.21.19,4.05,1.31.43.57.55,1.32.35,2.23-.47,2.18-2.39,2.06-4.82,1.91-2.88-.17-7.24-.45-12.62,2.44-2.11,1.13-4.52,2.22-7.17,3.24-.06.02-.11.03-.17.03Z"/>
      <path class="cls-2" d="m36.78,182.96c-5.8,0-11.53-1.41-13.8-6.38-1.67-3.66-1.75-7.3-.21-10.81,2.5-5.73,9.41-10.94,18.49-13.94l.82-.27c.24-.08.51.05.59.29.08.24-.05.51-.29.59l-.83.28c-8.83,2.91-15.53,7.93-17.93,13.43-1.42,3.26-1.35,6.64.21,10.05,4.83,10.56,27.91,3.47,28.14,3.4.13-.03,10.95-2.96,17.39-3.55,4.04-.37,15.43-5.07,24.57-8.84l.11-.05c.24-.1.51.02.61.25.1.24-.01.51-.25.61l-.11.05c-9.2,3.8-20.66,8.53-24.84,8.91-6.36.58-17.11,3.49-17.21,3.51-.54.17-8.05,2.48-15.45,2.48Z"/>
      <path class="cls-2" d="m7.86,170.34c-2.52,0-3.94-.35-4.03-.38-.19-.05-.33-.22-.35-.42-.05-.75.41-1.28.98-1.64-2.34-.38-3.7-1.04-3.77-1.07-.19-.09-.29-.29-.25-.5.36-2.04,4.72-1.75,7-1.46-.55-.74-1.27-1.76-1.55-2.37-.49-1.05.12-5.93.24-6.9.01-.1.06-.19.12-.25-.12-.21-.2-.43-.25-.64-.12-.56.04-1.02.4-1.18.41-.18,5.59-.82,8.7-1.19,2.48-1.23,4.66-1.86,6.47-1.8l.05-.05c1.65-1.97,3.3-5.15,4.88-8.23.34-.66.68-1.31,1.01-1.94,1.09-2.07,2-4.34,2.73-6.74,3.41-11.39,8.58-17.28,11.66-20.79,1.1-1.25,1.96-2.24,2.41-3.06,1.84-3.43,6-13.97,6-16.61,0-.43-.03-.81-.05-1.19-.15-2.13-.31-4.55,3.48-16.1,3.33-10.14,9.36-10.64,15.74-11.16,2.34-.19,4.77-.39,7.07-1.11,8.02-2.49,6.92-10.25,6.86-10.58-.03-.17.04-.33.17-.44l10.55-8.43c.17-.14.42-.14.59,0l10.33,8.43c.13.1.19.27.17.43-.05.33-1.15,8.09,6.87,10.58,2.31.72,4.73.92,7.07,1.11,6.38.53,12.4,1.03,15.74,11.16,3.8,11.55,3.63,13.97,3.48,16.1-.03.39-.05.76-.05,1.19,0,2.64,4.16,13.19,6,16.61.44.83,1.31,1.81,2.41,3.06,3.08,3.52,8.25,9.4,11.66,20.79.72,2.41,1.64,4.67,2.73,6.74.33.63.67,1.28,1,1.93,1.59,3.08,3.23,6.27,4.91,8.26l.03.03c1.84-.03,3.99.57,6.47,1.8,3.11.37,8.29,1.01,8.7,1.19.36.16.52.62.4,1.18-.04.21-.13.43-.25.64.06.07.11.16.12.26.12.97.73,5.84.24,6.9-.28.61-1,1.63-1.55,2.37,2.28-.29,6.64-.58,7,1.46.04.2-.07.41-.25.5-.07.03-1.44.69-3.78,1.07.57.36,1.04.88.98,1.64-.01.2-.15.37-.35.42-.14.03-3.45.86-9.14-.05-4.71-.76-11.28-3.49-15.85-12.23l-1.82-3.68c-.04-.05-5.64-9.12-9.65-12.56-.4-.34-.86-.73-1.37-1.15-4.69-3.94-13.43-11.28-14.09-17.62-.47-4.53-1.24-5.96-2.13-7.63-.44-.83-.9-1.68-1.37-2.97-1.08-2.97-5.07-10.63-6.8-13.93-.18,3.76-.94,12.62-4.06,18.13-.01.91-.06,6.84.59,11.22.28,1.9.57,3.18.83,4.32.39,1.71.7,3.06.7,5.52,0,1.84,4.06,4.85,11.15,8.26.23.11.33.39.22.62s-.39.33-.62.22c-5.33-2.56-11.67-6.22-11.67-9.1,0-2.35-.28-3.59-.68-5.31-.26-1.15-.56-2.45-.85-4.39-.7-4.81-.59-11.42-.59-11.49,0-.08.02-.16.06-.22,3.89-6.75,4.05-19.41,4.06-19.54,0-.21.15-.4.35-.45.21-.05.42.05.52.23.26.48,6.27,11.72,7.67,15.59.44,1.22.89,2.05,1.32,2.85.9,1.68,1.75,3.26,2.24,7.97.62,5.97,9.17,13.15,13.76,17.01.51.43.97.81,1.37,1.16,4.13,3.54,9.63,12.44,9.86,12.82l1.84,3.7c4.39,8.38,10.67,11.01,15.17,11.73,4.34.7,7.28.34,8.33.16-.32-.55-1.46-.92-2.06-1.02-.23-.04-.4-.25-.39-.48.01-.24.2-.43.44-.44,2.45-.16,4.2-.72,4.97-1.02-.86-.81-4.44-.64-6.89-.21-.19.03-.38-.06-.48-.22s-.08-.37.03-.53c.02-.02,1.71-2.18,2.14-3.1.24-.51.05-3.36-.27-5.97,0,0,0,0-.01,0-.14.09-.29.17-.46.24-.1.07-.2.16-.31.28-.47.51-.52,1.8-.57,2.93-.02.49-.04.96-.09,1.38-.2,1.64-1.8,2.79-1.87,2.84-.16.11-.37.11-.53,0-.16-.11-.23-.31-.19-.5,0-.01.28-1.1.11-2.88-.08-.87-2.06-1.06-3.25-1.18-1.1-.11-1.65-.16-1.8-.63-.33-1.01,1.14-2.99,1.15-3.01.5-.66,1.62-.47,3.16-.22.9.15,1.97.34,2.84.31.36,0,.65-.06.89-.14.17-.11.33-.2.48-.25.14-.11.25-.23.32-.34.18-.26.22-.49.22-.62-.87-.18-5.51-.76-8.4-1.1-.05,0-.1-.02-.15-.05-2.47-1.24-4.6-1.82-6.3-1.73-.14.03-.27-.05-.36-.14l-.2-.21c-1.76-2.09-3.43-5.32-5.04-8.45-.34-.65-.67-1.3-1-1.93-1.12-2.12-2.06-4.45-2.79-6.91-3.36-11.2-8.44-16.99-11.47-20.45-1.14-1.29-2.03-2.32-2.53-3.24-1.91-3.56-6.11-14.13-6.11-17.05,0-.45.03-.85.06-1.26.14-2.05.3-4.37-3.44-15.75-3.14-9.55-8.6-10-14.93-10.53-2.39-.2-4.87-.4-7.27-1.15-7.91-2.46-7.68-9.83-7.54-11.34l-9.84-8.03-10.06,8.04c.14,1.52.37,8.88-7.54,11.34-2.41.75-4.88.95-7.27,1.15-6.33.52-11.79.98-14.93,10.53-3.74,11.37-3.58,13.7-3.44,15.75.03.41.06.81.06,1.26,0,2.92-4.2,13.49-6.11,17.05-.49.92-1.39,1.94-2.53,3.24-3.04,3.46-8.11,9.25-11.47,20.45-.74,2.47-1.68,4.79-2.79,6.91-.33.63-.67,1.28-1,1.93-1.61,3.12-3.28,6.35-5.02,8.42l-.21.23c-.09.1-.23.17-.36.14-1.69-.09-3.83.5-6.3,1.73-.05.02-.1.04-.15.05-2.87.34-7.46.92-8.4,1.11,0,.13.05.37.22.62.08.11.18.23.32.34.15.06.31.14.48.25.24.08.53.14.89.14.93-.01,1.94-.16,2.84-.31,1.55-.25,2.67-.44,3.17.22.01.02,1.48,2.01,1.15,3.01-.15.47-.7.52-1.8.63-1.18.12-3.17.31-3.25,1.18-.16,1.78.11,2.86.11,2.88.05.19-.02.39-.19.5-.16.11-.37.11-.53,0-.07-.05-1.67-1.2-1.87-2.84-.05-.41-.07-.89-.09-1.38-.05-1.14-.1-2.42-.57-2.93-.11-.12-.21-.21-.31-.28-.17-.07-.32-.15-.45-.24,0,0-.01,0-.02,0-.32,2.61-.5,5.45-.27,5.97.42.92,2.12,3.08,2.14,3.1.12.15.13.36.03.53-.1.17-.29.25-.48.22-2.45-.42-6.03-.6-6.89.21.77.3,2.53.86,4.97,1.02.24.01.42.2.44.44.01.24-.15.44-.39.48-.61.1-1.75.47-2.06,1.02,1.05.18,3.99.54,8.33-.16,4.5-.72,10.78-3.35,15.17-11.74l1.81-3.66c.25-.41,5.75-9.32,9.88-12.85.4-.34.86-.73,1.37-1.16,4.59-3.86,13.15-11.04,13.76-17.01.49-4.71,1.34-6.29,2.24-7.97.43-.8.87-1.62,1.32-2.85,1.41-3.87,7.42-15.11,7.67-15.59.1-.19.31-.28.52-.23.21.05.35.23.35.45,0,.13.16,12.78,4.06,19.54.04.07.06.15.06.22,0,.07.11,6.68-.59,11.49-.28,1.94-.58,3.24-.85,4.39-.39,1.71-.68,2.95-.68,5.31,0,2.89-6.39,6.56-11.74,9.14-.23.11-.51.01-.62-.22-.11-.23-.01-.51.22-.62,7.02-3.37,11.22-6.47,11.22-8.3,0-2.46.31-3.81.7-5.52.26-1.13.55-2.41.83-4.31.64-4.38.6-10.31.59-11.22-3.12-5.51-3.88-14.37-4.06-18.13-1.74,3.3-5.72,10.96-6.8,13.93-.47,1.29-.93,2.14-1.37,2.97-.89,1.66-1.66,3.1-2.13,7.63-.66,6.35-9.4,13.68-14.09,17.62-.5.42-.96.81-1.36,1.15-4.01,3.44-9.61,12.5-9.67,12.6l-1.8,3.63c-4.57,8.74-11.15,11.48-15.85,12.24-2.01.32-3.73.43-5.11.43Zm.98-13.69c.35.79.39,1.87.44,2.93.02.46.04.91.08,1.31.06.49.31.94.58,1.3-.03-.49-.02-1.1.04-1.81.15-1.63,2.52-1.87,4.08-2.02.36-.04.79-.08,1.01-.13-.05-.38-.45-1.28-1.01-2.03-.18-.21-1.49,0-2.27.14-.92.15-1.96.31-2.95.32Zm164.71,1.57c.23.05.65.09,1.01.13,1.57.15,3.93.39,4.08,2.02.07.71.07,1.32.04,1.81.28-.36.52-.81.58-1.3.05-.39.06-.84.08-1.31.04-1.06.09-2.14.44-2.93h-.03c-.99,0-2.01-.17-2.92-.32-.78-.13-2.09-.34-2.27-.14-.56.75-.96,1.65-1.01,2.03Z"/>
      <path class="cls-2" d="m151.84,182.96c-7.41,0-14.92-2.31-15.47-2.48-.09-.02-10.84-2.93-17.2-3.51-4.18-.38-15.64-5.11-24.84-8.91-5.26-2.17-9.8-4.05-11.84-4.64l-.6-.19c-.08-.01-13.32-2.55-23.26-7.88-5.37-2.88-9.73-2.61-12.62-2.44-2.43.15-4.35.27-4.82-1.91-.2-.91-.08-1.67.35-2.23.84-1.11,2.62-1.22,4.05-1.31.57-.04,1.35-.08,1.51-.21l.05-.08c.67-1.07,1.91-3.07,11.06-1.35,8.91,1.66,14.78-1.51,14.84-1.54.07-.04,7.44-4.03,12.32,2.99,4.7,6.75,13.63,9.49,20.42,9.8,1.08.05,2.44.07,4,.1,9.24.16,24.71.44,31.04,6.31,6.91,6.41,8.72,6.95,8.79,6.97.24.06.4.31.34.56s-.28.4-.53.35c-.19-.04-2.06-.55-9.23-7.2-6.07-5.63-21.32-5.9-30.42-6.06-1.57-.03-2.94-.05-4.02-.1-7.01-.32-16.25-3.16-21.14-10.19-4.4-6.32-10.83-2.86-11.11-2.7-.25.14-6.21,3.37-15.47,1.64-8.53-1.6-9.59.11-10.1.93l-.07.12c-.32.5-1.11.54-2.21.61-1.24.08-2.78.17-3.36.94-.26.35-.32.83-.18,1.48.28,1.29,1.17,1.34,3.86,1.18,2.99-.18,7.51-.46,13.11,2.55,9.81,5.26,22.92,7.78,23.05,7.8l.64.2c2.07.6,6.63,2.49,11.92,4.67,9.14,3.77,20.53,8.47,24.57,8.84,6.44.59,17.27,3.51,17.37,3.54.25.08,23.33,7.17,28.16-3.39,1.56-3.41,1.63-6.79.21-10.05-2.4-5.49-9.1-10.51-17.93-13.43l-.86-.29c-.24-.08-.37-.35-.29-.59.08-.24.35-.38.59-.29l.86.29c9.07,3,15.99,8.21,18.49,13.94,1.53,3.51,1.46,7.15-.21,10.81-2.27,4.96-8,6.38-13.8,6.38Z"/>
    </g>
    <path class="cls-1" d="m77.14,33.36c.44-.33,1.08-.51,1.63-.45-.04-.46-.06-.91-.08-1.37-.03-.69-.03-1.38,0-2.07.02-.63.06-1.27.13-1.9.06-.58.15-1.16.26-1.73.1-.53.23-1.06.37-1.58.14-.48.3-.96.48-1.43.17-.44.36-.87.57-1.29.2-.39.42-.78.65-1.15.22-.35.47-.7.73-1.03.25-.31.51-.62.79-.91.27-.28.54-.54.83-.79,1.57-1.36,3.48-2.3,5.48-2.83.99-.26,2-.44,3.01-.53,2.56-.25,5.21-.15,7.69.53.29.08.58.17.87.27.3.1.6.21.89.33.3.12.6.26.9.4.3.15.6.31.9.48.3.18.6.37.88.57.3.21.58.43.86.66.29.24.56.49.83.76.27.28.53.57.78.87.26.31.5.64.73.98.24.36.46.72.66,1.1.21.4.41.81.58,1.23.19.45.35.9.5,1.36.16.49.29,1,.4,1.5.12.55.22,1.1.29,1.65.08.6.14,1.2.17,1.81.04.66.05,1.31.04,1.97,0,.71-.04,1.43-.1,2.14.55-.07,1.18.12,1.63.45.44.33.75.86.78,1.42.02.28-.03.56-.09.83-.21.95-.57,1.87-1.06,2.72-.21.35-.43.69-.59,1.06-.47,1.17-.13,2.49-.16,3.76-.01.53-.11,1.09-.49,1.46-.45.43-1.15.44-1.77.43-.75,3.36-2.19,6.63-4.5,9.18-2.24,2.46-5.31,4.22-8.61,4.59-.23.03-.46.03-.69.03h0c-.23,0-.46,0-.69-.03-3.3-.37-6.37-2.13-8.61-4.59-2.31-2.54-3.75-5.82-4.5-9.18-.63.01-1.32,0-1.77-.43-.38-.36-.48-.93-.49-1.46-.03-1.26.31-2.59-.16-3.76-.15-.38-.38-.71-.59-1.06-.5-.84-.86-1.76-1.06-2.72-.06-.27-.11-.55-.09-.83.03-.55.33-1.08.78-1.42Z"/>
    <path class="cls-2" d="m94.47,14.18c1.76,0,3.52.19,5.21.66.29.08.58.17.87.27.3.1.6.21.89.33.3.12.6.26.9.4.3.15.6.31.9.48.3.18.6.37.88.57.3.21.58.43.86.66.29.24.56.49.83.76.27.28.53.57.78.87.26.31.5.64.73.98.24.36.46.72.66,1.1.21.4.41.81.58,1.23.19.45.35.9.5,1.36.16.49.29,1,.4,1.5.12.55.22,1.1.29,1.65.08.6.14,1.2.17,1.81.04.66.05,1.31.04,1.97,0,.71-.04,1.43-.1,2.14.08,0,.15-.01.23-.01.49,0,1.02.17,1.4.46.44.33.75.86.78,1.42.02.28-.03.56-.09.83-.21.95-.57,1.87-1.06,2.72-.21.35-.43.69-.59,1.06-.47,1.17-.13,2.49-.16,3.76-.01.53-.11,1.09-.49,1.46-.39.37-.96.43-1.51.43-.09,0-.18,0-.26,0-.75,3.36-2.19,6.63-4.5,9.18-2.24,2.46-5.31,4.22-8.61,4.59-.23.03-.46.03-.69.03s-.46,0-.69-.03c-3.3-.37-6.37-2.13-8.61-4.59-2.31-2.54-3.75-5.82-4.5-9.18-.09,0-.17,0-.26,0-.55,0-1.12-.06-1.51-.43-.38-.36-.48-.93-.49-1.46-.03-1.26.31-2.59-.16-3.76-.15-.38-.38-.71-.59-1.06-.5-.84-.86-1.76-1.06-2.72-.06-.27-.11-.55-.09-.83.03-.55.33-1.08.78-1.42.38-.29.91-.46,1.4-.46.08,0,.15,0,.23.01-.03-.46-.06-.91-.08-1.37-.03-.69-.03-1.38,0-2.07.02-.63.06-1.27.13-1.9.06-.58.15-1.16.26-1.73.1-.53.23-1.06.37-1.58.14-.48.3-.96.48-1.43.17-.44.36-.87.57-1.29.2-.39.42-.78.65-1.15.22-.35.47-.7.73-1.03.25-.31.51-.62.79-.91.27-.28.54-.54.83-.79,1.57-1.36,3.48-2.3,5.48-2.83.99-.26,2-.44,3.01-.53.82-.08,1.65-.12,2.48-.12m0-.93c-.83,0-1.7.04-2.57.13-1.11.11-2.17.3-3.17.56-2.23.6-4.26,1.65-5.85,3.03-.31.27-.61.56-.9.85-.3.31-.58.64-.84.97-.28.35-.54.72-.78,1.1-.25.39-.49.81-.7,1.23-.22.44-.43.9-.61,1.37-.19.48-.36.99-.51,1.51-.15.53-.28,1.09-.39,1.66-.11.58-.2,1.19-.27,1.81-.07.64-.11,1.3-.14,1.97-.02.69-.02,1.41,0,2.13,0,.16.01.32.02.48-.44.1-.85.3-1.2.56-.67.5-1.1,1.29-1.15,2.1-.02.4.04.77.11,1.09.23,1.05.62,2.06,1.17,2.99l.16.26c.15.24.28.46.37.68.25.61.2,1.36.14,2.16-.03.42-.06.85-.05,1.27.02.94.27,1.63.77,2.11.49.47,1.11.63,1.68.67.89,3.52,2.45,6.58,4.55,8.88,2.48,2.73,5.83,4.52,9.19,4.89.26.03.53.04.79.04s.53,0,.79-.04c3.36-.38,6.71-2.16,9.19-4.89,2.1-2.31,3.66-5.37,4.55-8.88.56-.05,1.18-.2,1.68-.67.5-.48.76-1.17.77-2.11,0-.42-.02-.84-.05-1.27-.05-.8-.11-1.55.14-2.16.09-.22.23-.44.37-.68l.16-.26c.55-.93.94-1.94,1.17-2.99.07-.31.13-.68.11-1.09-.05-.81-.48-1.6-1.15-2.1-.35-.26-.77-.45-1.2-.56.02-.43.04-.86.04-1.27,0-.69,0-1.38-.04-2.03-.04-.64-.1-1.27-.18-1.88-.08-.59-.18-1.17-.3-1.73-.12-.54-.26-1.07-.42-1.58-.15-.49-.33-.98-.53-1.44-.19-.45-.4-.89-.62-1.31-.22-.41-.45-.8-.71-1.18-.24-.36-.51-.72-.78-1.05-.27-.32-.55-.64-.84-.93-.28-.29-.58-.56-.89-.82-.3-.25-.61-.49-.92-.71-.31-.22-.62-.42-.95-.61-.31-.18-.63-.36-.96-.52-.31-.15-.63-.3-.96-.43-.31-.13-.63-.24-.95-.35-.3-.1-.61-.2-.92-.28-1.67-.46-3.51-.69-5.46-.69h0Z"/>
  </g>
  <path class="cls-2" d="m87.81,129.26c0,3.61,2.93,6.54,6.54,6.54s6.54-2.93,6.54-6.54-2.93-6.54-6.54-6.54-6.54,2.93-6.54,6.54Z"/>
</svg>