<?xml version="1.0" encoding="UTF-8"?>
<svg id="Layer_1" data-name="Layer 1" xmlns="http://www.w3.org/2000/svg" viewBox="0 0 188.62 182.96">
  <defs>
    <style>
      .cls-1 {
        fill: #000150;
      }

      .cls-1, .cls-2 {
        stroke-width: 0px;
      }

      .cls-2 {
        fill: #fff;
      }
    </style>
  </defs>
  <g>
    <g>
      <path class="cls-1" d="m6.07,167.6c-3.5-.22-5.61-1.25-5.61-1.25.38-2.17,7.64-.91,7.64-.91,0,0-1.75-2.22-2.2-3.21-.46-.99.28-6.67.28-6.67,0,0,.28-.07.7.09-.93-.61-1-1.68-.7-1.81.42-.18,8.69-1.17,8.69-1.17,3.01-1.51,5.13-1.86,6.56-1.79l.2-.21c2.08-2.47,4.1-6.72,5.99-10.32,1.15-2.19,2.06-4.49,2.77-6.86,4.62-15.41,12.31-20.55,14.1-23.88,1.9-3.55,6.08-14.12,6.08-16.91s-1.08-3.55,3.42-17.23c4.5-13.68,14.06-9.37,22.61-12.03,8.55-2.66,7.22-11.15,7.22-11.15l10.6-8.47,10.38,8.47s-1.33,8.49,7.22,11.15c8.55,2.66,18.11-1.65,22.61,12.03,4.5,13.68,3.42,14.44,3.42,17.23s4.18,13.36,6.08,16.91c1.79,3.33,9.48,8.47,14.1,23.88.71,2.37,1.62,4.67,2.77,6.86,1.9,3.6,3.91,7.85,5.99,10.32l.2.21c1.43-.07,3.55.28,6.56,1.79,0,0,8.27.99,8.69,1.17.3.13.23,1.2-.7,1.81.41-.16.7-.09.7-.09,0,0,.74,5.68.28,6.67-.46.99-2.2,3.21-2.2,3.21,0,0,7.26-1.26,7.64.91,0,0-2.11,1.03-5.61,1.25,0,0,2.64.45,2.54,1.85,0,0-3.3.85-8.99-.06-5.69-.92-11.58-4.38-15.58-12.04l-1.83-3.68s-5.67-9.22-9.81-12.76c-4.14-3.55-14.66-11.7-15.36-18.56-.71-6.85-2.13-6.85-3.55-10.76-1.42-3.9-7.68-15.6-7.68-15.6,0,0-.12,12.88-4.14,19.86,0,0-.12,6.62.59,11.46.71,4.85,1.54,5.79,1.54,9.81,0,2.32,5.01,5.62,11.58,8.78,8.1-1.33,8.93.58,9.5,1.47.6.93,6.71-.6,5.85,3.39-.11.5-.3.85-.58,1.1.28.09.56.19.83.28,12.17,4.02,23.17,13.12,18.08,24.23-5.08,11.11-28.84,3.66-28.84,3.66,0,0-10.87-2.95-17.37-3.55-4.16-.38-15.74-5.17-25.02-9-9.28,3.83-20.86,8.62-25.02,9-6.5.59-17.37,3.55-17.37,3.55,0,0-23.76,7.45-28.84-3.66-5.08-11.11,5.91-20.21,18.08-24.23.27-.09.55-.18.83-.28-.28-.25-.47-.6-.58-1.1-.86-3.99,5.25-2.46,5.85-3.39.57-.89,1.4-2.8,9.5-1.47,6.57-3.15,11.58-6.46,11.58-8.78,0-4.02.83-4.96,1.54-9.81.71-4.85.59-11.46.59-11.46-4.02-6.97-4.14-19.86-4.14-19.86,0,0-6.26,11.7-7.68,15.6-1.42,3.9-2.84,3.9-3.55,10.76s-11.23,15.01-15.36,18.56c-4.14,3.55-9.81,12.76-9.81,12.76l-1.83,3.68c-4.01,7.66-9.89,11.12-15.58,12.04-5.69.92-8.99.06-8.99.06-.1-1.4,2.54-1.85,2.54-1.85Zm167.4-9.21c.17.53,4.92.01,5.1,1.92.18,1.91-.13,3.05-.13,3.05,0,0,1.51-1.07,1.68-2.53s-.03-3.71.78-4.59c.18-.2.36-.34.53-.44-.33.15-.71.25-1.21.26-2.36.02-5.1-1.01-5.66-.27-.56.74-1.26,2.07-1.09,2.6Zm-163.28,4.97s-.31-1.14-.13-3.05c.18-1.91,4.92-1.4,5.1-1.92.17-.53-.53-1.86-1.09-2.6-.56-.74-3.3.29-5.66.27-.5,0-.89-.11-1.21-.26.17.1.34.24.53.44.81.88.61,3.13.78,4.59.17,1.46,1.68,2.53,1.68,2.53Z"/>
      <path class="cls-2" d="m38.84,171.3c-.22,0-.42-.16-.46-.38-.05-.25.12-.5.37-.55.06-.02,1.87-.56,8.81-7,3.28-3.04,9.33-4.93,18.48-5.77.25-.01.48.17.51.42s-.17.48-.42.51c-8.94.82-14.81,2.63-17.93,5.53-7.2,6.68-9.08,7.19-9.27,7.23-.03,0-.06,0-.09,0Z"/>
      <path class="cls-2" d="m122.78,158.51c-.19,0-.37-.11-.44-.3-.09-.24.03-.51.27-.6,2.62-1.01,5.01-2.09,7.09-3.2,5.63-3.02,10.17-2.74,13.17-2.56,2.7.16,3.59.11,3.88-1.19.14-.65.08-1.13-.18-1.48-.59-.77-2.13-.87-3.38-.94-1.11-.07-1.9-.12-2.22-.61l-.08-.12c-.52-.82-1.59-2.54-10.15-.94-9.3,1.74-15.29-1.51-15.54-1.65-.27-.15-6.74-3.63-11.16,2.72-2.22,3.19-5.43,5.73-9.53,7.54-.24.1-.51,0-.62-.24-.11-.24,0-.51.24-.62,3.95-1.74,7.02-4.17,9.14-7.22,4.9-7.05,12.3-3.04,12.38-3,.06.03,5.97,3.22,14.91,1.54,9.19-1.72,10.44.28,11.11,1.36l.07.11c.14.1.92.15,1.49.19,1.43.09,3.22.2,4.07,1.31.43.57.55,1.33.35,2.24-.47,2.19-2.4,2.07-4.85,1.92-2.9-.17-7.28-.45-12.67,2.45-2.12,1.14-4.54,2.23-7.2,3.25-.06.02-.11.03-.17.03Z"/>
      <path class="cls-2" d="m36.51,182.96c-5.82,0-11.58-1.42-13.86-6.41-1.68-3.68-1.75-7.33-.21-10.86,2.51-5.76,9.46-11,18.57-14.01l.82-.27c.25-.08.51.05.59.29.08.24-.05.51-.29.59l-.83.28c-8.87,2.93-15.6,7.97-18.01,13.49-1.43,3.28-1.36,6.67.21,10.1,4.86,10.61,28.04,3.49,28.27,3.41.13-.03,11-2.98,17.47-3.56,4.06-.37,15.48-5.08,24.66-8.87l.14-.06c.24-.1.51.02.61.25.1.24-.01.51-.25.61l-.14.06c-9.24,3.81-20.73,8.56-24.93,8.94-6.39.58-17.18,3.5-17.29,3.53-.54.17-8.09,2.49-15.52,2.49Z"/>
      <path class="cls-2" d="m181.16,170.28c-1.39,0-3.11-.11-5.14-.43-4.73-.76-11.33-3.51-15.92-12.29l-1.83-3.69c-.04-.05-5.66-9.16-9.69-12.62-.4-.34-.86-.73-1.37-1.16-4.72-3.96-13.49-11.33-14.15-17.7-.47-4.55-1.24-5.99-2.14-7.66-.45-.83-.91-1.69-1.38-2.98-1.08-2.98-5.09-10.68-6.83-13.99-.18,3.77-.95,12.68-4.08,18.21-.01.91-.06,6.87.59,11.27.28,1.91.58,3.2.84,4.34.39,1.72.71,3.07.71,5.54,0,1.85,4.08,4.88,11.2,8.3.23.11.33.39.22.62s-.39.33-.62.22c-5.35-2.57-11.73-6.25-11.73-9.14,0-2.37-.29-3.61-.68-5.33-.26-1.15-.57-2.46-.85-4.41-.71-4.83-.6-11.47-.6-11.54,0-.08.02-.16.06-.23,3.91-6.78,4.07-19.5,4.07-19.63,0-.21.15-.4.36-.45.21-.05.42.05.52.23.26.48,6.3,11.78,7.71,15.66.45,1.23.89,2.06,1.32,2.86.91,1.68,1.76,3.28,2.25,8.01.62,6,9.21,13.21,13.82,17.08.51.43.98.82,1.38,1.16,4.15,3.55,9.67,12.5,9.9,12.88l1.85,3.72c4.41,8.42,10.72,11.06,15.24,11.79,4.36.7,7.31.34,8.37.16-.32-.55-1.46-.92-2.07-1.03-.23-.04-.4-.25-.39-.49.01-.24.2-.43.44-.44,2.46-.16,4.22-.73,5-1.02-.86-.81-4.46-.64-6.92-.21-.19.03-.38-.05-.48-.22-.1-.17-.08-.38.03-.53.02-.02,1.72-2.19,2.15-3.11.24-.52.05-3.37-.27-5.99,0,0,0,0-.01,0-.14.09-.29.17-.46.24-.1.07-.2.17-.31.28-.47.51-.53,1.8-.57,2.94-.02.49-.04.97-.09,1.39-.2,1.65-1.81,2.81-1.88,2.85-.16.11-.37.11-.54,0-.16-.11-.24-.31-.19-.5,0-.01.28-1.1.12-2.89-.08-.87-2.07-1.07-3.26-1.19-1.1-.11-1.66-.16-1.81-.63-.33-1.02,1.14-3.01,1.16-3.03.5-.66,1.62-.48,3.18-.22.9.15,1.95.31,2.85.31.36,0,.65-.06.89-.14.17-.11.33-.2.48-.25.14-.11.25-.23.33-.34.18-.26.22-.5.22-.63-.88-.18-5.54-.76-8.44-1.11-.05,0-.11-.02-.15-.05-2.48-1.24-4.6-1.82-6.33-1.74-.14.02-.27-.05-.36-.15l-.2-.21c-1.77-2.1-3.44-5.35-5.06-8.49-.34-.66-.67-1.3-1-1.93-1.12-2.13-2.06-4.46-2.81-6.94-3.37-11.25-8.48-17.07-11.52-20.54-1.14-1.3-2.04-2.33-2.54-3.25-1.92-3.58-6.14-14.2-6.14-17.13,0-.45.03-.85.06-1.26.14-2.06.3-4.39-3.45-15.82-3.15-9.6-8.64-10.05-15-10.58-2.4-.2-4.89-.41-7.31-1.16-7.95-2.47-7.71-9.87-7.57-11.39l-9.89-8.07-10.11,8.07c.14,1.53.37,8.92-7.57,11.39-2.42.75-4.9.96-7.31,1.16-6.35.53-11.84.98-15,10.58-3.76,11.43-3.59,13.76-3.45,15.82.03.41.06.81.06,1.26,0,2.93-4.22,13.55-6.14,17.13-.5.93-1.4,1.95-2.54,3.25-3.05,3.48-8.15,9.29-11.52,20.54-.74,2.48-1.69,4.81-2.81,6.94-.33.63-.66,1.27-1,1.93-1.62,3.14-3.3,6.39-5.05,8.47l-.21.23c-.09.1-.21.16-.36.15-1.71-.09-3.85.5-6.33,1.74-.05.02-.1.04-.15.05-2.89.35-7.5.92-8.44,1.11,0,.13.05.37.22.62.08.11.18.23.33.34.15.06.31.14.48.25.24.08.53.14.89.14.91,0,1.95-.16,2.85-.31,1.55-.26,2.68-.44,3.18.22.02.02,1.49,2.02,1.16,3.03-.16.47-.71.52-1.81.63-1.19.12-3.18.31-3.26,1.19-.17,1.79.11,2.88.12,2.89.05.19-.02.39-.19.5-.16.11-.37.11-.54,0-.07-.05-1.68-1.21-1.88-2.85-.05-.42-.07-.89-.09-1.39-.05-1.14-.1-2.43-.57-2.94-.11-.12-.21-.21-.31-.28-.17-.07-.32-.15-.45-.24h-.02c-.32,2.62-.5,5.47-.27,5.99.43.93,2.13,3.09,2.15,3.11.12.15.13.36.03.53-.1.17-.29.25-.48.22-2.46-.43-6.06-.6-6.92.21.78.3,2.54.87,5,1.02.24.02.42.2.44.44.01.24-.15.45-.39.49-.61.11-1.76.47-2.07,1.03,1.06.18,4.01.54,8.37-.16,4.52-.73,10.83-3.36,15.24-11.8l1.82-3.68c.25-.42,5.78-9.36,9.92-12.91.4-.35.87-.74,1.38-1.16,4.62-3.87,13.21-11.09,13.83-17.09.49-4.73,1.34-6.32,2.25-8.01.43-.8.88-1.63,1.32-2.86,1.41-3.89,7.45-15.18,7.71-15.66.1-.19.32-.29.52-.23.21.05.35.24.36.45,0,.13.16,12.84,4.07,19.63.04.07.06.15.06.23,0,.07.11,6.71-.6,11.54-.29,1.95-.59,3.25-.85,4.41-.4,1.72-.68,2.97-.68,5.33,0,2.9-6.42,6.59-11.8,9.18-.23.11-.51.01-.62-.22-.11-.23-.01-.51.22-.62,7.06-3.39,11.27-6.5,11.27-8.34,0-2.47.31-3.83.71-5.54.26-1.14.56-2.42.84-4.33.64-4.4.6-10.36.59-11.27-3.13-5.54-3.9-14.44-4.08-18.21-1.75,3.31-5.75,11.01-6.83,13.99-.47,1.29-.93,2.15-1.38,2.98-.9,1.67-1.67,3.11-2.14,7.66-.66,6.38-9.44,13.75-14.16,17.71-.51.43-.97.81-1.37,1.16-4.03,3.46-9.66,12.56-9.72,12.65l-1.8,3.65c-4.6,8.78-11.2,11.53-15.93,12.29-5.72.92-9.04.09-9.18.05-.19-.05-.34-.22-.35-.42-.05-.76.41-1.28.99-1.64-2.35-.38-3.72-1.04-3.79-1.07-.19-.09-.29-.3-.26-.5.36-2.05,4.74-1.76,7.03-1.46-.55-.75-1.27-1.77-1.56-2.38-.49-1.06.12-5.96.24-6.93.01-.1.06-.19.12-.26-.12-.21-.21-.43-.25-.65-.12-.56.04-1.02.4-1.18.41-.18,5.62-.83,8.74-1.2,2.49-1.24,4.66-1.85,6.5-1.81l.05-.05c1.66-1.98,3.32-5.18,4.92-8.28.34-.66.67-1.3,1-1.93,1.09-2.08,2.01-4.36,2.74-6.77,3.43-11.45,8.62-17.36,11.72-20.89,1.1-1.26,1.97-2.25,2.42-3.08,1.84-3.44,6.02-14.04,6.02-16.69,0-.43-.03-.81-.05-1.2-.15-2.14-.32-4.57,3.5-16.17,3.35-10.19,9.4-10.69,15.81-11.22,2.35-.19,4.79-.4,7.11-1.12,8.05-2.5,6.95-10.3,6.9-10.63-.03-.17.04-.33.17-.44l10.6-8.47c.17-.14.42-.14.59,0l10.38,8.47c.13.11.19.27.17.43-.05.33-1.16,8.12,6.9,10.63,2.32.72,4.75.92,7.11,1.12,6.41.53,12.46,1.03,15.81,11.22,3.81,11.6,3.65,14.03,3.5,16.17-.03.39-.05.77-.05,1.2,0,2.65,4.18,13.25,6.02,16.69.45.83,1.32,1.82,2.42,3.08,3.1,3.53,8.29,9.44,11.72,20.89.73,2.42,1.65,4.7,2.74,6.77.33.63.67,1.28,1.01,1.94,1.6,3.1,3.25,6.3,4.93,8.3l.03.03c1.81-.03,4.01.57,6.5,1.81,3.13.37,8.33,1.02,8.74,1.2.36.16.52.62.4,1.18-.04.21-.13.43-.25.65.06.07.11.16.12.26.13.97.73,5.87.24,6.93-.28.61-1,1.63-1.56,2.38,2.29-.29,6.67-.58,7.03,1.46.04.21-.07.41-.26.5-.07.03-1.44.69-3.79,1.07.58.36,1.04.89.99,1.64-.01.2-.16.37-.35.42-.09.02-1.51.38-4.05.38Zm-7.25-12.17c.23.05.66.09,1.02.13,1.57.16,3.95.39,4.1,2.03.07.71.07,1.32.04,1.82.28-.36.53-.81.58-1.31.05-.39.07-.85.08-1.32.04-1.06.09-2.15.44-2.94h-.03c-.99,0-2.02-.17-2.94-.32-.79-.13-2.1-.35-2.28-.14-.57.75-.96,1.66-1.01,2.04Zm-165.47-1.58c.35.79.39,1.88.44,2.94.02.47.04.92.08,1.31.06.48.3.93.58,1.3-.03-.49-.02-1.1.04-1.81.15-1.64,2.53-1.88,4.1-2.03.36-.04.79-.08,1.02-.13-.05-.38-.45-1.29-1.02-2.04-.18-.21-1.49.01-2.28.14-.91.15-1.95.32-2.94.32h-.03Z"/>
      <path class="cls-2" d="m152.11,182.96c-7.44,0-14.99-2.32-15.54-2.49-.09-.02-10.89-2.95-17.28-3.53-4.2-.38-15.71-5.13-24.95-8.95-5.29-2.18-9.85-4.07-11.89-4.66l-.6-.19c-.08-.01-13.38-2.56-23.37-7.92-5.39-2.89-9.78-2.63-12.67-2.45-2.44.15-4.37.27-4.85-1.92-.2-.92-.08-1.67.35-2.24.85-1.12,2.63-1.22,4.07-1.31.57-.03,1.36-.08,1.52-.21l.05-.08c.67-1.07,1.93-3.08,11.11-1.36,8.95,1.67,14.85-1.51,14.91-1.55.07-.04,7.47-4.05,12.38,3,4.72,6.78,13.69,9.53,20.51,9.84,1.08.05,2.45.07,4.02.1,9.29.17,24.83.44,31.19,6.34,6.94,6.44,8.76,6.98,8.83,7,.24.06.4.31.34.56s-.28.4-.54.36c-.19-.04-2.07-.55-9.27-7.23-6.1-5.65-21.41-5.93-30.57-6.09-1.58-.03-2.95-.05-4.04-.1-7.05-.32-16.32-3.18-21.24-10.24-4.42-6.34-10.88-2.87-11.16-2.72-.25.14-6.24,3.39-15.54,1.65-8.56-1.6-9.63.11-10.15.94l-.07.12c-.32.5-1.12.55-2.22.61-1.24.08-2.79.17-3.38.94-.26.35-.32.83-.18,1.48.28,1.3,1.18,1.35,3.88,1.19,3.01-.18,7.54-.46,13.17,2.56,9.86,5.29,23.03,7.81,23.16,7.84l.64.2c2.08.61,6.67,2.5,11.98,4.69,9.19,3.79,20.62,8.51,24.68,8.88,6.47.59,17.35,3.53,17.45,3.56.25.08,23.44,7.2,28.29-3.41,1.57-3.42,1.64-6.82.21-10.1-2.41-5.52-9.14-10.56-18.01-13.49l-.86-.29c-.24-.08-.38-.35-.29-.59.08-.24.35-.37.59-.29l.86.29c9.12,3.01,16.06,8.25,18.57,14.01,1.54,3.53,1.47,7.18-.21,10.86-2.28,4.99-8.04,6.41-13.86,6.41Z"/>
    </g>
    <path class="cls-1" d="m77.06,32.67c.45-.33,1.08-.52,1.64-.45-.04-.46-.06-.92-.08-1.38-.03-.69-.03-1.38,0-2.08.02-.64.06-1.27.13-1.91.06-.58.15-1.16.26-1.74.1-.53.23-1.06.38-1.58.14-.49.3-.96.48-1.44.17-.44.36-.87.58-1.29.2-.4.42-.78.66-1.16.23-.36.47-.7.73-1.03.25-.32.51-.62.79-.91.27-.28.55-.55.84-.8,1.58-1.37,3.5-2.31,5.51-2.85.99-.27,2.01-.44,3.03-.54,2.57-.25,5.23-.15,7.73.54.29.08.59.17.88.27.3.1.6.21.89.33.31.12.61.26.9.4.31.15.61.31.9.48.3.18.6.37.89.57.3.21.59.43.86.66.29.24.56.5.83.76.27.28.54.57.78.87.26.32.5.65.73.99.24.36.46.73.66,1.11.22.4.41.81.59,1.23.19.45.35.91.5,1.37.16.5.29,1,.4,1.51.12.55.22,1.1.29,1.66.08.6.14,1.21.17,1.81.04.66.05,1.32.04,1.98,0,.72-.04,1.43-.1,2.15.55-.07,1.19.12,1.64.45.45.33.75.86.78,1.42.02.28-.03.56-.09.83-.21.96-.57,1.88-1.07,2.73-.21.35-.44.69-.59,1.07-.48,1.18-.13,2.5-.16,3.77-.01.53-.11,1.1-.49,1.46-.45.43-1.15.45-1.78.43-.75,3.37-2.2,6.66-4.52,9.22-2.25,2.47-5.34,4.24-8.65,4.62-.23.03-.46.03-.69.03h0c-.23,0-.46,0-.69-.03-3.31-.37-6.4-2.14-8.65-4.62-2.32-2.56-3.77-5.84-4.52-9.22-.63.01-1.33,0-1.78-.43-.38-.37-.48-.94-.49-1.46-.03-1.27.32-2.6-.16-3.77-.15-.38-.38-.72-.59-1.07-.5-.85-.86-1.77-1.07-2.73-.06-.27-.11-.55-.09-.83.03-.56.34-1.09.78-1.42Z"/>
    <path class="cls-2" d="m94.47,13.4c1.77,0,3.54.19,5.24.66.29.08.59.17.88.27.3.1.6.21.89.33.31.12.61.26.9.4.31.15.61.31.9.48.3.18.6.37.89.57.3.21.59.43.86.66.29.24.56.5.83.76.27.28.54.57.78.87.26.32.5.65.73.99.24.36.46.73.66,1.11.22.4.41.81.59,1.23.19.45.35.91.5,1.37.16.5.29,1,.4,1.51.12.55.22,1.1.29,1.66.08.6.14,1.21.17,1.81.04.66.05,1.32.04,1.98,0,.72-.04,1.43-.1,2.15.08,0,.15-.01.23-.01.49,0,1.02.17,1.41.46.45.34.75.86.78,1.42.02.28-.03.56-.09.83-.21.96-.57,1.88-1.07,2.73-.21.35-.44.69-.59,1.07-.48,1.18-.13,2.5-.16,3.77-.01.53-.11,1.1-.49,1.46-.39.37-.96.43-1.52.43-.09,0-.18,0-.26,0-.75,3.37-2.2,6.66-4.52,9.22-2.25,2.47-5.34,4.24-8.65,4.62-.23.03-.46.03-.69.03s-.46,0-.69-.03c-3.31-.37-6.4-2.14-8.65-4.62-2.32-2.56-3.77-5.84-4.52-9.22-.09,0-.18,0-.26,0-.55,0-1.13-.06-1.52-.43-.38-.37-.48-.94-.49-1.46-.03-1.27.32-2.6-.16-3.77-.15-.38-.38-.72-.59-1.07-.5-.85-.86-1.77-1.07-2.73-.06-.27-.11-.55-.09-.83.03-.56.34-1.09.78-1.42.39-.29.91-.46,1.41-.46.08,0,.15,0,.23.01-.04-.46-.06-.92-.08-1.38-.03-.69-.03-1.38,0-2.08.02-.64.06-1.27.13-1.91.06-.58.15-1.16.26-1.74.1-.53.23-1.06.38-1.58.14-.49.3-.96.48-1.44.17-.44.36-.87.58-1.29.2-.4.42-.78.66-1.16.23-.36.47-.7.73-1.03.25-.32.51-.62.79-.91.27-.28.55-.55.84-.8,1.58-1.37,3.5-2.31,5.51-2.85.99-.27,2.01-.44,3.03-.54.82-.08,1.66-.12,2.49-.12m0-.94c-.84,0-1.7.04-2.58.13-1.11.11-2.19.3-3.18.56-2.24.6-4.28,1.65-5.88,3.04-.31.27-.61.56-.9.86-.3.31-.58.64-.85.98-.28.35-.54.72-.78,1.11-.25.4-.49.81-.7,1.24-.22.44-.43.9-.61,1.38-.19.49-.36,1-.51,1.52-.15.53-.29,1.09-.4,1.66-.11.58-.2,1.2-.27,1.82-.07.64-.12,1.3-.14,1.98-.02.69-.02,1.41,0,2.14,0,.16.01.32.02.49-.44.1-.85.3-1.21.56-.67.5-1.11,1.29-1.16,2.11-.02.4.04.78.11,1.09.23,1.06.63,2.07,1.18,3l.16.26c.15.24.28.47.37.68.25.61.2,1.37.14,2.17-.03.43-.06.85-.05,1.28.02.94.27,1.64.78,2.12.5.48,1.12.63,1.69.68.89,3.53,2.46,6.61,4.57,8.93,2.5,2.74,5.86,4.54,9.24,4.92.26.03.53.04.8.04s.53,0,.8-.04c3.37-.38,6.74-2.17,9.24-4.92,2.11-2.32,3.68-5.39,4.57-8.93.57-.05,1.19-.2,1.69-.68.5-.48.76-1.18.78-2.12,0-.42-.02-.85-.05-1.28-.05-.8-.11-1.56.14-2.17.09-.22.23-.44.37-.68l.16-.26c.55-.93.95-1.94,1.18-3,.07-.31.13-.69.11-1.09-.05-.82-.48-1.61-1.15-2.11-.35-.26-.77-.45-1.21-.56.02-.43.04-.86.04-1.28,0-.7,0-1.39-.04-2.04-.04-.64-.1-1.28-.18-1.89-.08-.59-.18-1.18-.31-1.73-.12-.55-.26-1.08-.42-1.59-.16-.5-.33-.98-.53-1.45-.19-.45-.4-.89-.62-1.31-.22-.41-.46-.81-.71-1.18-.24-.36-.51-.72-.78-1.06-.27-.33-.55-.64-.84-.94-.28-.29-.58-.56-.89-.82-.3-.25-.61-.49-.93-.71-.31-.22-.63-.42-.95-.61-.31-.18-.64-.36-.96-.52-.31-.15-.64-.3-.96-.43-.31-.13-.63-.25-.95-.35-.31-.1-.62-.2-.93-.28-1.68-.46-3.52-.69-5.48-.69h0Z"/>
  </g>
  <path class="cls-2" d="m88.15,67.31c0,3.63,2.94,6.57,6.57,6.57s6.57-2.94,6.57-6.57-2.94-6.57-6.57-6.57-6.57,2.94-6.57,6.57Z"/>
</svg>