<svg width="73" height="73" viewBox="0 0 73 73" fill="none" xmlns="http://www.w3.org/2000/svg">
<g clip-path="url(#clip0_22_539)">
<path d="M26.2758 27.1818C36.7679 27.1818 45.303 35.7169 45.303 46.2091C45.303 56.7013 36.7679 65.2364 26.2758 65.2364C15.7836 65.2364 7.24848 56.7013 7.24848 46.2091C7.24848 35.7169 15.7836 27.1818 26.2758 27.1818ZM26.2758 19.9333C11.7607 19.9333 0 31.694 0 46.2091C0 60.7242 11.7607 72.4849 26.2758 72.4849C40.7908 72.4849 52.5515 60.7242 52.5515 46.2091C52.5515 31.694 40.7908 19.9333 26.2758 19.9333Z" fill="black"/>
<path d="M41.86 30.8061L65.6894 7.24854" stroke="black" stroke-width="7.24848" stroke-miterlimit="10"/>
<path d="M68.8606 24.1556V3.62427H48.9272" stroke="black" stroke-width="7.24848" stroke-miterlimit="10"/>
</g>
<defs>
<clipPath id="clip0_22_539">
<rect width="72.4848" height="72.4848" fill="white"/>
</clipPath>
</defs>
</svg>
