<svg width="73" height="73" viewBox="0 0 73 73" fill="none" xmlns="http://www.w3.org/2000/svg">
<g clip-path="url(#clip0_22_540)">
<path d="M35.3363 18.1213C42.8385 18.1213 48.9272 24.21 48.9272 31.7122C48.9272 39.2144 42.8385 45.3031 35.3363 45.3031C27.8342 45.3031 21.7454 39.2144 21.7454 31.7122C21.7454 24.21 27.8342 18.1213 35.3363 18.1213ZM35.3363 10.8728C23.8294 10.8728 14.4969 20.2052 14.4969 31.7122C14.4969 43.2192 23.8294 52.5516 35.3363 52.5516C46.8433 52.5516 56.1757 43.2192 56.1757 31.7122C56.1757 20.2052 46.8433 10.8728 35.3363 10.8728Z" fill="black"/>
<path d="M35.9344 48.9272V63.8772V72.4848" stroke="black" stroke-width="7.24848" stroke-miterlimit="10"/>
<path d="M25.0616 63.4243H46.8071" stroke="black" stroke-width="7.24848" stroke-miterlimit="10"/>
<path d="M55.4871 0C54.581 10.1479 46.0278 18.1212 35.6444 18.1212C25.2609 18.1212 16.7077 10.1479 15.8016 0H23.1045C23.9743 6.14309 29.2657 10.8727 35.6444 10.8727C42.023 10.8727 47.3144 6.14309 48.1842 0H55.4871Z" fill="black"/>
</g>
<defs>
<clipPath id="clip0_22_540">
<rect width="72.4848" height="72.4848" fill="white"/>
</clipPath>
</defs>
</svg>
