<svg width="73" height="73" viewBox="0 0 73 73" fill="none" xmlns="http://www.w3.org/2000/svg">
<g clip-path="url(#clip0_22_543)">
<path d="M43.4838 38.0544C43.4838 26.7106 50.0256 16.8707 59.5392 12.123C60.0648 11.8512 60.6084 11.5975 61.152 11.3619C63.8883 10.184 64.3051 6.41479 61.7319 4.91073C61.1701 4.58455 60.6084 4.27649 60.0285 3.98655C54.6103 1.21401 48.3947 -0.253812 41.8167 0.0361271C23.3874 0.869703 8.21996 15.9465 7.29578 34.3758C6.24475 55.2515 22.8438 72.4847 43.4838 72.4847C47.8692 72.4847 52.0552 71.7055 55.9331 70.2921C56.5311 70.0746 57.1291 69.839 57.7271 69.5853C60.4634 68.4075 60.5178 64.6201 57.9446 63.1342C57.4372 62.8261 56.9298 62.5181 56.4224 62.1919C48.6303 56.9911 43.4838 48.1298 43.4838 38.0725V38.0544ZM43.4838 65.2362C27.5009 65.2362 14.4899 52.2252 14.4899 36.2423C14.4899 20.2594 27.5009 7.24837 43.4838 7.24837C46.3107 7.24837 49.0471 7.66516 51.6203 8.42625C42.306 14.9861 36.2354 25.8045 36.2354 38.0544C36.2354 48.6916 40.8019 58.2415 48.0866 64.8557C46.5826 65.1094 45.0604 65.2362 43.4838 65.2362Z" fill="black"/>
</g>
<defs>
<clipPath id="clip0_22_543">
<rect width="72.4848" height="72.4848" fill="white"/>
</clipPath>
</defs>
</svg>
