<svg width="73" height="73" viewBox="0 0 73 73" fill="none" xmlns="http://www.w3.org/2000/svg">
<g clip-path="url(#clip0_22_537)">
<path d="M36.2424 7.24848C52.2253 7.24848 65.2364 20.2595 65.2364 36.2424C65.2364 52.2253 52.2253 65.2364 36.2424 65.2364C20.2595 65.2364 7.24848 52.2253 7.24848 36.2424C7.24848 20.2595 20.2595 7.24848 36.2424 7.24848ZM36.2424 0C16.2185 0 0 16.2185 0 36.2424C0 56.2664 16.2185 72.4848 36.2424 72.4848C56.2664 72.4848 72.4848 56.2664 72.4848 36.2424C72.4848 16.2185 56.2664 0 36.2424 0Z" fill="black"/>
<path d="M36.2424 28.9939C32.2376 28.9939 28.9939 32.2376 28.9939 36.2424C28.9939 40.2472 32.2376 43.4909 36.2424 43.4909C40.2472 43.4909 43.4909 40.2472 43.4909 36.2424C43.4909 32.2376 40.2472 28.9939 36.2424 28.9939Z" fill="black"/>
</g>
<defs>
<clipPath id="clip0_22_537">
<rect width="72.4848" height="72.4848" fill="white"/>
</clipPath>
</defs>
</svg>
