<svg width="73" height="73" viewBox="0 0 73 73" fill="none" xmlns="http://www.w3.org/2000/svg">
<g clip-path="url(#clip0_22_538)">
<path d="M35.9344 7.24848C46.4266 7.24848 54.9617 15.7836 54.9617 26.2758C54.9617 36.7679 46.4266 45.303 35.9344 45.303C25.4422 45.303 16.9071 36.7679 16.9071 26.2758C16.9071 15.7836 25.4422 7.24848 35.9344 7.24848ZM35.9344 0C21.4374 0 9.65863 11.7607 9.65863 26.2758C9.65863 40.7908 21.4193 52.5515 35.9344 52.5515C50.4495 52.5515 62.2101 40.7908 62.2101 26.2758C62.2101 11.7607 50.4495 0 35.9344 0Z" fill="black"/>
<path d="M35.9344 48.9272V63.8772V72.4848" stroke="black" stroke-width="7.24848" stroke-miterlimit="10"/>
<path d="M25.0616 63.4243H46.8071" stroke="black" stroke-width="7.24848" stroke-miterlimit="10"/>
</g>
<defs>
<clipPath id="clip0_22_538">
<rect width="72.4848" height="72.4848" fill="white"/>
</clipPath>
</defs>
</svg>
