<svg width="22" height="22" viewBox="0 0 22 22" fill="none" xmlns="http://www.w3.org/2000/svg">
<path d="M17.2113 15.9785C16.9233 15.6808 16.4485 15.673 16.1508 15.961C15.8531 16.249 15.8453 16.7238 16.1333 17.0215L17.2113 15.9785ZM16.1333 17.0215L20.4872 21.5215L21.5652 20.4785L17.2113 15.9785L16.1333 17.0215ZM19.8411 10C19.8411 4.63874 15.6299 0.25 10.3833 0.25V1.75C14.7552 1.75 18.3411 5.42013 18.3411 10H19.8411ZM10.3833 0.25C5.13671 0.25 0.925415 4.63874 0.925415 10H2.42542C2.42542 5.42013 6.01141 1.75 10.3833 1.75V0.25ZM0.925415 10C0.925415 15.3613 5.13671 19.75 10.3833 19.75V18.25C6.01141 18.25 2.42542 14.5799 2.42542 10H0.925415ZM10.3833 19.75C15.6299 19.75 19.8411 15.3613 19.8411 10H18.3411C18.3411 14.5799 14.7552 18.25 10.3833 18.25V19.75Z" fill="#BFAD81"/>
</svg>
