<svg width="73" height="73" viewBox="0 0 73 73" fill="none" xmlns="http://www.w3.org/2000/svg">
<g clip-path="url(#clip0_308_226)">
<path d="M35.3364 18.1212C42.8385 18.1212 48.9273 24.2099 48.9273 31.7121C48.9273 39.2143 42.8385 45.303 35.3364 45.303C27.8342 45.303 21.7454 39.2143 21.7454 31.7121C21.7454 24.2099 27.8342 18.1212 35.3364 18.1212ZM35.3364 10.8727C23.8294 10.8727 14.497 20.2051 14.497 31.7121C14.497 43.219 23.8294 52.5515 35.3364 52.5515C46.8433 52.5515 56.1758 43.219 56.1758 31.7121C56.1758 20.2051 46.8433 10.8727 35.3364 10.8727Z" fill="white"/>
<path d="M35.9345 48.9272V63.8772V72.4848" stroke="white" stroke-width="7.24848" stroke-miterlimit="10"/>
<path d="M25.0618 63.4242H46.8072" stroke="white" stroke-width="7.24848" stroke-miterlimit="10"/>
<path d="M55.4871 0C54.581 10.1479 46.0278 18.1212 35.6444 18.1212C25.2609 18.1212 16.7077 10.1479 15.8016 0H23.1045C23.9743 6.14309 29.2657 10.8727 35.6444 10.8727C42.023 10.8727 47.3144 6.14309 48.1842 0H55.4871Z" fill="white"/>
</g>
<defs>
<clipPath id="clip0_308_226">
<rect width="72.4848" height="72.4848" fill="white"/>
</clipPath>
</defs>
</svg>
