<svg width="73" height="73" viewBox="0 0 73 73" fill="none" xmlns="http://www.w3.org/2000/svg">
<g clip-path="url(#clip0_308_218)">
<path d="M43.4839 38.0546C43.4839 26.7107 50.0256 16.8709 59.5392 12.1231C60.0648 11.8513 60.6084 11.5976 61.152 11.362C63.8883 10.1841 64.3051 6.41492 61.7319 4.91085C61.1702 4.58467 60.6084 4.27661 60.0285 3.98667C54.6103 1.21413 48.3947 -0.25369 41.8167 0.0362491C23.3874 0.869825 8.21998 15.9467 7.2958 34.3759C6.24476 55.2516 22.8438 72.4848 43.4839 72.4848C47.8692 72.4848 52.0552 71.7056 55.9331 70.2922C56.5311 70.0747 57.1291 69.8391 57.7271 69.5855C60.4634 68.4076 60.5178 64.6202 57.9446 63.1343C57.4372 62.8262 56.9298 62.5182 56.4224 62.192C48.6303 56.9912 43.4839 48.1299 43.4839 38.0727V38.0546ZM43.4839 65.2364C27.5009 65.2364 14.4899 52.2253 14.4899 36.2424C14.4899 20.2595 27.5009 7.24849 43.4839 7.24849C46.3108 7.24849 49.0471 7.66528 51.6203 8.42637C42.306 14.9862 36.2354 25.8046 36.2354 38.0546C36.2354 48.6917 40.8019 58.2416 48.0866 64.8558C46.5826 65.1095 45.0604 65.2364 43.4839 65.2364Z" fill="white"/>
</g>
<defs>
<clipPath id="clip0_308_218">
<rect width="72.4848" height="72.4848" fill="white"/>
</clipPath>
</defs>
</svg>
