<svg width="73" height="73" viewBox="0 0 73 73" fill="none" xmlns="http://www.w3.org/2000/svg">
<g clip-path="url(#clip0_308_216)">
<path d="M35.9345 7.24848C46.4267 7.24848 54.9618 15.7836 54.9618 26.2758C54.9618 36.7679 46.4267 45.303 35.9345 45.303C25.4423 45.303 16.9072 36.7679 16.9072 26.2758C16.9072 15.7836 25.4423 7.24848 35.9345 7.24848ZM35.9345 0C21.4375 0 9.65875 11.7607 9.65875 26.2758C9.65875 40.7908 21.4194 52.5515 35.9345 52.5515C50.4496 52.5515 62.2103 40.7908 62.2103 26.2758C62.2103 11.7607 50.4496 0 35.9345 0Z" fill="white"/>
<path d="M35.9345 48.9272V63.8772V72.4848" stroke="white" stroke-width="7.24848" stroke-miterlimit="10"/>
<path d="M25.0618 63.4242H46.8072" stroke="white" stroke-width="7.24848" stroke-miterlimit="10"/>
</g>
<defs>
<clipPath id="clip0_308_216">
<rect width="72.4848" height="72.4848" fill="white"/>
</clipPath>
</defs>
</svg>
