<svg width="46" height="26" viewBox="0 0 46 26" fill="none" xmlns="http://www.w3.org/2000/svg">
<path d="M22.0709 3.68111C22.5738 3.01058 23.5796 3.01058 24.0825 3.68111L27.6029 8.37488C29.1116 10.3865 32.129 10.3865 33.6377 8.37488L36.9693 3.93271C37.4992 3.22621 38.5732 3.27183 39.0413 4.02072L43.3839 10.969C43.752 11.5578 44.5276 11.7368 45.1164 11.3688C45.7053 11.0008 45.8843 10.2251 45.5163 9.63633L41.1736 2.68803C39.7694 0.441349 36.5473 0.304488 34.9577 2.424L31.6261 6.86617C31.1232 7.5367 30.1174 7.5367 29.6145 6.86617L26.0941 2.17241C24.5854 0.160793 21.568 0.160794 20.0593 2.17241L16.539 6.86617C16.0361 7.5367 15.0303 7.5367 14.5274 6.86617L11.1958 2.424C9.60612 0.304488 6.38406 0.441349 4.97988 2.68803L0.637196 9.63633C0.269184 10.2251 0.448184 11.0008 1.037 11.3688C1.62582 11.7368 2.40149 11.5578 2.7695 10.969L7.11218 4.02072C7.58024 3.27183 8.65426 3.22621 9.18414 3.93271L12.5158 8.37488C14.0245 10.3865 17.0419 10.3865 18.5506 8.37488L22.0709 3.68111Z" fill="#BFAD81"/>
<path d="M22.0709 17.5109C22.5738 16.8404 23.5796 16.8404 24.0825 17.5109L27.6029 22.2047C29.1116 24.2163 32.129 24.2163 33.6377 22.2047L36.9693 17.7625C37.4992 17.056 38.5732 17.1017 39.0413 17.8506L43.3839 24.7988C43.752 25.3877 44.5276 25.5667 45.1164 25.1987C45.7053 24.8306 45.8843 24.055 45.5163 23.4662L41.1736 16.5179C39.7694 14.2712 36.5473 14.1343 34.9577 16.2538L31.6261 20.696C31.1232 21.3665 30.1174 21.3665 29.6145 20.696L26.0941 16.0022C24.5854 13.9906 21.568 13.9906 20.0593 16.0022L16.539 20.696C16.0361 21.3665 15.0303 21.3665 14.5274 20.696L11.1958 16.2538C9.60612 14.1343 6.38406 14.2712 4.97988 16.5179L0.637196 23.4662C0.269184 24.055 0.448184 24.8306 1.037 25.1987C1.62582 25.5667 2.40149 25.3877 2.7695 24.7988L7.11218 17.8506C7.58024 17.1017 8.65426 17.056 9.18414 17.7625L12.5158 22.2047C14.0245 24.2163 17.0419 24.2163 18.5506 22.2047L22.0709 17.5109Z" fill="#BFAD81"/>
</svg>
