<svg width="47" height="49" viewBox="0 0 47 49" fill="none" xmlns="http://www.w3.org/2000/svg">
<path d="M27.1237 6.5525C29.9499 3.22353 32.757 1.81882 34.9838 1.28298C36.0877 1.01735 37.0239 0.971279 37.7162 0.993965C38.0623 1.0053 38.3443 1.03373 38.5501 1.05908C38.6313 1.06909 38.7034 1.07901 38.7539 1.08595L38.7849 1.09021L38.7957 1.09166C40.4542 1.11075 42.3629 1.87053 43.8581 3.10332C45.3914 4.36754 46.6452 6.26314 46.6452 8.62061C46.6452 10.6373 46.2905 12.4822 45.2708 14.0196C44.2391 15.5752 42.6323 16.6579 40.4398 17.3466C39.7774 17.5547 39.0716 17.1863 38.8636 16.5239C38.6555 15.8614 39.0238 15.1557 39.6863 14.9476C41.4874 14.3819 42.5431 13.583 43.1753 12.6297C43.8197 11.6583 44.1306 10.3672 44.1306 8.62061C44.1306 7.21485 43.3876 5.97441 42.2585 5.04341C41.1104 4.09683 39.721 3.60581 38.7318 3.60581C38.6135 3.60581 38.4817 3.58689 38.4512 3.58252L38.4459 3.58177L38.4047 3.57612C38.3551 3.56931 38.3044 3.56234 38.2425 3.55472C38.0904 3.53597 37.886 3.51539 37.6339 3.50713C37.1299 3.49062 36.4231 3.52295 35.5721 3.72772C33.8892 4.13268 31.5392 5.2368 29.0406 8.17989C27.3088 10.2197 26.0425 12.9714 25.2098 15.6711C24.3772 18.3708 24.0145 20.8991 24.0145 22.4191V47.5074C24.0145 48.2018 23.4516 48.7647 22.7573 48.7647C22.0629 48.7647 21.5 48.2018 21.5 47.5074V22.3623C21.5 20.8295 21.1559 18.2884 20.3683 15.5784C19.5802 12.8665 18.3821 10.105 16.7465 8.06057C14.3879 5.1123 12.1808 4.01975 10.6211 3.62147C9.83113 3.41974 9.17668 3.38826 8.71193 3.40442C8.4793 3.41251 8.29074 3.43265 8.1501 3.45104C8.09271 3.45855 8.04605 3.46535 7.99939 3.47216L7.95977 3.47791L7.95637 3.47843C7.9318 3.48223 7.7947 3.5034 7.67018 3.5034C6.77781 3.5034 5.48998 3.97782 4.412 4.92106C3.3578 5.84348 2.64115 7.09253 2.64115 8.53243C2.64115 10.294 2.93739 11.6004 3.55014 12.5808C4.1469 13.5356 5.13395 14.3244 6.8105 14.8832C7.46923 15.1028 7.82524 15.8148 7.60566 16.4736C7.38608 17.1323 6.67407 17.4883 6.01534 17.2687C3.92012 16.5703 2.39265 15.4732 1.41784 13.9135C0.459018 12.3794 0.126633 10.5427 0.126633 8.53243C0.126633 6.20056 1.29587 4.30647 2.75618 3.02869C4.17181 1.79002 5.99412 1.01177 7.59921 0.989385L11.2432 1.18514C13.3761 1.72979 16.0396 3.15176 18.71 6.48976C20.6287 8.8882 21.9452 11.994 22.7829 14.8767C22.7895 14.8993 22.796 14.9219 22.8026 14.9445C22.804 14.9397 22.8055 14.9348 22.807 14.93C23.6959 12.0477 25.0921 8.94553 27.1237 6.5525Z" fill="#BFAD81"/>
</svg>
