<svg width="49" height="49" viewBox="0 0 49 49" fill="none" xmlns="http://www.w3.org/2000/svg">
<path fill-rule="evenodd" clip-rule="evenodd" d="M24.772 48.5075C34.3621 48.5075 42.6324 42.8561 46.4341 34.702C47.8263 32.9764 48.6597 30.7812 48.6597 28.3914C48.6597 22.8364 44.1566 18.3333 38.6017 18.3333C33.0468 18.3333 28.5436 22.8364 28.5436 28.3914C28.5436 33.9463 33.0468 38.4494 38.6017 38.4494C39.5706 38.4494 40.5075 38.3124 41.3941 38.0567C37.4757 42.8978 31.4853 45.993 24.772 45.993C19.7265 45.993 15.0893 44.2447 11.4333 41.3209C10.9044 40.723 10.2455 40.0295 9.95912 39.9236C9.71819 39.8345 9.46625 39.7856 9.24545 39.7856C8.55108 39.7856 7.98819 40.3484 7.98819 41.0428C7.98819 41.4486 8.18045 41.8095 8.47886 42.0394L8.43703 42.0496C12.709 46.0548 18.4541 48.5075 24.772 48.5075ZM44.3076 33.3259C45.4525 32.0031 46.1452 30.2781 46.1452 28.3914C46.1452 24.2252 42.7679 20.8478 38.6017 20.8478C34.4355 20.8478 31.0581 24.2252 31.0581 28.3914C31.0581 32.5575 34.4355 35.9349 38.6017 35.9349C40.8698 35.9349 42.9041 34.9339 44.287 33.3496L44.2963 33.3286L44.3076 33.3259Z" fill="#BFAD81"/>
<path fill-rule="evenodd" clip-rule="evenodd" d="M24.772 0.731689C34.1388 0.731689 42.2465 6.12289 46.1613 13.9716C46.1613 13.7409 46.1965 14.1254 46.1613 13.9716C46.1613 14.666 46.3003 15.8188 44.888 15.8188C44.1936 15.8188 43.6307 14.5615 43.6307 14.5615C43.6307 14.5555 43.6293 14.5496 43.6265 14.5444C40.0257 7.82015 32.933 3.2462 24.772 3.2462C16.5508 3.2462 9.41373 7.88782 5.83846 14.6934C7.33459 13.8107 9.07917 13.3043 10.942 13.3043C16.4969 13.3043 21.0001 17.8074 21.0001 23.3623C21.0001 28.9172 16.4969 33.4204 10.942 33.4204C5.92826 33.4204 1.77131 29.7518 1.00898 24.9526L0.886786 24.9823C0.88499 24.8616 0.884088 24.7407 0.884088 24.6196C0.884088 24.3649 0.888075 24.1111 0.895988 23.8583C0.888008 23.694 0.883972 23.5286 0.883972 23.3623C0.883972 22.5752 0.974379 21.8093 1.14537 21.0743C2.8581 9.56266 12.7837 0.731689 24.772 0.731689ZM3.41285 23.8317C3.65521 27.7793 6.93348 30.9059 10.942 30.9059C15.1082 30.9059 18.4856 27.5285 18.4856 23.3623C18.4856 19.1961 15.1082 15.8188 10.942 15.8188C7.39981 15.8188 4.42784 18.2602 3.61707 21.5522C3.50956 22.3002 3.44079 23.0608 3.41285 23.8317Z" fill="#BFAD81"/>
</svg>
