<svg width="49" height="46" viewBox="0 0 49 46" fill="none" xmlns="http://www.w3.org/2000/svg">
<path d="M1.81155 1.44385L3.74629 2.08876C4.95438 2.49146 6.05212 3.1699 6.95257 4.07035C8.49088 5.60866 9.3551 7.69506 9.3551 9.87056V10.2446M9.3551 27.8463V10.2446M9.3551 10.2446L13.4242 5.15821C14.0604 4.36308 14.8154 3.67087 15.6626 3.10603C17.2884 2.0222 19.1985 1.44385 21.1524 1.44385H22.401C23.7434 1.44385 25.0672 1.75637 26.2678 2.35668L26.9162 2.68083C28.5521 3.49882 29.7962 4.9332 30.3746 6.66841C30.609 7.37163 30.7285 8.10803 30.7285 8.84929V24.4993C30.7285 25.0533 30.7742 25.6064 30.8653 26.1528L31.4757 29.8152C31.6162 30.6583 31.8668 31.4738 32.2175 32.2423M32.2175 32.2423L34.0361 29.7417C34.345 29.3169 34.6868 28.9169 35.0583 28.5455L36.394 27.2098C37.5965 26.0073 39.2274 25.3317 40.9279 25.3317H40.9991C43.2072 25.3317 45.2534 26.4903 46.3895 28.3838C47.584 30.3745 47.584 32.8615 46.3895 34.8523C45.2534 36.7458 43.2072 37.9043 40.9991 37.9043H40.2019C38.1612 37.9043 36.2041 37.0937 34.7611 35.6507L34.1794 35.0689C33.357 34.2466 32.6946 33.288 32.2175 32.2423ZM32.2175 32.2423L25.2824 41.7781C24.7303 42.5371 24.004 43.1524 23.1646 43.5722C22.3511 43.9789 21.4542 44.1906 20.5448 44.1906H15.6414" stroke="#BFAD81" stroke-width="2" stroke-linecap="round"/>
</svg>
