<svg width="45" height="45" viewBox="0 0 45 45" fill="none" xmlns="http://www.w3.org/2000/svg">
<path fill-rule="evenodd" clip-rule="evenodd" d="M21.6641 0.246216C18.8074 0.246216 16.0677 1.38104 14.0477 3.40103C12.3997 5.04899 11.3307 7.187 11.0011 9.49414L10.6577 11.898C10.3274 14.2102 10.4488 16.5646 11.0153 18.8306L12.1828 23.5005C11.1745 23.0981 10.0743 22.8769 8.92245 22.8769C4.0619 22.8769 0.121643 26.8171 0.121643 31.6777C0.121643 36.5382 4.0619 40.4785 8.92245 40.4785C13.783 40.4785 17.7232 36.5382 17.7232 31.6777C17.7232 29.2686 16.7553 27.0856 15.1872 25.4964C15.1588 25.1528 15.1025 24.8117 15.0187 24.4766L13.4548 18.2208C12.9672 16.2703 12.8626 14.2438 13.1469 12.2536L13.4903 9.84975C13.743 8.0812 14.5624 6.44231 15.8257 5.17906C17.3741 3.63063 19.4742 2.76073 21.6641 2.76073H23.4144C24.4781 2.76073 25.5321 2.96371 26.5198 3.35877L26.8668 3.49758C29.1417 4.40755 30.8413 6.3546 31.4355 8.73161C32.2999 12.1893 32.1604 15.8217 31.0334 19.2029L29.0878 25.0396L27.0177 33.3201C26.6722 34.702 26.6379 36.1433 26.9173 37.54L27.0419 38.1633C27.6017 40.9623 29.5374 43.2893 32.1877 44.3495C34.2016 45.155 36.4481 45.155 38.462 44.3495L38.7028 44.2532C41.1868 43.2595 43.1074 41.2227 43.9535 38.6845L44.0611 38.3615C44.2807 37.7028 43.9247 36.9908 43.266 36.7712C42.6072 36.5516 41.8952 36.9076 41.6757 37.5664L41.568 37.8894C40.9558 39.7258 39.5662 41.1996 37.7689 41.9185L37.5281 42.0148C36.1137 42.5806 34.536 42.5806 33.1216 42.0148C31.2602 41.2703 29.9008 39.636 29.5076 37.6701L29.383 37.0469C29.1766 36.0152 29.202 34.9506 29.4571 33.9299L31.5038 25.7431L33.4189 19.998C34.6971 16.1632 34.8554 12.0433 33.875 8.12175C33.0849 4.96143 30.8253 2.37275 27.8007 1.16291L27.4536 1.0241C26.169 0.510232 24.798 0.246216 23.4144 0.246216H21.6641ZM15.523 31.6777C15.523 35.3231 12.5679 38.2783 8.92245 38.2783C5.27703 38.2783 2.32184 35.3231 2.32184 31.6777C2.32184 28.0322 5.27703 25.0771 8.92245 25.0771C12.5679 25.0771 15.523 28.0322 15.523 31.6777Z" fill="#BFAD81"/>
</svg>
