<svg width="44" height="43" viewBox="0 0 44 43" fill="none" xmlns="http://www.w3.org/2000/svg">
<path d="M30.453 31.1035C30.453 30.4091 31.0159 29.8462 31.7103 29.8462H31.6317C34.7639 27.0818 36.7393 23.037 36.7393 18.5309C36.7393 10.1986 29.9846 3.44384 21.6522 3.44384C13.3199 3.44384 6.56516 10.1986 6.56516 18.5309C6.56516 23.037 8.54063 27.0818 11.6728 29.8462H11.5942C12.2885 29.8462 12.8514 30.4091 12.8514 31.1035C12.8514 31.7979 12.2885 32.3608 11.5942 32.3608H1.53613C0.841773 32.3608 0.27887 31.7979 0.27887 31.1035C0.27887 30.4091 0.841773 29.8462 1.53613 29.8462H8.16915C5.59881 26.7867 4.05064 22.8396 4.05064 18.5309C4.05064 8.80982 11.9311 0.929321 21.6522 0.929321C31.3734 0.929321 39.2538 8.80982 39.2538 18.5309C39.2538 22.8396 37.7057 26.7867 35.1353 29.8462H41.7684C42.4627 29.8462 43.0256 30.4091 43.0256 31.1035C43.0256 31.7979 42.4627 32.3608 41.7684 32.3608H31.7103C31.0159 32.3608 30.453 31.7979 30.453 31.1035Z" fill="#BFAD81"/>
<path d="M1.53613 39.9043C0.841773 39.9043 0.27887 40.4672 0.27887 41.1616C0.27887 41.8559 0.841773 42.4188 1.53613 42.4188H41.7684C42.4627 42.4188 43.0256 41.8559 43.0256 41.1616C43.0256 40.4672 42.4627 39.9043 41.7684 39.9043H1.53613Z" fill="#BFAD81"/>
</svg>
