<svg width="44" height="43" viewBox="0 0 44 43" fill="none" xmlns="http://www.w3.org/2000/svg">
<path d="M43.2279 0.962524C43.1666 0.814236 43.0756 0.675308 42.9551 0.554766L42.0661 0.186523H21.9499C21.2556 0.186523 20.6927 0.749416 20.6927 1.44378C20.6927 2.13815 21.2556 2.70104 21.9499 2.70104H39.0308L15.6637 26.0682L7.75187 18.1564C7.26088 17.6654 6.46483 17.6654 5.97384 18.1564C5.48285 18.6474 5.48285 19.4434 5.97384 19.9344L13.8856 27.8462L0.944811 40.787C0.453821 41.278 0.453821 42.074 0.944811 42.565C1.4358 43.056 2.23185 43.056 2.72284 42.565L15.6637 29.6242L23.5754 37.536C24.0664 38.027 24.8625 38.027 25.3535 37.536C25.8445 37.045 25.8445 36.249 25.3535 35.758L17.4417 27.8462L40.8088 4.47907V20.3026C40.8088 20.997 41.3717 21.5599 42.0661 21.5599C42.7604 21.5599 43.3233 20.997 43.3233 20.3026V1.44378C43.3233 1.27331 43.2894 1.11076 43.2279 0.962524Z" fill="#BFAD81"/>
</svg>
