<svg width="45" height="44" viewBox="0 0 45 44" fill="none" xmlns="http://www.w3.org/2000/svg">
<path d="M3.02031 0.658425C2.58654 0.116217 1.79536 0.0283082 1.25315 0.462074C0.710944 0.89584 0.623035 1.68702 1.0568 2.22923L5.81033 8.17114V34.1325H8.32484V8.18746L12.4038 3.32264C12.9073 2.72217 13.8315 2.72357 14.3331 3.32556L18.3829 8.1853V34.1325H20.8974V8.1853L24.9606 3.30949C25.4632 2.70632 26.3897 2.70632 26.8923 3.30949L30.6641 7.83562C30.8524 8.06157 30.9555 8.34638 30.9555 8.6405V27.8419L30.9555 27.8462V33.7519C30.9555 35.0681 31.3451 36.3548 32.0752 37.45C33.3117 39.3047 35.3933 40.4188 37.6224 40.4188H39.7563V43.5835C39.7563 43.8075 40.0271 43.9197 40.1855 43.7613L44.6075 39.3394C44.7057 39.2411 44.7057 39.0819 44.6075 38.9837L40.1855 34.5618C40.0271 34.4034 39.7563 34.5156 39.7563 34.7396V37.9043H37.6224C36.234 37.9043 34.9375 37.2104 34.1674 36.0552C33.7126 35.3731 33.47 34.5716 33.47 33.7519L33.47 8.6405C33.47 7.75814 33.1606 6.90371 32.5958 6.22587L28.824 1.69974C27.3161 -0.109784 24.5368 -0.109789 23.0289 1.69974L19.6402 5.76622L16.2648 1.7158C14.7598 -0.0901581 11.9874 -0.0943515 10.477 1.70705L7.09042 5.74607L3.02031 0.658425Z" fill="#BFAD81"/>
</svg>
