<svg width="49" height="44" viewBox="0 0 49 44" fill="none" xmlns="http://www.w3.org/2000/svg">
<path fill-rule="evenodd" clip-rule="evenodd" d="M0.611359 1.76068C0.611359 1.06631 1.17425 0.503418 1.86862 0.503418H2.83175C6.56308 0.503418 10.1833 1.77333 13.097 4.10427C14.6221 5.32438 15.9175 6.80662 16.9224 8.48142L18.0129 10.2989C18.9097 11.7935 19.6401 13.3817 20.1913 15.0351L20.5656 16.158C21.8124 15.7887 23.1327 15.5905 24.4992 15.5905C25.8658 15.5905 27.1861 15.7887 28.4329 16.158L28.8072 15.0351C29.3584 13.3817 30.0888 11.7935 30.9856 10.2989L32.0761 8.48142C33.081 6.80662 34.3764 5.32438 35.9015 4.10427C38.8152 1.77333 42.4354 0.503418 46.1667 0.503418H47.1299C47.8242 0.503418 48.3871 1.06631 48.3871 1.76068C48.3871 2.45504 47.8242 3.01793 47.1299 3.01793H46.1667C43.0064 3.01793 39.9401 4.09352 37.4723 6.06778C36.1805 7.10119 35.0834 8.35661 34.2323 9.77513L33.1417 11.5926C32.3394 12.9299 31.6858 14.3509 31.1927 15.8303L30.7722 17.0917C35.2574 19.3784 38.3291 24.0406 38.3291 29.4203C38.3291 37.0583 32.1373 43.2502 24.4992 43.2502C16.8612 43.2502 10.6694 37.0583 10.6694 29.4203C10.6694 24.0406 13.7411 19.3784 18.2263 17.0917L17.8058 15.8303C17.3127 14.3509 16.6591 12.9299 15.8568 11.5926L14.7662 9.77513C13.9151 8.35661 12.8179 7.10119 11.5262 6.06778C9.05836 4.09352 5.9921 3.01793 2.83175 3.01793H1.86862C1.17425 3.01793 0.611359 2.45504 0.611359 1.76068ZM24.4992 40.7357C30.7485 40.7357 35.8146 35.6696 35.8146 29.4203C35.8146 23.1711 30.7485 18.105 24.4992 18.105C18.25 18.105 13.1839 23.1711 13.1839 29.4203C13.1839 35.6696 18.25 40.7357 24.4992 40.7357Z" fill="#BFAD81"/>
</svg>
