<svg width="47" height="42" viewBox="0 0 47 42" fill="none" xmlns="http://www.w3.org/2000/svg">
<path fill-rule="evenodd" clip-rule="evenodd" d="M0.831154 0.778969C1.37336 0.345203 2.16454 0.433112 2.59831 0.975319L6.66843 6.06296L10.055 2.02395C11.5654 0.222543 14.3379 0.226736 15.8428 2.0327L19.2182 6.08311L22.6069 2.01663C24.1148 0.207105 26.8941 0.20711 28.402 2.01663L32.1738 6.54276C32.7386 7.2206 33.048 8.07503 33.048 8.95739V11.3234C33.8893 10.517 34.6186 9.8703 35.3032 9.38129C36.5996 8.45531 37.7949 8.04701 39.3343 8.04701C40.3287 8.04701 41.457 8.51627 42.4604 9.29165C43.4931 10.0897 44.4864 11.2789 45.1979 12.8797C46.6302 16.1025 46.8751 20.8684 44.2734 27.3728C42.3747 32.1195 39.3514 35.286 36.181 37.3395C37.5083 38.3819 39.3731 39.1956 41.9876 39.4861C42.6777 39.5628 43.175 40.1844 43.0984 40.8745C43.0217 41.5647 42.4001 42.0619 41.7099 41.9853C38.1571 41.5905 35.6134 40.3248 33.8541 38.6478C30.6452 40.1992 27.5285 40.7357 25.5044 40.7357C24.8101 40.7357 24.2472 40.1728 24.2472 39.4784C24.2472 38.7841 24.8101 38.2212 25.5044 38.2212C27.1191 38.2212 29.5982 37.8098 32.2122 36.641C32.2093 36.6364 32.2064 36.6317 32.2035 36.6271C30.6084 34.0889 30.3129 31.2522 30.5335 29.345V8.95739C30.5335 8.66327 30.4304 8.37846 30.2421 8.15251L26.4703 3.62638C25.9677 3.02321 25.0412 3.02321 24.5386 3.62638L20.4754 8.5022V34.4494C20.4754 35.1438 19.9125 35.7067 19.2182 35.7067C18.5238 35.7067 17.9609 35.1438 17.9609 34.4494V8.5022L13.9111 3.64245C13.4095 3.04046 12.4853 3.03907 11.9819 3.63953L7.90284 8.50435V34.4494C7.90284 35.1438 7.33995 35.7067 6.64559 35.7067C5.95122 35.7067 5.38833 35.1438 5.38833 34.4494V8.48803L0.634804 2.54612C0.201038 2.00392 0.288947 1.21273 0.831154 0.778969ZM33.048 29.4363C33.0482 29.4246 33.0482 29.4129 33.048 29.4013L33.048 14.8542C34.7529 13.1512 35.8356 12.0911 36.7647 11.4274C37.6686 10.7819 38.3592 10.5615 39.3343 10.5615C39.5971 10.5615 40.1976 10.7209 40.9229 11.2813C41.6189 11.8192 42.3543 12.6729 42.9001 13.901C43.9823 16.3359 44.366 20.3708 41.9387 26.4389C40.1901 30.8105 37.3607 33.661 34.4437 35.4612C34.4057 35.404 34.3686 35.3466 34.3325 35.2891C33.3644 33.7486 33.0118 32.0412 32.9849 30.6776H33.048V29.4363Z" fill="#BFAD81"/>
</svg>
