<svg width="103" height="98" viewBox="0 0 103 98" fill="none" xmlns="http://www.w3.org/2000/svg">
<path d="M71.1094 67.9274C81.9488 57.0792 81.9488 39.4907 71.1095 28.6424C60.2701 17.7942 42.696 17.7942 31.8567 28.6425C21.0173 39.4907 21.0174 57.0791 31.8567 67.9274C42.6961 78.7756 60.2701 78.7757 71.1094 67.9274Z" stroke="white" stroke-miterlimit="10" stroke-linecap="round"/>
<path d="M51.4741 75.6903L63.1699 55.439L74.8485 35.1704H51.4741H28.0999L39.7957 55.439L51.4741 75.6903Z" stroke="white" stroke-linecap="round" stroke-linejoin="round"/>
<path d="M50.6634 20.2021C49.5377 17.9972 47.8801 16.1083 45.8408 14.7065C43.8016 13.3047 41.4451 12.4343 38.9848 12.174C36.521 11.9556 34.0387 12.2425 31.6895 13.0173C29.3403 13.7921 27.1738 15.0384 25.3225 16.6801C20.3717 20.979 17.8531 27.3496 15.093 33.3058C12.333 39.2621 7.91685 45.391 2.01721 48.2742" stroke="white" stroke-miterlimit="10" stroke-linecap="round"/>
<path d="M50.6634 76.3635C49.534 78.5674 47.8728 80.4543 45.8305 81.8531C43.7881 83.252 41.4292 84.1186 38.9676 84.3743C36.5049 84.5961 34.023 84.3124 31.6738 83.5405C29.3245 82.7687 27.1574 81.525 25.3053 79.8855C20.3544 75.5694 17.8359 69.216 15.0758 63.2425C12.3158 57.269 7.89964 51.1573 2 48.2914" stroke="white" stroke-miterlimit="10" stroke-linecap="round"/>
<path d="M52.2849 20.2021C53.4169 17.9881 55.0851 16.0934 57.1372 14.691C59.1894 13.2886 61.56 12.4232 64.0324 12.174C66.4962 11.9556 68.9787 12.2425 71.3278 13.0173C73.677 13.7921 75.8434 15.0384 77.6947 16.6801C82.6456 20.979 85.1641 27.3496 87.9242 33.3058C90.6843 39.2621 95.1004 45.391 101 48.2742" stroke="white" stroke-miterlimit="10" stroke-linecap="round"/>
<path d="M52.2849 76.3636C53.4125 78.584 55.0789 80.4857 57.1313 81.8943C59.1838 83.3029 61.5566 84.1735 64.0324 84.4262C66.4951 84.648 68.977 84.3643 71.3263 83.5924C73.6755 82.8206 75.8426 81.5768 77.6947 79.9374C82.6456 75.6213 85.1641 69.2679 87.9242 63.2944C90.6843 57.3208 95.1004 51.2092 101 48.3433" stroke="white" stroke-miterlimit="10" stroke-linecap="round"/>
</svg>
