<svg width="109" height="87" viewBox="0 0 109 87" fill="none" xmlns="http://www.w3.org/2000/svg">
<path d="M75.8779 64.9381C87.6826 53.1238 87.6826 33.9689 75.878 22.1546C64.0733 10.3402 44.9341 10.3402 33.1294 22.1546C21.3248 33.9689 21.3248 53.1237 33.1295 64.9381C44.9342 76.7525 64.0733 76.7525 75.8779 64.9381Z" stroke="white" stroke-miterlimit="10" stroke-linecap="round"/>
<path d="M54.4939 73.3923L67.2313 51.3375L79.9499 29.2638H54.4939H29.038L41.7754 51.3375L54.4939 73.3923Z" stroke="white" stroke-linecap="round" stroke-linejoin="round"/>
<path d="M53.611 12.9624C52.385 10.5613 50.5799 8.50417 48.359 6.97751C46.1381 5.45085 43.5717 4.50288 40.8924 4.21948C38.2092 3.98155 35.5058 4.29405 32.9474 5.13784C30.389 5.98163 28.0295 7.33897 26.0134 9.12682C20.6216 13.8085 17.8788 20.7465 14.8729 27.2332C11.867 33.7199 7.05761 40.3947 0.632568 43.5346" stroke="white" stroke-miterlimit="10" stroke-linecap="round"/>
<path d="M53.611 74.1256C52.381 76.5257 50.5719 78.5806 48.3477 80.1041C46.1234 81.6275 43.5544 82.5712 40.8736 82.8497C38.1916 83.0913 35.4887 82.7823 32.9302 81.9417C30.3717 81.1012 28.0117 79.7467 25.9946 77.9612C20.6028 73.2607 17.86 66.3415 14.8541 59.836C11.8482 53.3305 7.03881 46.6746 0.61377 43.5534" stroke="white" stroke-miterlimit="10" stroke-linecap="round"/>
<path d="M55.377 12.9624C56.6097 10.5513 58.4265 8.48784 60.6614 6.96055C62.8963 5.43326 65.4781 4.49087 68.1707 4.21948C70.8539 3.98155 73.5574 4.29405 76.1158 5.13784C78.6742 5.98163 81.0335 7.33897 83.0497 9.12682C88.4414 13.8085 91.1843 20.7465 94.1902 27.2332C97.196 33.7199 102.005 40.3947 108.43 43.5346" stroke="white" stroke-miterlimit="10" stroke-linecap="round"/>
<path d="M55.377 74.1256C56.6049 76.5437 58.4197 78.6147 60.655 80.1488C62.8902 81.6829 65.4743 82.631 68.1707 82.9061C70.8526 83.1477 73.5556 82.8387 76.1141 81.9981C78.6725 81.1576 81.0326 79.8031 83.0497 78.0176C88.4414 73.3171 91.1843 66.3979 94.1902 59.8924C97.196 53.3869 102.005 46.7309 108.43 43.6098" stroke="white" stroke-miterlimit="10" stroke-linecap="round"/>
</svg>
