<svg width="105" height="106" viewBox="0 0 105 106" fill="none" xmlns="http://www.w3.org/2000/svg">
<path d="M61.3164 89.5383C81.4319 84.7421 93.854 64.5338 89.0618 44.4017C84.2696 24.2696 64.0778 11.8374 43.9622 16.6335C23.8466 21.4297 11.4245 41.638 16.2167 61.7701C21.0089 81.9022 41.2008 94.3344 61.3164 89.5383Z" stroke="white" stroke-miterlimit="10" stroke-linecap="round"/>
<path d="M52.6374 90.0593L68.3994 62.7399L84.1614 35.4016H52.6374H21.0945L36.8753 62.7399L52.6374 90.0593Z" stroke="white" stroke-linecap="round" stroke-linejoin="round"/>
<path d="M61.1853 15.509C62.0015 13.969 62.1833 12.1704 61.6918 10.4979C61.2003 8.82548 60.0745 7.41182 58.5552 6.55926C52.9192 3.19368 52.6374 1.12546 52.6374 1.12546" stroke="white" stroke-miterlimit="10" stroke-linecap="round"/>
<path d="M44.0894 15.509C43.2683 13.97 43.0838 12.1697 43.5757 10.4958C44.0677 8.82196 45.1966 7.40833 46.7196 6.55926C52.3556 3.19368 52.6374 1.12546 52.6374 1.12546" stroke="white" stroke-miterlimit="10" stroke-linecap="round"/>
<path d="M41.3466 16.2987C41.2829 14.5548 40.5394 12.9052 39.2752 11.7032C38.0111 10.5013 36.3269 9.84266 34.5834 9.8684C28.0644 9.8684 26.7494 8.13861 26.7494 8.13861" stroke="white" stroke-miterlimit="10" stroke-linecap="round"/>
<path d="M26.5427 24.8725C25.063 23.9513 24.0037 22.4856 23.5927 20.7908C23.1816 19.096 23.4516 17.3075 24.3446 15.8099C27.5008 10.1692 26.7306 8.13861 26.7306 8.13861" stroke="white" stroke-miterlimit="10" stroke-linecap="round"/>
<path d="M24.5701 26.9407C23.6431 25.4617 22.174 24.405 20.4777 23.9973C18.7815 23.5896 16.9931 23.8633 15.4961 24.7597C9.86011 27.9372 7.83118 27.1851 7.83118 27.1851" stroke="white" stroke-miterlimit="10" stroke-linecap="round"/>
<path d="M16.0409 41.7755C14.2984 41.7167 12.6482 40.9772 11.4438 39.7156C10.2394 38.4539 9.57649 36.7704 9.59713 35.0256C9.46562 28.5013 7.83118 27.1851 7.83118 27.1851" stroke="white" stroke-miterlimit="10" stroke-linecap="round"/>
<path d="M15.3646 44.5582C13.8236 43.7429 12.0248 43.5638 10.3534 44.0593C8.68201 44.5548 7.27094 45.6855 6.42223 47.2093C3.0782 52.85 1.01166 53.1508 1.01166 53.1508" stroke="white" stroke-miterlimit="10" stroke-linecap="round"/>
<path d="M15.4023 61.6682C13.8667 62.4915 12.0696 62.679 10.3974 62.1903C8.72521 61.7015 7.31132 60.5757 6.45978 59.0547C3.07818 53.4141 1.01166 53.1508 1.01166 53.1508" stroke="white" stroke-miterlimit="10" stroke-linecap="round"/>
<path d="M16.21 64.4133C14.4675 64.4818 12.8212 65.2307 11.6237 66.4994C10.4263 67.7682 9.77295 69.4558 9.80377 71.2008C9.70984 77.7251 8.09418 79.0413 8.09418 79.0413" stroke="white" stroke-miterlimit="10" stroke-linecap="round"/>
<path d="M24.8143 79.1917C23.8966 80.6751 22.435 81.7399 20.7426 82.1581C19.0501 82.5763 17.2613 82.3146 15.7592 81.4291C10.1232 78.2892 8.09418 79.0601 8.09418 79.0601" stroke="white" stroke-miterlimit="10" stroke-linecap="round"/>
<path d="M26.956 81.1659C25.4831 82.1031 24.4347 83.5795 24.0345 85.2798C23.6344 86.98 23.9142 88.7695 24.8143 90.2661C28.008 95.9067 27.2566 97.9186 27.2566 97.9186" stroke="white" stroke-miterlimit="10" stroke-linecap="round"/>
<path d="M41.7411 89.6644C41.6871 91.4084 40.953 93.0619 39.6959 94.2708C38.4388 95.4797 36.7588 96.1479 35.0155 96.1323C28.4965 96.264 27.1814 98.0126 27.1814 98.0126" stroke="white" stroke-miterlimit="10" stroke-linecap="round"/>
<path d="M44.5027 90.3225C43.6959 91.8703 43.5253 93.6723 44.0271 95.3443C44.529 97.0162 45.6637 98.4258 47.1892 99.2723C52.8252 102.6 53.1446 104.669 53.1446 104.669" stroke="white" stroke-miterlimit="10" stroke-linecap="round"/>
<path d="M61.6174 90.2285C62.4425 91.7659 62.6332 93.5655 62.1486 95.2419C61.664 96.9183 60.5427 98.3381 59.0248 99.1971C53.3888 102.6 53.1446 104.668 53.1446 104.668" stroke="white" stroke-miterlimit="10" stroke-linecap="round"/>
<path d="M64.3414 89.42C64.4148 91.1639 65.1677 92.8097 66.4389 94.0047C67.7102 95.1996 69.3985 95.8487 71.1422 95.8127C77.6612 95.8127 78.9951 97.5049 78.9951 97.5049" stroke="white" stroke-miterlimit="10" stroke-linecap="round"/>
<path d="M79.1078 80.7711C80.5938 81.6862 81.6609 83.1491 82.0791 84.8444C82.4973 86.5397 82.2331 88.3315 81.3434 89.8337C78.2248 95.4743 78.9951 97.5049 78.9951 97.5049" stroke="white" stroke-miterlimit="10" stroke-linecap="round"/>
<path d="M81.0616 78.7028C82.0008 80.1744 83.4788 81.2191 85.1786 81.6128C86.8784 82.0064 88.6647 81.7178 90.1544 80.8087C95.7904 77.6123 97.7818 78.3456 97.7818 78.3456" stroke="white" stroke-miterlimit="10" stroke-linecap="round"/>
<path d="M89.4968 63.8116C91.241 63.8559 92.8978 64.5844 94.1102 65.84C95.3227 67.0957 95.9935 68.7779 95.9782 70.5239C96.1473 77.0482 97.8569 78.3456 97.8569 78.3456" stroke="white" stroke-miterlimit="10" stroke-linecap="round"/>
<path d="M90.1731 61.1041C91.7191 61.9092 93.5185 62.0766 95.1863 61.5706C96.8541 61.0646 98.2577 59.9253 99.0968 58.3966C102.403 52.756 104.47 52.4175 104.47 52.4175" stroke="white" stroke-miterlimit="10" stroke-linecap="round"/>
<path d="M90.0229 43.919C91.5535 43.0852 93.3499 42.886 95.0258 43.3642C96.7016 43.8424 98.123 44.9598 98.9841 46.4761C102.384 52.1167 104.47 52.3423 104.47 52.3423" stroke="white" stroke-miterlimit="10" stroke-linecap="round"/>
<path d="M89.1962 41.1739C90.9387 41.0957 92.5813 40.3374 93.7718 39.0616C94.9623 37.7857 95.6059 36.0939 95.5649 34.3487C95.5649 27.8244 97.2369 26.4894 97.2369 26.4894" stroke="white" stroke-miterlimit="10" stroke-linecap="round"/>
<path d="M80.498 26.4331C81.4096 24.9433 82.8685 23.8707 84.5615 23.4453C86.2544 23.02 88.0466 23.2759 89.5532 24.158C95.2831 27.2604 97.2369 26.4895 97.2369 26.4895" stroke="white" stroke-miterlimit="10" stroke-linecap="round"/>
<path d="M78.4315 24.4776C79.9019 23.5377 80.9457 22.0585 81.339 20.3572C81.7324 18.656 81.4439 16.8683 80.5356 15.3774C77.3043 9.73679 78.037 7.74377 78.037 7.74377" stroke="white" stroke-miterlimit="10" stroke-linecap="round"/>
<path d="M63.5336 16.0731C63.5728 14.3373 64.2882 12.6855 65.5271 11.4702C66.7661 10.2548 68.4305 9.57205 70.1653 9.56759C76.6843 9.37956 77.9806 7.68738 77.9806 7.68738" stroke="white" stroke-miterlimit="10" stroke-linecap="round"/>
<path d="M52.6374 16.4492L36.8753 43.7874L21.0945 71.1256H52.6374H84.1614L68.3994 43.7874L52.6374 16.4492Z" stroke="white" stroke-linecap="round" stroke-linejoin="round"/>
</svg>
