<svg width="103" height="98" viewBox="0 0 103 98" fill="none" xmlns="http://www.w3.org/2000/svg">
<path d="M59.3291 82.1181C77.785 77.7177 89.1822 59.1767 84.7853 40.7056C80.3885 22.2346 61.8627 10.8281 43.4068 15.2285C24.9509 19.6289 13.5537 38.1699 17.9505 56.641C22.3473 75.112 40.8732 86.5185 59.3291 82.1181Z" stroke="white" stroke-miterlimit="10" stroke-linecap="round"/>
<path d="M51.3662 82.5962L65.8277 57.5309L80.2893 32.4482H51.3662H22.4259L36.9047 57.5309L51.3662 82.5962Z" stroke="white" stroke-linecap="round" stroke-linejoin="round"/>
<path d="M59.2089 14.1968C59.9577 12.7838 60.1245 11.1337 59.6736 9.59919C59.2226 8.06471 58.1897 6.76769 56.7957 5.98547C51.6247 2.89758 51.3662 1 51.3662 1" stroke="white" stroke-miterlimit="10" stroke-linecap="round"/>
<path d="M43.5235 14.1968C42.7701 12.7847 42.6008 11.133 43.0522 9.59725C43.5035 8.06148 44.5393 6.76449 45.9366 5.98547C51.1076 2.89758 51.3662 1 51.3662 1" stroke="white" stroke-miterlimit="10" stroke-linecap="round"/>
<path d="M41.0071 14.9214C40.9487 13.3214 40.2665 11.8078 39.1066 10.7051C37.9468 9.60232 36.4015 8.99802 34.8019 9.02164C28.8208 9.02164 27.6143 7.43457 27.6143 7.43457" stroke="white" stroke-miterlimit="10" stroke-linecap="round"/>
<path d="M27.4246 22.7878C26.067 21.9426 25.0951 20.5979 24.718 19.0429C24.3408 17.4879 24.5886 15.8469 25.4079 14.4729C28.3037 9.29766 27.597 7.43457 27.597 7.43457" stroke="white" stroke-miterlimit="10" stroke-linecap="round"/>
<path d="M25.6148 24.6853C24.7643 23.3283 23.4164 22.3589 21.8601 21.9848C20.3038 21.6107 18.663 21.8618 17.2895 22.6842C12.1185 25.5996 10.257 24.9096 10.257 24.9096" stroke="white" stroke-miterlimit="10" stroke-linecap="round"/>
<path d="M17.7894 38.2961C16.1906 38.2421 14.6766 37.5637 13.5715 36.4061C12.4665 35.2486 11.8583 33.704 11.8772 32.1031C11.7565 26.1171 10.257 24.9095 10.257 24.9095" stroke="white" stroke-miterlimit="10" stroke-linecap="round"/>
<path d="M17.1688 40.8492C15.7548 40.1011 14.1045 39.9368 12.571 40.3914C11.0375 40.846 9.74284 41.8834 8.96416 43.2815C5.89604 48.4568 4 48.7328 4 48.7328" stroke="white" stroke-miterlimit="10" stroke-linecap="round"/>
<path d="M17.2033 56.5475C15.7944 57.3029 14.1456 57.4749 12.6114 57.0265C11.0771 56.5781 9.77989 55.5452 8.99861 54.1497C5.89602 48.9744 4 48.7329 4 48.7329" stroke="white" stroke-miterlimit="10" stroke-linecap="round"/>
<path d="M17.9444 59.0662C16.3457 59.1291 14.8352 59.8161 13.7365 60.9802C12.6378 62.1442 12.0384 63.6927 12.0667 65.2937C11.9805 71.2797 10.4982 72.4873 10.4982 72.4873" stroke="white" stroke-miterlimit="10" stroke-linecap="round"/>
<path d="M25.8388 72.6252C24.9968 73.9862 23.6558 74.9632 22.103 75.3468C20.5501 75.7305 18.9089 75.4905 17.5307 74.678C12.3598 71.7972 10.4982 72.5044 10.4982 72.5044" stroke="white" stroke-miterlimit="10" stroke-linecap="round"/>
<path d="M27.8037 74.4365C26.4524 75.2964 25.4904 76.651 25.1233 78.211C24.7562 79.771 25.0129 81.4128 25.8387 82.7859C28.7689 87.9611 28.0795 89.807 28.0795 89.807" stroke="white" stroke-miterlimit="10" stroke-linecap="round"/>
<path d="M41.369 82.2339C41.3195 83.834 40.646 85.351 39.4926 86.4602C38.3392 87.5694 36.7978 88.1825 35.1983 88.1682C29.2172 88.2889 28.0106 89.8932 28.0106 89.8932" stroke="white" stroke-miterlimit="10" stroke-linecap="round"/>
<path d="M43.9027 82.8376C43.1625 84.2577 43.0059 85.9111 43.4664 87.4451C43.9268 88.9791 44.9679 90.2723 46.3675 91.049C51.5385 94.1024 51.8316 96 51.8316 96" stroke="white" stroke-miterlimit="10" stroke-linecap="round"/>
<path d="M59.6053 82.7513C60.3623 84.1619 60.5373 85.813 60.0926 87.3511C59.648 88.8892 58.6192 90.1918 57.2266 90.9799C52.0556 94.1023 51.8315 95.9999 51.8315 95.9999" stroke="white" stroke-miterlimit="10" stroke-linecap="round"/>
<path d="M62.1046 82.0095C62.1719 83.6096 62.8627 85.1196 64.0291 86.2159C65.1954 87.3123 66.7445 87.9078 68.3443 87.8748C74.3254 87.8748 75.5492 89.4274 75.5492 89.4274" stroke="white" stroke-miterlimit="10" stroke-linecap="round"/>
<path d="M75.6527 74.0742C77.0161 74.9138 77.9951 76.256 78.3788 77.8115C78.7625 79.3669 78.5201 81.0109 77.7039 82.3891C74.8426 87.5643 75.5493 89.4274 75.5493 89.4274" stroke="white" stroke-miterlimit="10" stroke-linecap="round"/>
<path d="M77.4452 72.1767C78.3069 73.5268 79.663 74.4853 81.2225 74.8465C82.7821 75.2077 84.421 74.9428 85.7878 74.1088C90.9588 71.1761 92.7858 71.8489 92.7858 71.8489" stroke="white" stroke-miterlimit="10" stroke-linecap="round"/>
<path d="M85.1844 58.514C86.7847 58.5547 88.3048 59.2231 89.4172 60.3751C90.5296 61.5272 91.1451 63.0706 91.1311 64.6726C91.2862 70.6586 92.8547 71.8489 92.8547 71.8489" stroke="white" stroke-miterlimit="10" stroke-linecap="round"/>
<path d="M85.8051 56.03C87.2235 56.7687 88.8745 56.9223 90.4046 56.458C91.9348 55.9938 93.2226 54.9485 93.9925 53.5459C97.0261 48.3707 98.9222 48.0602 98.9222 48.0602" stroke="white" stroke-miterlimit="10" stroke-linecap="round"/>
<path d="M85.6671 40.2629C87.0714 39.4979 88.7196 39.3151 90.2572 39.7538C91.7948 40.1926 93.0989 41.2178 93.889 42.609C97.0088 47.7842 98.9221 47.9912 98.9221 47.9912" stroke="white" stroke-miterlimit="10" stroke-linecap="round"/>
<path d="M84.9088 37.7441C86.5075 37.6724 88.0145 36.9766 89.1068 35.8061C90.1991 34.6355 90.7897 33.0833 90.752 31.4821C90.752 25.496 92.2861 24.2712 92.2861 24.2712" stroke="white" stroke-miterlimit="10" stroke-linecap="round"/>
<path d="M76.9282 24.2196C77.7647 22.8528 79.1032 21.8686 80.6564 21.4784C82.2097 21.0881 83.854 21.3229 85.2363 22.1323C90.4935 24.9786 92.2861 24.2714 92.2861 24.2714" stroke="white" stroke-miterlimit="10" stroke-linecap="round"/>
<path d="M75.0321 22.4253C76.3812 21.5629 77.3389 20.2058 77.6998 18.6449C78.0607 17.0841 77.796 15.4438 76.9626 14.076C73.9979 8.90072 74.6702 7.07214 74.6702 7.07214" stroke="white" stroke-miterlimit="10" stroke-linecap="round"/>
<path d="M61.3635 14.7144C61.3995 13.1218 62.0558 11.6063 63.1926 10.4912C64.3293 9.37609 65.8564 8.74968 67.4481 8.74558C73.4292 8.57308 74.6185 7.02051 74.6185 7.02051" stroke="white" stroke-miterlimit="10" stroke-linecap="round"/>
<path d="M51.3662 15.0593L36.9047 40.1419L22.4259 65.2246H51.3662H80.2893L65.8277 40.1419L51.3662 15.0593Z" stroke="white" stroke-linecap="round" stroke-linejoin="round"/>
</svg>
