<svg width="105" height="106" viewBox="0 0 105 106" fill="none" xmlns="http://www.w3.org/2000/svg">
<path d="M52.1433 90.5669C72.8218 90.5669 89.5852 73.7899 89.5852 53.0944C89.5852 32.3989 72.8218 15.6219 52.1433 15.6219C31.4647 15.6219 14.7015 32.3989 14.7015 53.0944C14.7015 73.7899 31.4647 90.5669 52.1433 90.5669Z" stroke="white" stroke-miterlimit="10" stroke-linecap="round"/>
<path d="M52.1433 90.0593L67.9053 62.7399L83.6674 35.4016H52.1433H20.6005L36.3813 62.7399L52.1433 90.0593Z" stroke="white" stroke-linecap="round" stroke-linejoin="round"/>
<path d="M60.6913 15.509C61.5075 13.969 61.6893 12.1704 61.1978 10.4979C60.7063 8.82548 59.5805 7.41182 58.0612 6.55926C52.4252 3.19368 52.1433 1.12546 52.1433 1.12546" stroke="white" stroke-miterlimit="10" stroke-linecap="round"/>
<path d="M43.5954 15.509C42.7742 13.97 42.5897 12.1697 43.0816 10.4958C43.5735 8.82196 44.7025 7.40833 46.2255 6.55926C51.8615 3.19368 52.1433 1.12546 52.1433 1.12546" stroke="white" stroke-miterlimit="10" stroke-linecap="round"/>
<path d="M40.8526 16.2987C40.7889 14.5548 40.0453 12.9052 38.7812 11.7032C37.517 10.5013 35.8328 9.84266 34.0893 9.8684C27.5704 9.8684 26.2553 8.13861 26.2553 8.13861" stroke="white" stroke-miterlimit="10" stroke-linecap="round"/>
<path d="M26.0487 24.8725C24.569 23.9513 23.5097 22.4856 23.0986 20.7908C22.6876 19.096 22.9576 17.3075 23.8506 15.8099C27.0067 10.1692 26.2365 8.13861 26.2365 8.13861" stroke="white" stroke-miterlimit="10" stroke-linecap="round"/>
<path d="M24.0761 26.9407C23.1491 25.4617 21.68 24.405 19.9837 23.9973C18.2874 23.5896 16.4991 23.8633 15.0021 24.7597C9.36609 27.9372 7.33713 27.1851 7.33713 27.1851" stroke="white" stroke-miterlimit="10" stroke-linecap="round"/>
<path d="M15.5469 41.7755C13.8044 41.7167 12.1542 40.9772 10.9498 39.7156C9.74532 38.4539 9.08244 36.7704 9.10308 35.0256C8.97157 28.5013 7.33713 27.1851 7.33713 27.1851" stroke="white" stroke-miterlimit="10" stroke-linecap="round"/>
<path d="M14.8706 44.5582C13.3295 43.7429 11.5307 43.5638 9.85934 44.0593C8.18796 44.5548 6.77683 45.6855 5.92812 47.2093C2.58409 52.85 0.517578 53.1508 0.517578 53.1508" stroke="white" stroke-miterlimit="10" stroke-linecap="round"/>
<path d="M14.9081 61.6682C13.3726 62.4915 11.5755 62.679 9.90331 62.1903C8.2311 61.7015 6.81724 60.5757 5.9657 59.0547C2.5841 53.4141 0.517578 53.1508 0.517578 53.1508" stroke="white" stroke-miterlimit="10" stroke-linecap="round"/>
<path d="M15.716 64.4133C13.9735 64.4818 12.3271 65.2307 11.1297 66.4994C9.9322 67.7682 9.27888 69.4558 9.3097 71.2008C9.21577 77.7251 7.58133 79.0413 7.58133 79.0413" stroke="white" stroke-miterlimit="10" stroke-linecap="round"/>
<path d="M24.3202 79.1917C23.4025 80.6751 21.9409 81.7399 20.2484 82.1581C18.556 82.5763 16.7672 82.3146 15.2651 81.4291C9.62906 78.2892 7.6001 79.0601 7.6001 79.0601" stroke="white" stroke-miterlimit="10" stroke-linecap="round"/>
<path d="M26.3868 81.1659C24.914 82.1031 23.8655 83.5795 23.4654 85.2798C23.0652 86.98 23.3451 88.7695 24.2452 90.2661C27.4389 95.9067 26.6874 97.9186 26.6874 97.9186" stroke="white" stroke-miterlimit="10" stroke-linecap="round"/>
<path d="M41.247 89.6644C41.1931 91.4084 40.459 93.0619 39.2019 94.2708C37.9448 95.4797 36.2647 96.1479 34.5214 96.1323C27.9837 96.264 26.6874 98.0126 26.6874 98.0126" stroke="white" stroke-miterlimit="10" stroke-linecap="round"/>
<path d="M44.0087 90.3225C43.2019 91.8703 43.0312 93.6723 43.5331 95.3443C44.035 97.0162 45.1697 98.4258 46.6952 99.2723C52.3312 102.6 52.6506 104.669 52.6506 104.669" stroke="white" stroke-miterlimit="10" stroke-linecap="round"/>
<path d="M61.1234 90.2285C61.9485 91.7659 62.1392 93.5655 61.6546 95.2419C61.17 96.9183 60.0486 98.3381 58.5308 99.1971C52.8948 102.6 52.6506 104.668 52.6506 104.668" stroke="white" stroke-miterlimit="10" stroke-linecap="round"/>
<path d="M63.8474 89.42C63.9207 91.1639 64.6737 92.8097 65.9449 94.0047C67.2162 95.1996 68.9045 95.8487 70.6482 95.8127C77.1671 95.8127 78.501 97.5049 78.501 97.5049" stroke="white" stroke-miterlimit="10" stroke-linecap="round"/>
<path d="M78.6138 80.7711C80.0998 81.6862 81.1668 83.1491 81.585 84.8444C82.0032 86.5397 81.7391 88.3315 80.8494 89.8337C77.7308 95.4743 78.5011 97.5049 78.5011 97.5049" stroke="white" stroke-miterlimit="10" stroke-linecap="round"/>
<path d="M80.5676 78.7028C81.5067 80.1744 82.9848 81.2191 84.6846 81.6128C86.3844 82.0064 88.1707 81.7178 89.6603 80.8087C95.2963 77.6123 97.2877 78.3456 97.2877 78.3456" stroke="white" stroke-miterlimit="10" stroke-linecap="round"/>
<path d="M89.0028 63.8116C90.747 63.8559 92.4038 64.5844 93.6162 65.84C94.8287 67.0957 95.4995 68.7779 95.4842 70.5239C95.6533 77.0482 97.3628 78.3456 97.3628 78.3456" stroke="white" stroke-miterlimit="10" stroke-linecap="round"/>
<path d="M89.6791 61.1041C91.2251 61.9092 93.0245 62.0766 94.6923 61.5706C96.3601 61.0646 97.7637 59.9253 98.6027 58.3966C101.909 52.756 103.976 52.4175 103.976 52.4175" stroke="white" stroke-miterlimit="10" stroke-linecap="round"/>
<path d="M89.5288 43.919C91.0594 43.0852 92.8558 42.886 94.5317 43.3642C96.2075 43.8424 97.6289 44.9598 98.49 46.4761C101.89 52.1167 103.976 52.3423 103.976 52.3423" stroke="white" stroke-miterlimit="10" stroke-linecap="round"/>
<path d="M88.7022 41.1739C90.4447 41.0957 92.0872 40.3374 93.2777 39.0616C94.4682 37.7857 95.1119 36.0939 95.0709 34.3487C95.0709 27.8244 96.7429 26.4894 96.7429 26.4894" stroke="white" stroke-miterlimit="10" stroke-linecap="round"/>
<path d="M80.004 26.4331C80.9156 24.9433 82.3745 23.8707 84.0675 23.4453C85.7604 23.02 87.5526 23.2759 89.0592 24.158C94.7891 27.2604 96.7429 26.4895 96.7429 26.4895" stroke="white" stroke-miterlimit="10" stroke-linecap="round"/>
<path d="M77.9375 24.4776C79.4078 23.5377 80.4517 22.0585 80.845 20.3572C81.2384 18.656 80.9499 16.8683 80.0415 15.3774C76.8102 9.73679 77.5429 7.74377 77.5429 7.74377" stroke="white" stroke-miterlimit="10" stroke-linecap="round"/>
<path d="M63.0396 16.0731C63.0791 14.3177 63.8101 12.6489 65.0733 11.4304C66.3366 10.2119 68.0297 9.54234 69.784 9.56759C76.303 9.37956 77.5993 7.68738 77.5993 7.68738" stroke="white" stroke-miterlimit="10" stroke-linecap="round"/>
</svg>
