<svg width="104" height="98" viewBox="0 0 104 98" fill="none" xmlns="http://www.w3.org/2000/svg">
<path d="M51.3661 83.0619C70.3386 83.0619 85.7188 67.6691 85.7188 48.6811C85.7188 29.6931 70.3386 14.3003 51.3661 14.3003C32.3937 14.3003 17.0135 29.6931 17.0135 48.6811C17.0135 67.6691 32.3937 83.0619 51.3661 83.0619Z" stroke="white" stroke-miterlimit="10" stroke-linecap="round"/>
<path d="M51.3663 82.5962L65.8278 57.5309L80.2894 32.4482H51.3663H22.426L36.9048 57.5309L51.3663 82.5962Z" stroke="white" stroke-linecap="round" stroke-linejoin="round"/>
<path d="M59.2089 14.1968C59.9578 12.7838 60.1246 11.1337 59.6736 9.59919C59.2227 8.06471 58.1898 6.76769 56.7958 5.98547C51.6248 2.89758 51.3662 1 51.3662 1" stroke="white" stroke-miterlimit="10" stroke-linecap="round"/>
<path d="M43.5235 14.1968C42.7701 12.7847 42.6008 11.133 43.0521 9.59725C43.5035 8.06148 44.5393 6.76449 45.9366 5.98547C51.1076 2.89758 51.3662 1 51.3662 1" stroke="white" stroke-miterlimit="10" stroke-linecap="round"/>
<path d="M41.007 14.9214C40.9486 13.3214 40.2664 11.8078 39.1066 10.7051C37.9467 9.60232 36.4015 8.99802 34.8018 9.02164C28.8207 9.02164 27.6141 7.43457 27.6141 7.43457" stroke="white" stroke-miterlimit="10" stroke-linecap="round"/>
<path d="M27.4246 22.7878C26.067 21.9426 25.0951 20.5979 24.718 19.0429C24.3408 17.4879 24.5886 15.8469 25.4079 14.4729C28.3037 9.29766 27.597 7.43457 27.597 7.43457" stroke="white" stroke-miterlimit="10" stroke-linecap="round"/>
<path d="M25.6148 24.6853C24.7643 23.3283 23.4164 22.3589 21.8601 21.9848C20.3038 21.6107 18.663 21.8618 17.2895 22.6842C12.1185 25.5996 10.257 24.9096 10.257 24.9096" stroke="white" stroke-miterlimit="10" stroke-linecap="round"/>
<path d="M17.7894 38.2961C16.1906 38.2421 14.6766 37.5637 13.5715 36.4061C12.4665 35.2486 11.8583 33.704 11.8772 32.1031C11.7565 26.1171 10.257 24.9095 10.257 24.9095" stroke="white" stroke-miterlimit="10" stroke-linecap="round"/>
<path d="M17.1688 40.8492C15.7549 40.1011 14.1045 39.9368 12.571 40.3914C11.0375 40.846 9.74282 41.8834 8.96413 43.2815C5.89601 48.4568 4 48.7328 4 48.7328" stroke="white" stroke-miterlimit="10" stroke-linecap="round"/>
<path d="M17.2032 56.5475C15.7944 57.3029 14.1456 57.4749 12.6113 57.0265C11.0771 56.5781 9.77989 55.5452 8.99861 54.1497C5.89602 48.9744 4 48.7329 4 48.7329" stroke="white" stroke-miterlimit="10" stroke-linecap="round"/>
<path d="M17.9443 59.0662C16.3456 59.1291 14.8351 59.8161 13.7364 60.9802C12.6377 62.1442 12.0383 63.6927 12.0666 65.2937C11.9804 71.2797 10.4808 72.4873 10.4808 72.4873" stroke="white" stroke-miterlimit="10" stroke-linecap="round"/>
<path d="M25.8388 72.6252C24.9968 73.9862 23.6558 74.9632 22.1029 75.3468C20.5501 75.7305 18.9089 75.4905 17.5307 74.678C12.3597 71.7972 10.4982 72.5044 10.4982 72.5044" stroke="white" stroke-miterlimit="10" stroke-linecap="round"/>
<path d="M27.7348 74.4365C26.3835 75.2964 25.4216 76.651 25.0544 78.211C24.6873 79.771 24.9441 81.4128 25.7699 82.7859C28.7001 87.9611 28.0106 89.807 28.0106 89.807" stroke="white" stroke-miterlimit="10" stroke-linecap="round"/>
<path d="M41.369 82.2339C41.3195 83.834 40.646 85.351 39.4926 86.4602C38.3392 87.5694 36.7978 88.1825 35.1983 88.1682C29.2 88.2889 28.0106 89.8932 28.0106 89.8932" stroke="white" stroke-miterlimit="10" stroke-linecap="round"/>
<path d="M43.9027 82.8376C43.1625 84.2577 43.0059 85.9111 43.4664 87.4451C43.9268 88.9791 44.9679 90.2723 46.3675 91.049C51.5385 94.1024 51.8316 96 51.8316 96" stroke="white" stroke-miterlimit="10" stroke-linecap="round"/>
<path d="M59.6054 82.7513C60.3624 84.1619 60.5374 85.813 60.0928 87.3511C59.6481 88.8892 58.6193 90.1918 57.2267 90.9799C52.0557 94.1023 51.8317 95.9999 51.8317 95.9999" stroke="white" stroke-miterlimit="10" stroke-linecap="round"/>
<path d="M62.1047 82.0095C62.172 83.6096 62.8628 85.1196 64.0292 86.2159C65.1955 87.3123 66.7446 87.9078 68.3444 87.8748C74.3255 87.8748 75.5493 89.4274 75.5493 89.4274" stroke="white" stroke-miterlimit="10" stroke-linecap="round"/>
<path d="M75.6527 74.0742C77.0161 74.9138 77.9951 76.256 78.3788 77.8115C78.7625 79.3669 78.5201 81.0109 77.7039 82.3891C74.8426 87.5643 75.5493 89.4274 75.5493 89.4274" stroke="white" stroke-miterlimit="10" stroke-linecap="round"/>
<path d="M77.4453 72.1767C78.307 73.5268 79.6631 74.4853 81.2227 74.8465C82.7822 75.2077 84.4211 74.9428 85.7878 74.1088C90.9588 71.1761 92.786 71.8489 92.786 71.8489" stroke="white" stroke-miterlimit="10" stroke-linecap="round"/>
<path d="M85.1846 58.514C86.7848 58.5547 88.305 59.2231 89.4174 60.3751C90.5297 61.5272 91.1453 63.0706 91.1312 64.6726C91.2863 70.6586 92.8548 71.8489 92.8548 71.8489" stroke="white" stroke-miterlimit="10" stroke-linecap="round"/>
<path d="M85.8051 56.03C87.2235 56.7687 88.8745 56.9223 90.4046 56.458C91.9348 55.9938 93.2226 54.9485 93.9925 53.5459C97.0261 48.3707 98.9222 48.0602 98.9222 48.0602" stroke="white" stroke-miterlimit="10" stroke-linecap="round"/>
<path d="M85.6671 40.2629C87.0714 39.4979 88.7196 39.3151 90.2572 39.7538C91.7948 40.1926 93.0989 41.2178 93.889 42.609C97.0088 47.7842 98.9221 47.9912 98.9221 47.9912" stroke="white" stroke-miterlimit="10" stroke-linecap="round"/>
<path d="M84.9088 37.7441C86.5075 37.6724 88.0145 36.9766 89.1068 35.8061C90.1991 34.6355 90.7897 33.0833 90.752 31.4821C90.752 25.496 92.2861 24.2712 92.2861 24.2712" stroke="white" stroke-miterlimit="10" stroke-linecap="round"/>
<path d="M76.9282 24.2196C77.7647 22.8528 79.1032 21.8686 80.6564 21.4784C82.2097 21.0881 83.854 21.3229 85.2363 22.1323C90.4935 24.9786 92.2861 24.2714 92.2861 24.2714" stroke="white" stroke-miterlimit="10" stroke-linecap="round"/>
<path d="M75.0321 22.4253C76.3812 21.5629 77.3389 20.2058 77.6998 18.6449C78.0607 17.0841 77.796 15.4438 76.9626 14.076C73.9979 8.90072 74.6702 7.07214 74.6702 7.07214" stroke="white" stroke-miterlimit="10" stroke-linecap="round"/>
<path d="M61.3635 14.7144C61.3997 13.1037 62.0704 11.5727 63.2294 10.4547C64.3885 9.33674 65.9419 8.72242 67.5515 8.74558C73.5326 8.57308 74.7219 7.02051 74.7219 7.02051" stroke="white" stroke-miterlimit="10" stroke-linecap="round"/>
</svg>
