<svg width="104" height="99" viewBox="0 0 104 99" fill="none" xmlns="http://www.w3.org/2000/svg">
<path d="M52.2073 85.8852C72.2737 85.8852 88.5407 69.6049 88.5407 49.522C88.5407 29.4392 72.2737 13.1588 52.2073 13.1588C32.1409 13.1588 15.8739 29.4392 15.8739 49.522C15.8739 69.6049 32.1409 85.8852 52.2073 85.8852Z" stroke="white" stroke-miterlimit="10" stroke-linecap="round"/>
<path d="M48.356 13.2528C48.356 13.2528 44.1666 -3.18023 26.432 2.19716C8.69735 7.57455 4.18855 4.41581 4.18855 4.41581" stroke="white" stroke-miterlimit="10" stroke-linecap="round"/>
<path d="M15.7048 49.4844C15.7048 49.4844 -3.43883 44.4455 1.93415 26.6775C7.30714 8.90953 4.15098 4.43463 4.15098 4.43463" stroke="white" stroke-miterlimit="10" stroke-linecap="round"/>
<path d="M56.0961 13.2528C56.0961 13.2528 60.2855 -3.18023 78.0389 2.19716C95.7923 7.57455 100.264 4.41581 100.264 4.41581" stroke="white" stroke-miterlimit="10" stroke-linecap="round"/>
<path d="M88.7098 49.4844C88.7098 49.4844 107.872 44.4455 102.48 26.6775C97.0886 8.90953 100.282 4.43463 100.282 4.43463" stroke="white" stroke-miterlimit="10" stroke-linecap="round"/>
<path d="M56.0961 86.0544C56.0961 86.0544 60.2855 102.487 78.0389 97.11C95.7923 91.7327 100.264 94.9478 100.264 94.9478" stroke="white" stroke-miterlimit="10" stroke-linecap="round"/>
<path d="M88.7098 49.8228C88.7098 49.8228 107.872 54.8618 102.48 72.6298C97.0886 90.3977 100.282 94.9478 100.282 94.9478" stroke="white" stroke-miterlimit="10" stroke-linecap="round"/>
<path d="M48.356 86.0544C48.356 86.0544 44.1666 102.487 26.432 97.11C8.69735 91.7327 4.15097 94.9478 4.15097 94.9478" stroke="white" stroke-miterlimit="10" stroke-linecap="round"/>
<path d="M15.7048 49.8228C15.7048 49.8228 -3.43883 54.8618 1.93415 72.6298C7.30714 90.3977 4.15098 94.9478 4.15098 94.9478" stroke="white" stroke-miterlimit="10" stroke-linecap="round"/>
<path d="M26.5822 75.1868H77.8323V23.8948L26.5822 23.8948L26.5822 75.1868Z" stroke="white" stroke-miterlimit="10" stroke-linecap="round"/>
<path d="M52.2073 63.4919L60.8303 49.522L69.4534 35.5709H52.2073H34.9611L43.5842 49.522L52.2073 63.4919Z" stroke="white" stroke-linecap="round" stroke-linejoin="round"/>
</svg>
