<svg width="91" height="104" viewBox="0 0 91 104" fill="none" xmlns="http://www.w3.org/2000/svg">
<path d="M51.2287 76.0051C64.5683 72.8541 72.8299 59.4769 69.6814 46.1263C66.533 32.7758 53.1668 24.5074 39.8272 27.6584C26.4875 30.8094 18.2259 44.1866 21.3743 57.5372C24.5228 70.8878 37.889 79.1561 51.2287 76.0051Z" stroke="white" stroke-miterlimit="10" stroke-linecap="round"/>
<path d="M23.8574 39.7826C21.6717 38.5975 19.1058 38.3279 16.7218 39.0327C14.3378 39.7376 12.3301 41.3595 11.1388 43.543C6.36696 51.4963 3.41748 51.9475 3.41748 51.9475" stroke="white" stroke-miterlimit="10" stroke-linecap="round"/>
<path d="M23.8574 64.0936C21.6717 65.2787 19.1058 65.5483 16.7218 64.8434C14.3378 64.1386 12.3301 62.5167 11.1388 60.3332C6.36696 52.3799 3.41748 51.9287 3.41748 51.9287" stroke="white" stroke-miterlimit="10" stroke-linecap="round"/>
<path d="M53.7469 15.039C54.5358 13.5463 54.7102 11.8041 54.2328 10.1845C53.7554 8.56483 52.6641 7.19629 51.1919 6.37124C45.7813 3.13728 45.5559 1.12546 45.5559 1.12546" stroke="white" stroke-miterlimit="10" stroke-linecap="round"/>
<path d="M37.1959 15.039C36.4069 13.5463 36.2325 11.8041 36.7099 10.1845C37.1873 8.56483 38.2788 7.19629 39.7509 6.37124C45.1615 3.13728 45.3869 1.12546 45.3869 1.12546" stroke="white" stroke-miterlimit="10" stroke-linecap="round"/>
<path d="M19.668 27.2604C18.7081 25.6441 17.1532 24.469 15.3372 23.9874C13.5212 23.5058 11.5888 23.756 9.95516 24.6845C3.75556 27.956 1.65149 27.0911 1.65149 27.0911" stroke="white" stroke-miterlimit="10" stroke-linecap="round"/>
<path d="M71.1433 27.2603C72.0996 25.6454 73.6512 24.4707 75.4641 23.989C77.277 23.5072 79.2065 23.757 80.8373 24.6844C87.0557 27.956 89.1598 27.0911 89.1598 27.0911" stroke="white" stroke-miterlimit="10" stroke-linecap="round"/>
<path d="M38.8866 18.5738C38.8866 18.5738 34.6972 4.96109 20.4757 8.53348C6.25419 12.1059 2.44043 9.28557 2.44043 9.28557" stroke="white" stroke-miterlimit="10" stroke-linecap="round"/>
<path d="M9.89881 45.0471C6.57478 43.649 3.88928 41.0633 2.36488 37.793C0.840483 34.5228 0.586177 30.8019 1.65144 27.3544C5.20212 13.1024 2.40295 9.30438 2.40295 9.30438" stroke="white" stroke-miterlimit="10" stroke-linecap="round"/>
<path d="M52.244 18.5738C52.244 18.5738 56.4334 4.96109 70.6549 8.53348C84.8764 12.1059 88.6902 9.28557 88.6902 9.28557" stroke="white" stroke-miterlimit="10" stroke-linecap="round"/>
<path d="M81.2131 45.0471C84.5372 43.649 87.2225 41.0633 88.7469 37.793C90.2714 34.5228 90.5257 30.8019 89.4604 27.3544C85.9097 13.1024 88.709 9.30438 88.709 9.30438" stroke="white" stroke-miterlimit="10" stroke-linecap="round"/>
<path d="M37.3649 89.3072C36.576 90.7998 36.4016 92.5421 36.879 94.1617C37.3564 95.7814 38.4477 97.1499 39.9199 97.9749C45.3305 101.228 45.5559 103.24 45.5559 103.24" stroke="white" stroke-miterlimit="10" stroke-linecap="round"/>
<path d="M53.9159 89.3072C54.7049 90.7998 54.8793 92.5421 54.4019 94.1617C53.9245 95.7814 52.8331 97.1499 51.361 97.9749C45.9504 101.228 45.725 103.24 45.725 103.24" stroke="white" stroke-miterlimit="10" stroke-linecap="round"/>
<path d="M71.444 77.1234C72.4008 78.7429 73.9542 79.922 75.7705 80.4072C77.5868 80.8924 79.5207 80.645 81.1566 79.7181C87.3562 76.4466 89.4603 77.3115 89.4603 77.3115" stroke="white" stroke-miterlimit="10" stroke-linecap="round"/>
<path d="M19.9685 77.1234C19.0153 78.7416 17.4651 79.9203 15.6519 80.4056C13.8388 80.8909 11.9077 80.644 10.2746 79.7181C4.05624 76.4466 1.95215 77.3115 1.95215 77.3115" stroke="white" stroke-miterlimit="10" stroke-linecap="round"/>
<path d="M52.244 85.8664C52.244 85.8664 56.4334 99.4603 70.6549 95.9067C84.8764 92.3531 88.6902 95.1546 88.6902 95.1546" stroke="white" stroke-miterlimit="10" stroke-linecap="round"/>
<path d="M81.2131 59.3931C84.5372 60.7912 87.2225 63.3769 88.7469 66.6472C90.2714 69.9174 90.5257 73.6383 89.4604 77.0858C85.9097 91.319 88.709 95.1358 88.709 95.1358" stroke="white" stroke-miterlimit="10" stroke-linecap="round"/>
<path d="M38.8866 85.8664C38.8866 85.8664 34.6972 99.4603 20.4757 95.9067C6.25419 92.3531 2.44043 95.1546 2.44043 95.1546" stroke="white" stroke-miterlimit="10" stroke-linecap="round"/>
<path d="M9.89881 59.3931C6.57478 60.7912 3.88928 63.3769 2.36488 66.6472C0.840483 69.9174 0.586177 73.6383 1.65144 77.0858C5.20212 91.319 2.40295 95.1358 2.40295 95.1358" stroke="white" stroke-miterlimit="10" stroke-linecap="round"/>
<path d="M67.2921 39.7826C69.4778 38.5975 72.0437 38.3279 74.4277 39.0327C76.8117 39.7376 78.8194 41.3595 80.0107 43.543C84.7638 51.4963 87.7132 51.9475 87.7132 51.9475" stroke="white" stroke-miterlimit="10" stroke-linecap="round"/>
<path d="M67.2921 64.0936C69.4778 65.2787 72.0437 65.5483 74.4277 64.8434C76.8117 64.1386 78.8194 62.5167 80.0107 60.3332C84.7638 52.3799 87.7132 51.9287 87.7132 51.9287" stroke="white" stroke-miterlimit="10" stroke-linecap="round"/>
<path d="M46.2322 76.879C46.3348 79.3629 47.4164 81.705 49.2402 83.3929C51.0639 85.0807 53.4815 85.9768 55.9638 85.8852C65.2256 85.8852 67.1417 88.2167 67.1417 88.2167" stroke="white" stroke-miterlimit="10" stroke-linecap="round"/>
<path d="M67.0667 64.4133C69.188 65.6991 70.7219 67.7651 71.3399 70.1689C71.9579 72.5726 71.6109 75.123 70.3731 77.2739C65.977 85.434 67.1043 88.2167 67.1043 88.2167" stroke="white" stroke-miterlimit="10" stroke-linecap="round"/>
<path d="M23.8575 39.4629C21.7393 38.174 20.2093 36.1066 19.5949 33.7031C18.9805 31.2996 19.3304 28.7508 20.5698 26.6023C24.9471 18.4422 23.8198 15.6595 23.8198 15.6595" stroke="white" stroke-miterlimit="10" stroke-linecap="round"/>
<path d="M44.8046 26.9971C44.7018 24.5233 43.6281 22.1899 41.8166 20.5037C40.0051 18.8175 37.6021 17.9145 35.1294 17.9909C25.8676 17.9909 23.9701 15.6595 23.9701 15.6595" stroke="white" stroke-miterlimit="10" stroke-linecap="round"/>
<path d="M44.8045 76.879C44.7018 79.3629 43.6202 81.705 41.7965 83.3929C39.9727 85.0807 37.5552 85.9768 35.0729 85.8852C25.811 85.8852 23.9137 88.2167 23.9137 88.2167" stroke="white" stroke-miterlimit="10" stroke-linecap="round"/>
<path d="M23.8575 64.4133C21.7393 65.7021 20.2093 67.7695 19.5949 70.173C18.9805 72.5766 19.3304 75.1253 20.5698 77.2739C24.9471 85.434 23.8198 88.2167 23.8198 88.2167" stroke="white" stroke-miterlimit="10" stroke-linecap="round"/>
<path d="M67.0667 39.4629C69.188 38.1771 70.7219 36.1111 71.3399 33.7073C71.9579 31.3035 71.6109 28.7531 70.3731 26.6023C65.977 18.4422 67.1043 15.6595 67.1043 15.6595" stroke="white" stroke-miterlimit="10" stroke-linecap="round"/>
<path d="M46.2322 26.9971C46.3348 24.5132 47.4164 22.1711 49.2402 20.4833C51.0639 18.7954 53.4815 17.8993 55.9638 17.9909C65.2256 17.9909 67.1417 15.6595 67.1417 15.6595" stroke="white" stroke-miterlimit="10" stroke-linecap="round"/>
</svg>
