<svg width="104" height="98" viewBox="0 0 104 98" fill="none" xmlns="http://www.w3.org/2000/svg">
<path d="M57.2345 70.9296C69.5141 68.029 77.1192 55.7147 74.2209 43.425C71.3227 31.1353 59.0186 23.5239 46.739 26.4246C34.4593 29.3252 26.8541 41.6394 29.7524 53.9292C32.6507 66.2189 44.9548 73.8302 57.2345 70.9296Z" stroke="white" stroke-miterlimit="10" stroke-linecap="round"/>
<path d="M32.0383 37.5854C30.0262 36.4945 27.6642 36.2463 25.4697 36.8951C23.2751 37.544 21.427 39.037 20.3303 41.047C15.9376 48.3683 13.2225 48.7837 13.2225 48.7837" stroke="white" stroke-miterlimit="10" stroke-linecap="round"/>
<path d="M32.0383 59.9648C30.0262 61.0557 27.6642 61.3039 25.4697 60.655C23.2751 60.0062 21.427 58.5132 20.3303 56.5032C15.9376 49.1819 13.2225 48.7665 13.2225 48.7665" stroke="white" stroke-miterlimit="10" stroke-linecap="round"/>
<path d="M59.5525 14.808C60.2788 13.4339 60.4394 11.8301 59.9999 10.3392C59.5604 8.84823 58.5558 7.58844 57.2006 6.82894C52.22 3.85196 52.0125 2 52.0125 2" stroke="white" stroke-miterlimit="10" stroke-linecap="round"/>
<path d="M44.3167 14.808C43.5904 13.4339 43.4299 11.8301 43.8694 10.3392C44.3088 8.84823 45.3136 7.58844 46.6687 6.82894C51.6494 3.85196 51.8569 2 51.8569 2" stroke="white" stroke-miterlimit="10" stroke-linecap="round"/>
<path d="M28.1817 26.0582C27.298 24.5704 25.8667 23.4887 24.195 23.0453C22.5233 22.602 20.7445 22.8324 19.2407 23.687C13.5337 26.6986 11.5968 25.9024 11.5968 25.9024" stroke="white" stroke-miterlimit="10" stroke-linecap="round"/>
<path d="M75.5669 26.0582C76.4472 24.5716 77.8755 23.4902 79.5444 23.0468C81.2132 22.6033 82.9894 22.8332 84.4906 23.687C90.2148 26.6986 92.1517 25.9024 92.1517 25.9024" stroke="white" stroke-miterlimit="10" stroke-linecap="round"/>
<path d="M45.8731 18.0618C45.8731 18.0618 42.0166 5.53082 28.9252 8.81934C15.8337 12.1079 12.323 9.51167 12.323 9.51167" stroke="white" stroke-miterlimit="10" stroke-linecap="round"/>
<path d="M19.1888 42.4316C16.1289 41.1446 13.6568 38.7643 12.2535 35.7539C10.8502 32.7436 10.6161 29.3184 11.5968 26.1448C14.8653 13.0253 12.2886 9.52905 12.2886 9.52905" stroke="white" stroke-miterlimit="10" stroke-linecap="round"/>
<path d="M58.1689 18.0618C58.1689 18.0618 62.0255 5.53082 75.1169 8.81934C88.2084 12.1079 91.7191 9.51167 91.7191 9.51167" stroke="white" stroke-miterlimit="10" stroke-linecap="round"/>
<path d="M84.8362 42.4316C87.8961 41.1446 90.3681 38.7643 91.7714 35.7539C93.1746 32.7436 93.4087 29.3184 92.4281 26.1448C89.1596 13.0253 91.7364 9.52905 91.7364 9.52905" stroke="white" stroke-miterlimit="10" stroke-linecap="round"/>
<path d="M44.4724 83.1747C43.7462 84.5487 43.5856 86.1526 44.0251 87.6435C44.4646 89.1344 45.4692 90.3942 46.8244 91.1537C51.805 94.148 52.0125 95.9999 52.0125 95.9999" stroke="white" stroke-miterlimit="10" stroke-linecap="round"/>
<path d="M59.7081 83.1747C60.4343 84.5487 60.5949 86.1526 60.1554 87.6435C59.7159 89.1344 58.7113 90.3942 57.3561 91.1537C52.3755 94.148 52.168 95.9999 52.168 95.9999" stroke="white" stroke-miterlimit="10" stroke-linecap="round"/>
<path d="M75.8435 71.9591C76.7243 73.4499 78.1543 74.5353 79.8262 74.9819C81.4982 75.4285 83.2785 75.2008 84.7844 74.3476C90.4914 71.336 92.4283 72.1322 92.4283 72.1322" stroke="white" stroke-miterlimit="10" stroke-linecap="round"/>
<path d="M28.4583 71.9591C27.5808 73.4487 26.1538 74.5337 24.4847 74.9804C22.8156 75.4272 21.038 75.1999 19.5347 74.3476C13.8104 71.336 11.8735 72.1322 11.8735 72.1322" stroke="white" stroke-miterlimit="10" stroke-linecap="round"/>
<path d="M58.1689 80.0073C58.1689 80.0073 62.0255 92.521 75.1169 89.2498C88.2084 85.9786 91.7191 88.5575 91.7191 88.5575" stroke="white" stroke-miterlimit="10" stroke-linecap="round"/>
<path d="M84.8362 55.6376C87.8961 56.9246 90.3681 59.3049 91.7714 62.3153C93.1746 65.3257 93.4087 68.7509 92.4281 71.9244C89.1596 85.0266 91.7364 88.5402 91.7364 88.5402" stroke="white" stroke-miterlimit="10" stroke-linecap="round"/>
<path d="M45.8731 80.0073C45.8731 80.0073 42.0166 92.521 28.9252 89.2498C15.8337 85.9786 12.323 88.5575 12.323 88.5575" stroke="white" stroke-miterlimit="10" stroke-linecap="round"/>
<path d="M19.1888 55.6376C16.1289 56.9246 13.6568 59.3049 12.2535 62.3153C10.8502 65.3257 10.6161 68.7509 11.5968 71.9244C14.8653 85.0266 12.2886 88.5402 12.2886 88.5402" stroke="white" stroke-miterlimit="10" stroke-linecap="round"/>
<path d="M72.0217 37.5854C74.0338 36.4945 76.3958 36.2463 78.5903 36.8951C80.7849 37.544 82.633 39.037 83.7297 41.047C88.105 48.3683 90.8201 48.7837 90.8201 48.7837" stroke="white" stroke-miterlimit="10" stroke-linecap="round"/>
<path d="M72.0217 59.9648C74.0338 61.0557 76.3958 61.3039 78.5903 60.655C80.7849 60.0062 82.633 58.5132 83.7297 56.5032C88.105 49.1819 90.8201 48.7665 90.8201 48.7665" stroke="white" stroke-miterlimit="10" stroke-linecap="round"/>
<path d="M52.6348 71.734C52.7292 74.0205 53.7249 76.1765 55.4037 77.7302C57.0826 79.284 59.308 80.1089 61.5931 80.0245C70.1189 80.0245 71.8828 82.1708 71.8828 82.1708" stroke="white" stroke-miterlimit="10" stroke-linecap="round"/>
<path d="M71.8139 60.2589C73.7666 61.4425 75.1786 63.3444 75.7475 65.5572C76.3164 67.7699 75.997 70.1177 74.8576 72.0976C70.8108 79.6093 71.8485 82.1709 71.8485 82.1709" stroke="white" stroke-miterlimit="10" stroke-linecap="round"/>
<path d="M32.0382 37.291C30.0883 36.1046 28.68 34.2015 28.1144 31.9889C27.5487 29.7764 27.8708 27.4302 29.0118 25.4523C33.0412 17.9406 32.0036 15.379 32.0036 15.379" stroke="white" stroke-miterlimit="10" stroke-linecap="round"/>
<path d="M51.3209 25.8158C51.2263 23.5385 50.2379 21.3906 48.5704 19.8383C46.9029 18.2861 44.6908 17.4549 42.4145 17.5252C33.8887 17.5252 32.142 15.379 32.142 15.379" stroke="white" stroke-miterlimit="10" stroke-linecap="round"/>
<path d="M51.3208 71.734C51.2264 74.0205 50.2307 76.1765 48.5519 77.7302C46.873 79.284 44.6476 80.1089 42.3625 80.0245C33.8367 80.0245 32.0901 82.1708 32.0901 82.1708" stroke="white" stroke-miterlimit="10" stroke-linecap="round"/>
<path d="M32.0382 60.2589C30.0883 61.4453 28.68 63.3484 28.1144 65.561C27.5487 67.7735 27.8708 70.1197 29.0118 72.0976C33.0412 79.6093 32.0036 82.1709 32.0036 82.1709" stroke="white" stroke-miterlimit="10" stroke-linecap="round"/>
<path d="M71.8139 37.291C73.7666 36.1074 75.1786 34.2055 75.7475 31.9927C76.3164 29.78 75.997 27.4322 74.8576 25.4523C70.8108 17.9406 71.8485 15.379 71.8485 15.379" stroke="white" stroke-miterlimit="10" stroke-linecap="round"/>
<path d="M52.6348 25.8158C52.7292 23.5292 53.7249 21.3733 55.4037 19.8195C57.0826 18.2658 59.308 17.4409 61.5931 17.5252C70.1189 17.5252 71.8828 15.379 71.8828 15.379" stroke="white" stroke-miterlimit="10" stroke-linecap="round"/>
</svg>
