<svg width="103" height="98" viewBox="0 0 103 98" fill="none" xmlns="http://www.w3.org/2000/svg">
<g clip-path="url(#clip0_425_246)">
<path d="M72.8968 70.983C85.0265 58.8433 85.0265 39.1611 72.8968 27.0214C60.7671 14.8818 41.101 14.8818 28.9713 27.0214C16.8416 39.1611 16.8416 58.8433 28.9713 70.983C41.101 83.1226 60.7671 83.1226 72.8968 70.983Z" stroke="white" stroke-miterlimit="10" stroke-linecap="round"/>
<path d="M50.9308 68.296C61.5804 68.296 70.2136 59.6557 70.2136 48.9973C70.2136 38.339 61.5804 29.6987 50.9308 29.6987C40.2812 29.6987 31.6479 38.339 31.6479 48.9973C31.6479 59.6557 40.2812 68.296 50.9308 68.296Z" stroke="white" stroke-miterlimit="10" stroke-linecap="round"/>
<path d="M50.9308 54.3283C57.7695 54.3283 63.3133 48.7799 63.3133 41.9356C63.3133 35.0914 57.7695 29.543 50.9308 29.543C44.0922 29.543 38.5483 35.0914 38.5483 41.9356C38.5483 48.7799 44.0922 54.3283 50.9308 54.3283Z" stroke="white" stroke-miterlimit="10" stroke-linecap="round"/>
<path d="M23.1221 33.5584C23.1221 33.5584 14.1292 28.2102 8.73347 38.3182C3.33775 48.4261 0 48.98 0 48.98" stroke="white" stroke-miterlimit="10" stroke-linecap="round"/>
<path d="M23.1221 64.4363C23.1221 64.4363 14.1292 69.7673 8.73347 59.6766C3.33775 49.5859 0 48.9974 0 48.9974" stroke="white" stroke-miterlimit="10" stroke-linecap="round"/>
<path d="M78.9644 33.5584C78.9644 33.5584 87.9572 28.2102 93.353 38.3182C98.7487 48.4261 102 48.98 102 48.98" stroke="white" stroke-miterlimit="10" stroke-linecap="round"/>
<path d="M78.9644 64.4363C78.9644 64.4363 87.9572 69.7673 93.353 59.6766C98.7487 49.5859 102 48.9974 102 48.9974" stroke="white" stroke-miterlimit="10" stroke-linecap="round"/>
<path d="M50.1352 17.0811C50.1352 17.0811 50.1353 6.6962 38.7385 7.09429C27.3418 7.49238 25.1108 5 25.1108 5" stroke="white" stroke-miterlimit="10" stroke-linecap="round"/>
<path d="M23.5717 32.7796C23.5717 32.7796 14.4059 27.7429 20.355 17.9638C26.3042 8.1847 25.0936 5 25.0936 5" stroke="white" stroke-miterlimit="10" stroke-linecap="round"/>
<path d="M78.5146 65.1978C78.5146 65.1978 87.6805 70.2517 81.7313 80.0309C75.7822 89.81 76.9928 92.9774 76.9928 92.9774" stroke="white" stroke-miterlimit="10" stroke-linecap="round"/>
<path d="M51.951 80.9828C51.951 80.9828 51.951 91.3677 63.3651 90.9696C74.7791 90.5715 76.9927 93.0812 76.9927 93.0812" stroke="white" stroke-miterlimit="10" stroke-linecap="round"/>
<path d="M51.951 17.0811C51.951 17.0811 51.951 6.6962 63.3651 7.09429C74.7791 7.49238 76.9927 5 76.9927 5" stroke="white" stroke-miterlimit="10" stroke-linecap="round"/>
<path d="M78.5146 32.7796C78.5146 32.7796 87.6805 27.7429 81.7313 17.9638C75.7822 8.1847 76.9928 5 76.9928 5" stroke="white" stroke-miterlimit="10" stroke-linecap="round"/>
<path d="M23.5717 65.1978C23.5717 65.1978 14.4059 70.2517 20.355 80.0309C26.3042 89.81 25.0936 92.9774 25.0936 92.9774" stroke="white" stroke-miterlimit="10" stroke-linecap="round"/>
<path d="M50.1352 80.9828C50.1352 80.9828 50.1353 91.3677 38.7385 90.9696C27.3418 90.5715 25.1108 93.0812 25.1108 93.0812" stroke="white" stroke-miterlimit="10" stroke-linecap="round"/>
</g>
<defs>
<clipPath id="clip0_425_246">
<rect width="102.58" height="97.19" fill="white"/>
</clipPath>
</defs>
</svg>
