<svg width="112" height="98" viewBox="0 0 112 98" fill="none" xmlns="http://www.w3.org/2000/svg">
<path d="M79.7511 72.8036C92.9277 59.6161 92.9277 38.2351 79.7511 25.0476C66.5745 11.8602 45.211 11.8602 32.0343 25.0476C18.8577 38.2351 18.8577 59.6161 32.0343 72.8036C45.2109 85.991 66.5745 85.991 79.7511 72.8036Z" stroke="white" stroke-miterlimit="10" stroke-linecap="round"/>
<path d="M55.8892 69.8846C67.458 69.8846 76.8363 60.4986 76.8363 48.9203C76.8363 37.3421 67.458 27.956 55.8892 27.956C44.3204 27.956 34.942 37.3421 34.942 48.9203C34.942 60.4986 44.3204 69.8846 55.8892 69.8846Z" stroke="white" stroke-miterlimit="10" stroke-linecap="round"/>
<path d="M55.8892 54.7114C63.3181 54.7114 69.3404 48.6841 69.3404 41.2491C69.3404 33.8141 63.3181 27.7868 55.8892 27.7868C48.4603 27.7868 42.4379 33.8141 42.4379 41.2491C42.4379 48.6841 48.4603 54.7114 55.8892 54.7114Z" stroke="white" stroke-miterlimit="10" stroke-linecap="round"/>
<path d="M25.6802 32.1489C25.6802 32.1489 15.9112 26.339 10.0497 37.3195C4.18827 48.2999 0.562439 48.9015 0.562439 48.9015" stroke="white" stroke-miterlimit="10" stroke-linecap="round"/>
<path d="M25.6802 65.6918C25.6802 65.6918 15.9112 71.4829 10.0497 60.5212C4.18827 49.5596 0.562439 48.9203 0.562439 48.9203" stroke="white" stroke-miterlimit="10" stroke-linecap="round"/>
<path d="M86.3424 32.1489C86.3424 32.1489 96.1115 26.339 101.973 37.3195C107.834 48.2999 111.366 48.9015 111.366 48.9015" stroke="white" stroke-miterlimit="10" stroke-linecap="round"/>
<path d="M86.3424 65.6918C86.3424 65.6918 96.1115 71.4829 101.973 60.5212C107.834 49.5596 111.366 48.9203 111.366 48.9203" stroke="white" stroke-miterlimit="10" stroke-linecap="round"/>
<path d="M55.025 14.2493C55.025 14.2493 55.025 2.96806 42.6446 3.40051C30.2642 3.83295 27.8407 1.12546 27.8407 1.12546" stroke="white" stroke-miterlimit="10" stroke-linecap="round"/>
<path d="M26.1687 31.3028C26.1687 31.3028 16.2117 25.8314 22.6743 15.2082C29.1369 4.58504 27.8219 1.12546 27.8219 1.12546" stroke="white" stroke-miterlimit="10" stroke-linecap="round"/>
<path d="M85.8539 66.5191C85.8539 66.5191 95.8109 72.0093 89.3483 82.6325C82.8856 93.2556 84.2007 96.6964 84.2007 96.6964" stroke="white" stroke-miterlimit="10" stroke-linecap="round"/>
<path d="M56.9976 83.6666C56.9976 83.6666 56.9976 94.9478 69.3968 94.5154C81.796 94.0829 84.2007 96.8092 84.2007 96.8092" stroke="white" stroke-miterlimit="10" stroke-linecap="round"/>
<path d="M56.9976 14.2493C56.9976 14.2493 56.9976 2.96806 69.3968 3.40051C81.796 3.83295 84.2007 1.12546 84.2007 1.12546" stroke="white" stroke-miterlimit="10" stroke-linecap="round"/>
<path d="M85.8539 31.3028C85.8539 31.3028 95.8109 25.8314 89.3483 15.2082C82.8856 4.58504 84.2007 1.12546 84.2007 1.12546" stroke="white" stroke-miterlimit="10" stroke-linecap="round"/>
<path d="M26.1687 66.5191C26.1687 66.5191 16.2117 72.0093 22.6743 82.6325C29.1369 93.2556 27.8219 96.6964 27.8219 96.6964" stroke="white" stroke-miterlimit="10" stroke-linecap="round"/>
<path d="M55.025 83.6666C55.025 83.6666 55.025 94.9478 42.6446 94.5154C30.2642 94.0829 27.8407 96.8092 27.8407 96.8092" stroke="white" stroke-miterlimit="10" stroke-linecap="round"/>
</svg>
