<svg width="104" height="98" viewBox="0 0 104 98" fill="none" xmlns="http://www.w3.org/2000/svg">
<path d="M52.3662 83.0619C71.3386 83.0619 86.7188 67.6691 86.7188 48.6811C86.7188 29.6931 71.3386 14.3003 52.3662 14.3003C33.3938 14.3003 18.0135 29.6931 18.0135 48.6811C18.0135 67.6691 33.3938 83.0619 52.3662 83.0619Z" stroke="white" stroke-miterlimit="10" stroke-linecap="round"/>
<path d="M52.3664 82.5962L66.8279 57.5309L81.3066 32.4482H52.3664H23.4432L37.9048 57.5309L52.3664 82.5962Z" stroke="white" stroke-linecap="round" stroke-linejoin="round"/>
<path d="M52.3664 64.8106C61.2671 64.8106 68.4826 57.5892 68.4826 48.6811C68.4826 39.773 61.2671 32.5516 52.3664 32.5516C43.4656 32.5516 36.2501 39.773 36.2501 48.6811C36.2501 57.5892 43.4656 64.8106 52.3664 64.8106Z" stroke="white" stroke-miterlimit="10" stroke-linecap="round"/>
<path d="M60.2089 14.1968C60.9623 12.7847 61.1315 11.133 60.6802 9.59725C60.2289 8.06148 59.1931 6.76449 57.7957 5.98547C52.6247 2.89758 52.3662 1 52.3662 1" stroke="white" stroke-miterlimit="10" stroke-linecap="round"/>
<path d="M44.5235 14.1968C43.7701 12.7847 43.6008 11.133 44.0521 9.59725C44.5035 8.06148 45.5393 6.76449 46.9366 5.98547C52.1076 2.89758 52.3662 1 52.3662 1" stroke="white" stroke-miterlimit="10" stroke-linecap="round"/>
<path d="M42.007 14.9214C41.9486 13.3214 41.2664 11.8078 40.1066 10.7051C38.9467 9.60232 37.4015 8.99802 35.8018 9.02164C29.8207 9.02164 28.6141 7.43457 28.6141 7.43457" stroke="white" stroke-miterlimit="10" stroke-linecap="round"/>
<path d="M28.4246 22.7878C27.0705 21.9395 26.1015 20.5949 25.7247 19.0413C25.3479 17.4876 25.593 15.848 26.4079 14.4729C29.3037 9.29766 28.597 7.43457 28.597 7.43457" stroke="white" stroke-miterlimit="10" stroke-linecap="round"/>
<path d="M26.6148 24.6853C25.7643 23.3283 24.4164 22.3589 22.8601 21.9848C21.3038 21.6107 19.663 21.8618 18.2895 22.6842C13.1185 25.5996 11.257 24.9096 11.257 24.9096" stroke="white" stroke-miterlimit="10" stroke-linecap="round"/>
<path d="M18.7894 38.2961C17.1906 38.2421 15.6766 37.5637 14.5715 36.4061C13.4665 35.2486 12.8583 33.704 12.8772 32.1031C12.7738 26.1171 11.257 24.9095 11.257 24.9095" stroke="white" stroke-miterlimit="10" stroke-linecap="round"/>
<path d="M18.1688 40.8492C16.7548 40.1011 15.1045 39.9368 13.571 40.3914C12.0375 40.846 10.7428 41.8834 9.96416 43.2815C6.89604 48.4568 5 48.7328 5 48.7328" stroke="white" stroke-miterlimit="10" stroke-linecap="round"/>
<path d="M18.2205 56.5475C16.809 57.3038 15.1576 57.4762 13.6206 57.028C12.0835 56.5797 10.7832 55.5464 9.99861 54.1497C6.89602 48.9744 5 48.7329 5 48.7329" stroke="white" stroke-miterlimit="10" stroke-linecap="round"/>
<path d="M18.9444 59.0662C17.3457 59.1291 15.8352 59.8161 14.7365 60.9802C13.6378 62.1442 13.0384 63.6927 13.0667 65.2937C13.0667 71.2797 11.4982 72.4873 11.4982 72.4873" stroke="white" stroke-miterlimit="10" stroke-linecap="round"/>
<path d="M26.8388 72.6252C25.9968 73.9862 24.6558 74.9632 23.103 75.3468C21.5501 75.7305 19.9089 75.4905 18.5307 74.678C13.3598 71.7972 11.4982 72.5044 11.4982 72.5044" stroke="white" stroke-miterlimit="10" stroke-linecap="round"/>
<path d="M28.7347 74.4365C27.3833 75.2964 26.4215 76.651 26.0543 78.211C25.6872 79.771 25.9439 81.4128 26.7697 82.7859C29.6999 87.9611 29.0105 89.807 29.0105 89.807" stroke="white" stroke-miterlimit="10" stroke-linecap="round"/>
<path d="M42.369 82.2339C42.3195 83.834 41.646 85.351 40.4926 86.4602C39.3392 87.5694 37.7978 88.1825 36.1983 88.1682C30.2172 88.2889 29.0106 89.8932 29.0106 89.8932" stroke="white" stroke-miterlimit="10" stroke-linecap="round"/>
<path d="M44.9027 82.8376C44.1625 84.2577 44.0059 85.9111 44.4664 87.4451C44.9268 88.9791 45.9679 90.2723 47.3675 91.049C52.5385 94.1024 52.8316 96 52.8316 96" stroke="white" stroke-miterlimit="10" stroke-linecap="round"/>
<path d="M60.6053 82.7513C61.3623 84.1619 61.5373 85.813 61.0926 87.3511C60.648 88.8892 59.6192 90.1918 58.2266 90.9799C53.0556 94.1023 52.8315 95.9999 52.8315 95.9999" stroke="white" stroke-miterlimit="10" stroke-linecap="round"/>
<path d="M63.1047 82.0095C63.172 83.6096 63.8628 85.1196 65.0292 86.2159C66.1955 87.3123 67.7446 87.9078 69.3444 87.8748C75.3427 87.8748 76.5493 89.4274 76.5493 89.4274" stroke="white" stroke-miterlimit="10" stroke-linecap="round"/>
<path d="M76.6527 74.0742C78.0155 74.9141 78.9953 76.255 79.3819 77.8093C79.7686 79.3637 79.5313 81.0077 78.7211 82.3891C75.8426 87.5643 76.5493 89.4274 76.5493 89.4274" stroke="white" stroke-miterlimit="10" stroke-linecap="round"/>
<path d="M78.4452 72.1767C79.3069 73.5268 80.663 74.4853 82.2225 74.8465C83.7821 75.2077 85.421 74.9428 86.7877 74.1088C91.9587 71.1761 93.803 71.8489 93.803 71.8489" stroke="white" stroke-miterlimit="10" stroke-linecap="round"/>
<path d="M86.1844 58.514C87.7847 58.5547 89.3048 59.2231 90.4172 60.3751C91.5296 61.5272 92.1451 63.0706 92.1311 64.6726C92.2862 70.6586 93.8547 71.8489 93.8547 71.8489" stroke="white" stroke-miterlimit="10" stroke-linecap="round"/>
<path d="M86.8051 56.03C88.2235 56.7687 89.8745 56.9223 91.4046 56.458C92.9348 55.9938 94.2226 54.9485 94.9925 53.5459C98.0261 48.3707 99.9222 48.0602 99.9222 48.0602" stroke="white" stroke-miterlimit="10" stroke-linecap="round"/>
<path d="M86.6671 40.2629C88.0714 39.4979 89.7196 39.3151 91.2572 39.7538C92.7948 40.1926 94.0989 41.2178 94.889 42.609C98.026 47.7842 99.9221 47.9912 99.9221 47.9912" stroke="white" stroke-miterlimit="10" stroke-linecap="round"/>
<path d="M85.9088 37.7441C87.5075 37.6724 89.0145 36.9766 90.1068 35.8061C91.1991 34.6355 91.7897 33.0833 91.752 31.4821C91.752 25.496 93.2861 24.2712 93.2861 24.2712" stroke="white" stroke-miterlimit="10" stroke-linecap="round"/>
<path d="M77.9454 24.2195C78.7786 22.8538 80.114 21.87 81.6645 21.4797C83.215 21.0893 84.8566 21.3236 86.2362 22.1321C91.4072 24.9785 93.286 24.2712 93.286 24.2712" stroke="white" stroke-miterlimit="10" stroke-linecap="round"/>
<path d="M76.0321 22.4253C77.3812 21.5629 78.3389 20.2058 78.6998 18.6449C79.0607 17.0841 78.796 15.4438 77.9626 14.076C74.9979 8.90072 75.6702 7.07214 75.6702 7.07214" stroke="white" stroke-miterlimit="10" stroke-linecap="round"/>
<path d="M62.3635 14.7144C62.3997 13.1128 63.0632 11.5896 64.211 10.473C65.3589 9.35652 66.8991 8.73613 68.4998 8.74558C74.4809 8.57308 75.6702 7.02051 75.6702 7.02051" stroke="white" stroke-miterlimit="10" stroke-linecap="round"/>
</svg>
