<svg width="106" height="106" viewBox="0 0 106 106" fill="none" xmlns="http://www.w3.org/2000/svg">
<path d="M52.9624 90.5669C73.6409 90.5669 90.4042 73.7899 90.4042 53.0944C90.4042 32.3989 73.6409 15.6219 52.9624 15.6219C32.2838 15.6219 15.5205 32.3989 15.5205 53.0944C15.5205 73.7899 32.2838 90.5669 52.9624 90.5669Z" stroke="white" stroke-miterlimit="10" stroke-linecap="round"/>
<path d="M52.9624 90.0593L68.7244 62.7399L84.5051 35.4016H52.9624H21.4383L37.2003 62.7399L52.9624 90.0593Z" stroke="white" stroke-linecap="round" stroke-linejoin="round"/>
<path d="M52.9624 70.6743C62.6636 70.6743 70.5279 62.8035 70.5279 53.0944C70.5279 43.3853 62.6636 35.5145 52.9624 35.5145C43.2612 35.5145 35.3969 43.3853 35.3969 53.0944C35.3969 62.8035 43.2612 70.6743 52.9624 70.6743Z" stroke="white" stroke-miterlimit="10" stroke-linecap="round"/>
<path d="M61.5103 15.509C62.3315 13.97 62.516 12.1697 62.0241 10.4958C61.5322 8.82196 60.4032 7.40833 58.8802 6.55926C53.2442 3.19368 52.9624 1.12546 52.9624 1.12546" stroke="white" stroke-miterlimit="10" stroke-linecap="round"/>
<path d="M44.4144 15.509C43.5932 13.97 43.4087 12.1697 43.9006 10.4958C44.3925 8.82196 45.5215 7.40833 47.0445 6.55926C52.6805 3.19368 52.9623 1.12546 52.9623 1.12546" stroke="white" stroke-miterlimit="10" stroke-linecap="round"/>
<path d="M41.6716 16.2987C41.6079 14.5548 40.8643 12.9052 39.6002 11.7032C38.336 10.5013 36.6518 9.84266 34.9083 9.8684C28.3894 9.8684 27.0743 8.13861 27.0743 8.13861" stroke="white" stroke-miterlimit="10" stroke-linecap="round"/>
<path d="M26.8677 24.8725C25.3918 23.948 24.3357 22.4824 23.925 20.7891C23.5143 19.0957 23.7815 17.3087 24.6696 15.8099C27.8258 10.1692 27.0556 8.13861 27.0556 8.13861" stroke="white" stroke-miterlimit="10" stroke-linecap="round"/>
<path d="M24.8951 26.9407C23.9681 25.4617 22.4989 24.405 20.8027 23.9973C19.1064 23.5896 17.3181 23.8633 15.8211 24.7597C10.1851 27.9372 8.15613 27.1851 8.15613 27.1851" stroke="white" stroke-miterlimit="10" stroke-linecap="round"/>
<path d="M16.3659 41.7755C14.6234 41.7167 12.9732 40.9772 11.7688 39.7156C10.5643 38.4539 9.90144 36.7704 9.92208 35.0256C9.80936 28.5013 8.15613 27.1851 8.15613 27.1851" stroke="white" stroke-miterlimit="10" stroke-linecap="round"/>
<path d="M15.6896 44.5582C14.1485 43.7429 12.3497 43.5638 10.6783 44.0593C9.00696 44.5548 7.59589 45.6855 6.74718 47.2093C3.40315 52.85 1.33661 53.1508 1.33661 53.1508" stroke="white" stroke-miterlimit="10" stroke-linecap="round"/>
<path d="M15.7459 61.6682C14.2076 62.4924 12.4077 62.6804 10.7324 62.1918C9.05712 61.7032 7.63988 60.577 6.78473 59.0547C3.40313 53.4141 1.33661 53.1508 1.33661 53.1508" stroke="white" stroke-miterlimit="10" stroke-linecap="round"/>
<path d="M16.535 64.4133C14.7925 64.4818 13.1461 65.2307 11.9487 66.4994C10.7512 67.7682 10.0979 69.4558 10.1287 71.2008C10.1287 77.7251 8.41913 79.0413 8.41913 79.0413" stroke="white" stroke-miterlimit="10" stroke-linecap="round"/>
<path d="M25.1393 79.1917C24.2215 80.6751 22.76 81.7399 21.0675 82.1581C19.375 82.5763 17.5862 82.3146 16.0841 81.4291C10.4481 78.2892 8.41913 79.0601 8.41913 79.0601" stroke="white" stroke-miterlimit="10" stroke-linecap="round"/>
<path d="M27.2057 81.1659C25.7329 82.1031 24.6845 83.5795 24.2844 85.2798C23.8842 86.98 24.164 88.7695 25.0641 90.2661C28.2578 95.9067 27.5063 97.9186 27.5063 97.9186" stroke="white" stroke-miterlimit="10" stroke-linecap="round"/>
<path d="M42.0661 89.6644C42.0121 91.4084 41.278 93.0619 40.0209 94.2708C38.7638 95.4797 37.0838 96.1479 35.3405 96.1323C28.8215 96.264 27.5064 98.0126 27.5064 98.0126" stroke="white" stroke-miterlimit="10" stroke-linecap="round"/>
<path d="M44.8277 90.3225C44.0209 91.8703 43.8503 93.6723 44.3521 95.3443C44.854 97.0162 45.9887 98.4258 47.5142 99.2723C53.1502 102.6 53.4696 104.669 53.4696 104.669" stroke="white" stroke-miterlimit="10" stroke-linecap="round"/>
<path d="M61.9423 90.2285C62.7675 91.7659 62.9581 93.5655 62.4735 95.2419C61.9889 96.9183 60.8676 98.3381 59.3498 99.1971C53.7138 102.6 53.4695 104.668 53.4695 104.668" stroke="white" stroke-miterlimit="10" stroke-linecap="round"/>
<path d="M64.6664 89.42C64.7398 91.1639 65.4927 92.8097 66.7639 94.0047C68.0352 95.1996 69.7236 95.8487 71.4672 95.8127C78.005 95.8127 79.3201 97.5049 79.3201 97.5049" stroke="white" stroke-miterlimit="10" stroke-linecap="round"/>
<path d="M79.4328 80.7711C80.9181 81.6865 81.986 83.1479 82.4074 84.8421C82.8288 86.5362 82.5702 88.3281 81.6871 89.8337C78.5498 95.4743 79.3201 97.5049 79.3201 97.5049" stroke="white" stroke-miterlimit="10" stroke-linecap="round"/>
<path d="M81.3865 78.7028C82.3257 80.1744 83.8037 81.2191 85.5036 81.6128C87.2034 82.0064 88.9896 81.7178 90.4793 80.8087C96.1153 77.6123 98.1255 78.3456 98.1255 78.3456" stroke="white" stroke-miterlimit="10" stroke-linecap="round"/>
<path d="M89.8218 63.8116C91.5659 63.8559 93.2228 64.5844 94.4352 65.84C95.6476 67.0957 96.3185 68.7779 96.3031 70.5239C96.4722 77.0482 98.1818 78.3456 98.1818 78.3456" stroke="white" stroke-miterlimit="10" stroke-linecap="round"/>
<path d="M90.4981 61.1041C92.0441 61.9092 93.8435 62.0766 95.5113 61.5706C97.1791 61.0646 98.5827 59.9253 99.4218 58.3966C102.728 52.756 104.795 52.4175 104.795 52.4175" stroke="white" stroke-miterlimit="10" stroke-linecap="round"/>
<path d="M90.3478 43.919C91.8784 43.0852 93.6749 42.886 95.3507 43.3642C97.0266 43.8424 98.448 44.9598 99.3091 46.4761C102.728 52.1167 104.795 52.3423 104.795 52.3423" stroke="white" stroke-miterlimit="10" stroke-linecap="round"/>
<path d="M89.5212 41.1739C91.2637 41.0957 92.9062 40.3374 94.0967 39.0616C95.2872 37.7857 95.9309 36.0939 95.8898 34.3487C95.8898 27.8244 97.5619 26.4894 97.5619 26.4894" stroke="white" stroke-miterlimit="10" stroke-linecap="round"/>
<path d="M80.8418 26.433C81.7499 24.9446 83.2054 23.8724 84.8953 23.4469C86.5852 23.0215 88.3745 23.2768 89.8782 24.158C95.5142 27.2603 97.5619 26.4895 97.5619 26.4895" stroke="white" stroke-miterlimit="10" stroke-linecap="round"/>
<path d="M78.7564 24.4776C80.2268 23.5377 81.2706 22.0585 81.664 20.3572C82.0573 18.656 81.7689 16.8683 80.8605 15.3774C77.6292 9.73679 78.3619 7.74377 78.3619 7.74377" stroke="white" stroke-miterlimit="10" stroke-linecap="round"/>
<path d="M63.8586 16.0731C63.898 14.3275 64.6211 12.6673 65.8722 11.4504C67.1233 10.2335 68.8021 9.55728 70.5466 9.56759C77.0656 9.37956 78.3619 7.68738 78.3619 7.68738" stroke="white" stroke-miterlimit="10" stroke-linecap="round"/>
</svg>
