<svg width="234" height="210" viewBox="0 0 234 210" fill="none" xmlns="http://www.w3.org/2000/svg">
<path d="M133.897 18.8637L129.102 12.4602L133.897 18.8637C148.114 8.21723 171.949 1.18123 200.138 18.4231C217.508 29.0478 229.259 52.6923 225.199 82.8765C221.16 112.909 201.28 149.436 155.077 183.536C136.605 197.169 129.643 202 117 202C104.357 202 97.3948 197.169 78.9231 183.536C32.7203 149.436 12.8402 112.909 8.80075 82.8765C4.74091 52.6923 16.4918 29.0478 33.8623 18.4231C62.0512 1.18123 85.8855 8.21723 100.103 18.8637L100.33 19.0336C103.509 21.4142 106.209 23.4363 108.361 24.8414C109.477 25.5696 110.689 26.2959 111.934 26.8569C113.119 27.3908 114.893 28.0367 117 28.0367C119.107 28.0367 120.881 27.3908 122.066 26.8569C123.311 26.2959 124.523 25.5696 125.639 24.8414C127.791 23.4363 130.491 21.4143 133.67 19.0337L133.897 18.8637Z" stroke="#D72F2F" stroke-width="16" stroke-linecap="round"/>
</svg>
