<svg width="46" height="26" viewBox="0 0 46 26" fill="none" xmlns="http://www.w3.org/2000/svg">
<path d="M22.0709 3.68099C22.5738 3.01045 23.5796 3.01046 24.0825 3.68099L27.6029 8.37475C29.1116 10.3864 32.129 10.3864 33.6377 8.37475L36.9693 3.93259C37.4992 3.22609 38.5732 3.27171 39.0413 4.0206L43.3839 10.9689C43.752 11.5577 44.5276 11.7367 45.1164 11.3687C45.7053 11.0007 45.8843 10.225 45.5163 9.6362L41.1736 2.68791C39.7694 0.441227 36.5473 0.304366 34.9577 2.42388L31.6261 6.86604C31.1232 7.53658 30.1174 7.53658 29.6145 6.86604L26.0941 2.17228C24.5854 0.160671 21.568 0.160672 20.0593 2.17228L16.539 6.86604C16.0361 7.53658 15.0303 7.53658 14.5274 6.86604L11.1958 2.42388C9.60612 0.304366 6.38406 0.441227 4.97988 2.68791L0.637196 9.6362C0.269184 10.225 0.448184 11.0007 1.037 11.3687C1.62582 11.7367 2.40149 11.5577 2.7695 10.9689L7.11218 4.0206C7.58024 3.27171 8.65426 3.22609 9.18414 3.93259L12.5158 8.37475C14.0245 10.3864 17.0419 10.3864 18.5506 8.37475L22.0709 3.68099Z" fill="black"/>
<path d="M22.0709 17.5108C22.5738 16.8403 23.5796 16.8403 24.0825 17.5108L27.6029 22.2046C29.1116 24.2162 32.129 24.2162 33.6377 22.2046L36.9693 17.7624C37.4992 17.0559 38.5732 17.1015 39.0413 17.8504L43.3839 24.7987C43.752 25.3875 44.5276 25.5665 45.1164 25.1985C45.7053 24.8305 45.8843 24.0549 45.5163 23.466L41.1736 16.5177C39.7694 14.2711 36.5473 14.1342 34.9577 16.2537L31.6261 20.6959C31.1232 21.3664 30.1174 21.3664 29.6145 20.6959L26.0941 16.0021C24.5854 13.9905 21.568 13.9905 20.0593 16.0021L16.539 20.6959C16.0361 21.3664 15.0303 21.3664 14.5274 20.6959L11.1958 16.2537C9.60612 14.1342 6.38406 14.2711 4.97988 16.5177L0.637196 23.466C0.269184 24.0549 0.448184 24.8305 1.037 25.1985C1.62582 25.5665 2.40149 25.3875 2.7695 24.7987L7.11218 17.8504C7.58024 17.1015 8.65426 17.0559 9.18414 17.7624L12.5158 22.2046C14.0245 24.2162 17.0419 24.2162 18.5506 22.2046L22.0709 17.5108Z" fill="black"/>
</svg>
