<svg width="47" height="49" viewBox="0 0 47 49" fill="none" xmlns="http://www.w3.org/2000/svg">
<path d="M27.1237 6.55265C29.9499 3.22368 32.757 1.81898 34.9838 1.28314C36.0878 1.0175 37.0239 0.971431 37.7163 0.994118C38.0623 1.00546 38.3443 1.03388 38.5501 1.05923C38.6313 1.06924 38.7034 1.07917 38.7539 1.0861L38.7849 1.09036L38.7957 1.09181C40.4542 1.1109 42.363 1.87069 43.8581 3.10348C45.3914 4.3677 46.6452 6.2633 46.6452 8.62077C46.6452 10.6374 46.2905 12.4824 45.2709 14.0197C44.2391 15.5753 42.6323 16.658 40.4398 17.3467C39.7774 17.5548 39.0717 17.1865 38.8636 16.524C38.6555 15.8616 39.0238 15.1558 39.6863 14.9478C41.4874 14.382 42.5431 13.5831 43.1754 12.6299C43.8197 11.6584 44.1307 10.3673 44.1307 8.62077C44.1307 7.215 43.3876 5.97457 42.2585 5.04356C41.1104 4.09698 39.721 3.60596 38.7318 3.60596C38.6135 3.60596 38.4817 3.58704 38.4512 3.58267L38.446 3.58193L38.4047 3.57627C38.3551 3.56946 38.3044 3.5625 38.2425 3.55487C38.0904 3.53612 37.886 3.51554 37.6339 3.50728C37.1299 3.49077 36.4231 3.5231 35.5721 3.72787C33.8892 4.13284 31.5392 5.23696 29.0406 8.18004C27.3088 10.2199 26.0425 12.9716 25.2098 15.6713C24.3772 18.371 24.0145 20.8993 24.0145 22.4193V47.5076C24.0145 48.2019 23.4516 48.7648 22.7573 48.7648C22.0629 48.7648 21.5 48.2019 21.5 47.5076V22.3624C21.5 20.8297 21.1559 18.2885 20.3683 15.5786C19.5802 12.8666 18.3821 10.1052 16.7465 8.06072C14.3879 5.11245 12.1808 4.01991 10.6211 3.62162C9.83114 3.41989 9.17669 3.38841 8.71194 3.40457C8.47932 3.41266 8.29076 3.4328 8.15012 3.4512C8.09272 3.4587 8.04607 3.4655 7.9994 3.47231L7.95978 3.47807L7.95638 3.47859C7.93181 3.48238 7.79472 3.50356 7.67019 3.50356C6.77783 3.50356 5.49 3.97798 4.41202 4.92121C3.35781 5.84364 2.64116 7.09268 2.64116 8.53259C2.64116 10.2941 2.93741 11.6006 3.55016 12.581C4.14692 13.5358 5.13397 14.3245 6.81051 14.8834C7.46925 15.103 7.82525 15.815 7.60567 16.4737C7.3861 17.1324 6.67409 17.4884 6.01536 17.2689C3.92013 16.5705 2.39266 15.4733 1.41785 13.9136C0.459033 12.3795 0.126648 10.5428 0.126648 8.53259C0.126648 6.20072 1.29588 4.30662 2.7562 3.02885C4.17182 1.79017 5.99413 1.01193 7.59922 0.989537L11.2432 1.18529C13.3761 1.72995 16.0396 3.15191 18.71 6.48992C20.6288 8.88835 21.9452 11.9941 22.7829 14.8768C22.7895 14.8994 22.7961 14.922 22.8026 14.9446C22.8041 14.9398 22.8055 14.935 22.807 14.9302C23.696 12.0479 25.0921 8.94568 27.1237 6.55265Z" fill="black"/>
</svg>
