<svg width="49" height="49" viewBox="0 0 49 49" fill="none" xmlns="http://www.w3.org/2000/svg">
<path fill-rule="evenodd" clip-rule="evenodd" d="M24.7719 48.5076C34.3621 48.5076 42.6323 42.8562 46.4341 34.7021C47.8262 32.9765 48.6597 30.7813 48.6597 28.3914C48.6597 22.8365 44.1565 18.3334 38.6016 18.3334C33.0467 18.3334 28.5436 22.8365 28.5436 28.3914C28.5436 33.9464 33.0467 38.4495 38.6016 38.4495C39.5705 38.4495 40.5075 38.3125 41.3941 38.0568C37.4757 42.8979 31.4853 45.993 24.7719 45.993C19.7264 45.993 15.0893 44.2448 11.4332 41.321C10.9044 40.7231 10.2454 40.0296 9.95906 39.9237C9.71812 39.8346 9.46619 39.7856 9.24539 39.7856C8.55102 39.7856 7.98813 40.3485 7.98813 41.0429C7.98813 41.4487 8.18039 41.8096 8.4788 42.0395L8.43697 42.0497C12.7089 46.0548 18.454 48.5076 24.7719 48.5076ZM44.3075 33.326C45.4525 32.0032 46.1452 30.2782 46.1452 28.3914C46.1452 24.2253 42.7678 20.8479 38.6016 20.8479C34.4354 20.8479 31.0581 24.2253 31.0581 28.3914C31.0581 32.5576 34.4354 35.935 38.6016 35.935C40.8697 35.935 42.904 34.934 44.2869 33.3497L44.2963 33.3287L44.3075 33.326Z" fill="black"/>
<path fill-rule="evenodd" clip-rule="evenodd" d="M24.7719 0.731781C34.1388 0.731781 42.2464 6.12298 46.1612 13.9717C46.1612 13.741 46.1965 14.1255 46.1612 13.9717C46.1612 14.6661 46.3003 15.8189 44.8879 15.8189C44.1936 15.8189 43.6307 14.5616 43.6307 14.5616C43.6307 14.5556 43.6292 14.5497 43.6264 14.5445C40.0257 7.82024 32.9329 3.2463 24.7719 3.2463C16.5507 3.2463 9.41367 7.88791 5.8384 14.6935C7.33453 13.8108 9.07911 13.3044 10.942 13.3044C16.4969 13.3044 21 17.8075 21 23.3624C21 28.9173 16.4969 33.4205 10.942 33.4205C5.9282 33.4205 1.77125 29.7519 1.00892 24.9527L0.886725 24.9824C0.884929 24.8617 0.884027 24.7408 0.884027 24.6197C0.884027 24.365 0.888013 24.1112 0.895927 23.8584C0.887947 23.6941 0.883911 23.5287 0.883911 23.3624C0.883911 22.5753 0.974317 21.8094 1.14531 21.0743C2.85804 9.56275 12.7837 0.731781 24.7719 0.731781ZM3.41279 23.8318C3.65515 27.7794 6.93342 30.906 10.942 30.906C15.1082 30.906 18.4855 27.5286 18.4855 23.3624C18.4855 19.1962 15.1082 15.8189 10.942 15.8189C7.39975 15.8189 4.42778 18.2603 3.61701 21.5523C3.5095 22.3003 3.44073 23.0609 3.41279 23.8318Z" fill="black"/>
</svg>
