<svg width="49" height="46" viewBox="0 0 49 46" fill="none" xmlns="http://www.w3.org/2000/svg">
<path d="M1.81158 1.44371L3.74632 2.08862C4.95441 2.49132 6.05215 3.16976 6.9526 4.07021C8.49091 5.60852 9.35513 7.69492 9.35513 9.87043V10.2445M9.35513 27.8461V10.2445M9.35513 10.2445L13.4243 5.15808C14.0604 4.36294 14.8154 3.67073 15.6627 3.1059C17.2884 2.02207 19.1986 1.44371 21.1525 1.44371H22.4011C23.7434 1.44371 25.0673 1.75624 26.2679 2.35654L26.9162 2.6807C28.5522 3.49868 29.7962 4.93306 30.3746 6.66827C30.609 7.37149 30.7285 8.1079 30.7285 8.84915V24.4992C30.7285 25.0532 30.7743 25.6062 30.8654 26.1527L31.4758 29.8151C31.6163 30.6581 31.8669 31.4737 32.2175 32.2422M32.2175 32.2422L34.0361 29.7416C34.3451 29.3168 34.6869 28.9168 35.0583 28.5453L36.394 27.2096C37.5965 26.0071 39.2274 25.3316 40.928 25.3316H40.9991C43.2072 25.3316 45.2535 26.4902 46.3895 28.3836C47.584 30.3744 47.584 32.8614 46.3895 34.8522C45.2535 36.7456 43.2072 37.9042 40.9991 37.9042H40.2019C38.1612 37.9042 36.2041 37.0935 34.7612 35.6506L34.1794 35.0688C33.3571 34.2464 32.6947 33.2878 32.2175 32.2422ZM32.2175 32.2422L25.2824 41.778C24.7304 42.537 24.004 43.1523 23.1646 43.572C22.3512 43.9787 21.4542 44.1905 20.5448 44.1905H15.6414" stroke="black" stroke-width="2" stroke-linecap="round"/>
</svg>
