<svg width="45" height="45" viewBox="0 0 45 45" fill="none" xmlns="http://www.w3.org/2000/svg">
<path fill-rule="evenodd" clip-rule="evenodd" d="M21.6641 0.246307C18.8074 0.246307 16.0677 1.38113 14.0477 3.40112C12.3998 5.04908 11.3308 7.18709 11.0012 9.49424L10.6578 11.898C10.3274 14.2103 10.4489 16.5647 11.0154 18.8307L12.1829 23.5006C11.1746 23.0982 10.0744 22.8769 8.92251 22.8769C4.06196 22.8769 0.121704 26.8172 0.121704 31.6777C0.121704 36.5383 4.06196 40.4785 8.92251 40.4785C13.7831 40.4785 17.7233 36.5383 17.7233 31.6777C17.7233 29.2687 16.7554 27.0857 15.1872 25.4965C15.1588 25.1529 15.1026 24.8118 15.0188 24.4767L13.4548 18.2208C12.9672 16.2704 12.8627 14.2439 13.147 12.2536L13.4904 9.84984C13.7431 8.08129 14.5625 6.4424 15.8258 5.17915C17.3742 3.63072 19.4743 2.76082 21.6641 2.76082H23.4145C24.4782 2.76082 25.5322 2.9638 26.5198 3.35886L26.8669 3.49767C29.1418 4.40764 30.8413 6.3547 31.4356 8.7317C32.3 12.1894 32.1605 15.8218 31.0334 19.203L29.0879 25.0397L27.0177 33.3202C26.6723 34.702 26.638 36.1434 26.9173 37.5401L27.042 38.1633C27.6018 40.9624 29.5374 43.2894 32.1878 44.3496C34.2016 45.1551 36.4482 45.1551 38.462 44.3496L38.7028 44.2533C41.1869 43.2596 43.1075 41.2227 43.9535 38.6846L44.0612 38.3616C44.2808 37.7029 43.9248 36.9909 43.266 36.7713C42.6073 36.5517 41.8953 36.9077 41.6757 37.5665L41.568 37.8895C40.9559 39.7259 39.5663 41.1997 37.769 41.9186L37.5282 42.0149C36.1138 42.5807 34.536 42.5807 33.1217 42.0149C31.2603 41.2704 29.9008 39.6361 29.5077 37.6702L29.383 37.047C29.1767 36.0153 29.202 34.9507 29.4572 33.93L31.5039 25.7432L33.4189 19.9981C34.6972 16.1633 34.8554 12.0434 33.875 8.12185C33.085 4.96152 30.8253 2.37284 27.8007 1.163L27.4537 1.02419C26.169 0.510323 24.7981 0.246307 23.4145 0.246307H21.6641ZM15.5231 31.6777C15.5231 35.3232 12.5679 38.2783 8.92251 38.2783C5.27709 38.2783 2.3219 35.3232 2.3219 31.6777C2.3219 28.0323 5.27709 25.0771 8.92251 25.0771C12.5679 25.0771 15.5231 28.0323 15.5231 31.6777Z" fill="black"/>
</svg>
