<svg width="44" height="43" viewBox="0 0 44 43" fill="none" xmlns="http://www.w3.org/2000/svg">
<path d="M30.4531 31.1034C30.4531 30.409 31.016 29.8461 31.7104 29.8461H31.6317C34.7639 27.0816 36.7394 23.0369 36.7394 18.5308C36.7394 10.1984 29.9847 3.44371 21.6523 3.44371C13.3199 3.44371 6.56522 10.1984 6.56522 18.5308C6.56522 23.0369 8.54069 27.0816 11.6729 29.8461H11.5942C12.2886 29.8461 12.8515 30.409 12.8515 31.1034C12.8515 31.7977 12.2886 32.3606 11.5942 32.3606H1.53619C0.841834 32.3606 0.278931 31.7977 0.278931 31.1034C0.278931 30.409 0.841834 29.8461 1.53619 29.8461H8.16921C5.59887 26.7865 4.0507 22.8395 4.0507 18.5308C4.0507 8.8097 11.9312 0.929199 21.6523 0.929199C31.3734 0.929199 39.2539 8.8097 39.2539 18.5308C39.2539 22.8395 37.7057 26.7865 35.1354 29.8461H41.7684C42.4628 29.8461 43.0257 30.409 43.0257 31.1034C43.0257 31.7977 42.4628 32.3606 41.7684 32.3606H31.7104C31.016 32.3606 30.4531 31.7977 30.4531 31.1034Z" fill="black"/>
<path d="M1.53619 39.9042C0.841834 39.9042 0.278931 40.4671 0.278931 41.1614C0.278931 41.8558 0.841834 42.4187 1.53619 42.4187H41.7684C42.4628 42.4187 43.0257 41.8558 43.0257 41.1614C43.0257 40.4671 42.4628 39.9042 41.7684 39.9042H1.53619Z" fill="black"/>
</svg>
