<svg width="34" height="46" viewBox="0 0 34 46" fill="none" xmlns="http://www.w3.org/2000/svg">
<path d="M3.98685 0.804684C4.60791 0.494155 5.36311 0.745889 5.67364 1.36695L8.30203 6.62372C10.5375 11.0946 11.8019 15.9167 12.0883 20.7881H22.155C22.4415 15.9167 23.7059 11.0946 25.9414 6.62372L28.5697 1.36695C28.8803 0.745889 29.6355 0.494155 30.2565 0.804684C30.8776 1.11521 31.1293 1.87041 30.8188 2.49147L28.1904 7.74825C26.1317 11.8656 24.9576 16.3029 24.6742 20.7881H32.2088C32.9031 20.7881 33.466 21.351 33.466 22.0453C33.466 22.7397 32.9031 23.3026 32.2088 23.3026H24.6087C24.6588 27.872 25.6312 32.4385 27.5324 36.7161L30.8432 44.1653C31.1252 44.7999 30.8394 45.5429 30.2049 45.8249C29.5704 46.1069 28.8274 45.8211 28.5454 45.1866L25.2346 37.7373C23.1888 33.1343 22.1443 28.2197 22.094 23.3026H12.1494C12.0991 28.2197 11.0546 33.1343 9.00879 37.7373L5.69801 45.1866C5.416 45.8211 4.67301 46.1069 4.0385 45.8249C3.40398 45.5429 3.11821 44.7999 3.40022 44.1653L6.711 36.7161C8.61215 32.4385 9.58455 27.872 9.63471 23.3026H2.0346C1.34024 23.3026 0.777344 22.7397 0.777344 22.0453C0.777344 21.351 1.34024 20.7881 2.0346 20.7881H9.56916C9.28578 16.3029 8.11166 11.8656 6.05298 7.74825L3.42459 2.49147C3.11406 1.87041 3.3658 1.11521 3.98685 0.804684Z" fill="black"/>
</svg>
