<svg width="44" height="43" viewBox="0 0 44 43" fill="none" xmlns="http://www.w3.org/2000/svg">
<path d="M43.228 0.962448C43.1666 0.81416 43.0756 0.675231 42.9551 0.55469L42.0661 0.186447H21.95C21.2556 0.186447 20.6927 0.74934 20.6927 1.4437C20.6927 2.13807 21.2556 2.70096 21.95 2.70096H39.0308L15.6637 26.0681L7.7519 18.1563C7.26091 17.6653 6.46486 17.6653 5.97387 18.1563C5.48288 18.6473 5.48288 19.4433 5.97387 19.9343L13.8857 27.8461L0.944841 40.7869C0.453852 41.2779 0.453852 42.074 0.944841 42.565C1.43583 43.0559 2.23188 43.0559 2.72287 42.565L15.6637 29.6241L23.5755 37.5359C24.0665 38.0269 24.8625 38.0269 25.3535 37.5359C25.8445 37.0449 25.8445 36.2489 25.3535 35.7579L17.4417 27.8461L40.8088 4.47899V20.3026C40.8088 20.9969 41.3717 21.5598 42.0661 21.5598C42.7605 21.5598 43.3233 20.9969 43.3233 20.3026V1.4437C43.3233 1.27323 43.2894 1.11069 43.228 0.962448Z" fill="black"/>
</svg>
