<svg width="45" height="44" viewBox="0 0 45 44" fill="none" xmlns="http://www.w3.org/2000/svg">
<path d="M3.02031 0.658318C2.58654 0.116111 1.79536 0.0282014 1.25315 0.461967C0.710944 0.895733 0.623035 1.68692 1.0568 2.22912L5.81033 8.17103V34.1324H8.32484V8.18735L12.4038 3.32253C12.9073 2.72207 13.8315 2.72346 14.3331 3.32545L18.3829 8.1852V34.1324H20.8974V8.1852L24.9606 3.30938C25.4632 2.70621 26.3897 2.70621 26.8923 3.30938L30.6641 7.83551C30.8524 8.06146 30.9555 8.34627 30.9555 8.64039V27.8418L30.9555 27.8461V33.7517C30.9555 35.068 31.3451 36.3547 32.0752 37.4499C33.3117 39.3046 35.3933 40.4187 37.6224 40.4187H39.7563V43.5834C39.7563 43.8074 40.0271 43.9196 40.1855 43.7612L44.6075 39.3392C44.7057 39.241 44.7057 39.0818 44.6075 38.9836L40.1855 34.5617C40.0271 34.4033 39.7563 34.5154 39.7563 34.7395V37.9042H37.6224C36.234 37.9042 34.9375 37.2103 34.1674 36.0551C33.7126 35.373 33.47 34.5715 33.47 33.7517L33.47 8.64039C33.47 7.75803 33.1606 6.9036 32.5958 6.22576L28.824 1.69963C27.3161 -0.109891 24.5368 -0.109896 23.0289 1.69963L19.6402 5.76611L16.2648 1.7157C14.7598 -0.0902649 11.9874 -0.0944583 10.477 1.70695L7.09042 5.74596L3.02031 0.658318Z" fill="black"/>
</svg>
