<svg width="49" height="44" viewBox="0 0 49 44" fill="none" xmlns="http://www.w3.org/2000/svg">
<path fill-rule="evenodd" clip-rule="evenodd" d="M0.61145 1.76083C0.61145 1.06646 1.17434 0.503571 1.86871 0.503571H2.83184C6.56317 0.503571 10.1834 1.77348 13.0971 4.10442C14.6222 5.32454 15.9176 6.80678 16.9225 8.48157L18.013 10.2991C18.9097 11.7936 19.6402 13.3818 20.1914 15.0353L20.5656 16.1581C21.8125 15.7889 23.1328 15.5907 24.4993 15.5907C25.8659 15.5907 27.1862 15.7889 28.433 16.1581L28.8073 15.0353C29.3585 13.3818 30.0889 11.7936 30.9857 10.2991L32.0762 8.48157C33.081 6.80678 34.3765 5.32454 35.9016 4.10442C38.8153 1.77348 42.4355 0.503571 46.1668 0.503571H47.13C47.8243 0.503571 48.3872 1.06646 48.3872 1.76083C48.3872 2.45519 47.8243 3.01809 47.13 3.01809H46.1668C43.0065 3.01809 39.9402 4.09367 37.4724 6.06793C36.1806 7.10134 35.0835 8.35676 34.2323 9.77528L33.1418 11.5928C32.3395 12.93 31.6859 14.351 31.1928 15.8305L30.7723 17.0918C35.2575 19.3785 38.3292 24.0408 38.3292 29.4205C38.3292 37.0585 32.1373 43.2503 24.4993 43.2503C16.8613 43.2503 10.6695 37.0585 10.6695 29.4205C10.6695 24.0408 13.7412 19.3785 18.2264 17.0918L17.8059 15.8305C17.3127 14.351 16.6592 12.93 15.8568 11.5928L14.7663 9.77528C13.9152 8.35676 12.818 7.10134 11.5263 6.06793C9.05845 4.09367 5.9922 3.01809 2.83184 3.01809H1.86871C1.17434 3.01809 0.61145 2.45519 0.61145 1.76083ZM24.4993 40.7358C30.7486 40.7358 35.8147 35.6698 35.8147 29.4205C35.8147 23.1712 30.7486 18.1052 24.4993 18.1052C18.2501 18.1052 13.184 23.1712 13.184 29.4205C13.184 35.6698 18.2501 40.7358 24.4993 40.7358Z" fill="black"/>
</svg>
