<svg width="47" height="42" viewBox="0 0 47 42" fill="none" xmlns="http://www.w3.org/2000/svg">
<path fill-rule="evenodd" clip-rule="evenodd" d="M0.831154 0.77906C1.37336 0.345294 2.16454 0.433203 2.59831 0.975411L6.66843 6.06305L10.055 2.02404C11.5654 0.222635 14.3379 0.226828 15.8428 2.03279L19.2182 6.0832L22.6069 2.01672C24.1148 0.207197 26.8941 0.207202 28.402 2.01672L32.1738 6.54285C32.7386 7.22069 33.048 8.07512 33.048 8.95748V11.3235C33.8893 10.517 34.6186 9.87039 35.3032 9.38138C36.5996 8.4554 37.7949 8.0471 39.3343 8.0471C40.3287 8.0471 41.457 8.51636 42.4604 9.29174C43.4931 10.0898 44.4864 11.279 45.1979 12.8798C46.6302 16.1026 46.8751 20.8685 44.2734 27.3729C42.3747 32.1196 39.3514 35.2861 36.181 37.3396C37.5083 38.382 39.3731 39.1957 41.9876 39.4862C42.6777 39.5629 43.175 40.1845 43.0984 40.8746C43.0217 41.5647 42.4001 42.062 41.7099 41.9854C38.1571 41.5906 35.6134 40.3248 33.8541 38.6479C30.6452 40.1992 27.5285 40.7358 25.5044 40.7358C24.8101 40.7358 24.2472 40.1729 24.2472 39.4785C24.2472 38.7842 24.8101 38.2213 25.5044 38.2213C27.1191 38.2213 29.5982 37.8098 32.2122 36.6411C32.2093 36.6365 32.2064 36.6318 32.2035 36.6272C30.6084 34.089 30.3129 31.2523 30.5335 29.3451V8.95748C30.5335 8.66336 30.4304 8.37855 30.2421 8.1526L26.4703 3.62648C25.9677 3.0233 25.0412 3.0233 24.5386 3.62647L20.4754 8.50229V34.4495C20.4754 35.1439 19.9125 35.7068 19.2182 35.7068C18.5238 35.7068 17.9609 35.1439 17.9609 34.4495V8.50229L13.9111 3.64254C13.4095 3.04056 12.4853 3.03916 11.9819 3.63963L7.90284 8.50444V34.4495C7.90284 35.1438 7.33995 35.7067 6.64559 35.7067C5.95122 35.7067 5.38833 35.1438 5.38833 34.4495V8.48812L0.634804 2.54622C0.201038 2.00401 0.288947 1.21283 0.831154 0.77906ZM33.048 29.4364C33.0482 29.4247 33.0482 29.413 33.048 29.4014L33.048 14.8543C34.7529 13.1512 35.8356 12.0912 36.7647 11.4275C37.6686 10.7819 38.3592 10.5616 39.3343 10.5616C39.5971 10.5616 40.1976 10.721 40.9229 11.2814C41.6189 11.8193 42.3543 12.673 42.9001 13.9011C43.9823 16.336 44.366 20.3708 41.9387 26.439C40.1901 30.8106 37.3607 33.6611 34.4437 35.4613C34.4057 35.4041 34.3686 35.3467 34.3325 35.2892C33.3644 33.7487 33.0118 32.0412 32.9849 30.6777H33.048V29.4364Z" fill="black"/>
</svg>
